<mxfile host="Electron" modified="2024-11-05T08:02:49.259Z" agent="Mozilla/5.0 (Windows NT 10.0; Win64; x64) AppleWebKit/537.36 (KHTML, like Gecko) draw.io/24.6.4 Chrome/124.0.6367.207 Electron/30.0.6 Safari/537.36" etag="eJvb5w5rqkUxNu83YyqB" version="24.6.4" type="device">
  <diagram name="PÃ¡gina-1" id="sy9p5VX0q3dtOBgsLAct">
    <mxGraphModel dx="3627" dy="1330" grid="1" gridSize="10" guides="1" tooltips="1" connect="1" arrows="1" fold="1" page="1" pageScale="1" pageWidth="827" pageHeight="1169" math="0" shadow="0">
      <root>
        <mxCell id="0" />
        <mxCell id="1" parent="0" />
        <mxCell id="LDEMuyIFx6sQ8Yjgb2jP-13" style="edgeStyle=none;rounded=0;orthogonalLoop=1;jettySize=auto;html=1;exitX=1;exitY=0.5;exitDx=0;exitDy=0;entryX=0;entryY=0;entryDx=0;entryDy=0;" parent="1" source="LDEMuyIFx6sQ8Yjgb2jP-5" target="LDEMuyIFx6sQ8Yjgb2jP-18" edge="1">
          <mxGeometry relative="1" as="geometry">
            <mxPoint x="-104.15000000000009" y="508.54999999999995" as="targetPoint" />
          </mxGeometry>
        </mxCell>
        <mxCell id="LDEMuyIFx6sQ8Yjgb2jP-5" value="" style="shape=image;verticalLabelPosition=bottom;labelBackgroundColor=default;verticalAlign=top;aspect=fixed;imageAspect=0;image=data:image/png,iVBORw0KGgoAAAANSUhEUgAAAgAAAAIACAYAAAD0eNT6AAAAAXNSR0IArs4c6QAAIABJREFUeAHt3W2ObUeRNtD802YuGHqmGIMN9FzaoJ6DYSBgfhq9r7LlI0tXSjrvjsjMyFOrpFbJu/Mjcj2xz65bH4fWfBAgQIAAAQIECBAgQIAAAQIECBAgQIAAAQIECBAgQIAAAQIECBAgQIAAAQIECBAgQIAAAQIECBAgQIAAAQIECBAgQIAAAQIECBAgQIAAAQIECBAgQIAAAQIECBAgQIAAAQIECBAgQIAAAQIECBAgQIAAAQIECBAgQIAAAQIECBAgQIAAAQIECBAgQIAAAQIECBAgQIAAAQIECBAgQIAAAQIECBAgQIAAAQIECBAgQIAAAQIECBAgQIAAAQIECBAgQIAAAQIECBAgQIAAAQIECBAgQIAAAQIECBAgQIAAAQIECBAgQIAAAQIECBAgQIAAAQIECBAgQIAAAQIECBAgQIAAAQIECBAgQIAAAQIECBAgQIAAAQIECBAgQIAAAQIECBAgQIAAAQIECBAgQIAAAQIECBAgQIAAAQIECBAgQIAAAQIECBAgQIAAAQIECBAgQIAAAQIECBAgQIAAAQIECBAgQIAAAQIECBAgQIAAAQIECBAgQIAAAQIECBAgQIAAAQIECBAgQIAAAQIECBAgQIAAAQIECBAgQIAAAQIECBAgQIAAAQIECBAgQIAAAQIECBAgQIAAAQIECBAgQIAAAQIECBAgQIAAAQIECBAgQIAAAQIECBAgQIAAAQIECBAgQIAAAQIECBAgQIAAAQIECBAgQIAAAQIECBAgQIAAAQIECBAgQIAAAQIECBAgQIAAAQIECBAgQIAAAQIECBAgQIAAAQIECBAgQIAAAQIECBAgQIAAAQIECBAgQIAAAQIECBAgQIAAAQIECBAgQIAAAQIECBAgQIAAAQIECBAgQIAAAQIECBAgQIAAAQIECBAgQIAAAQIECBAgQIAAAQIECBAgQIAAAQIECBAgQIAAAQIECBAgQIAAAQIECBAgQIAAAQIECBAgQIAAAQIECBAgQIAAAQIECBAgQIAAAQIECBAgQIAAAQIECBAgQIAAAQIECBAgQIAAAQIECBAgQIAAAQIECBAgQIAAAQIECBAgQIAAAQIECBAgQIAAAQIECBAgQIAAAQIECBAgQIAAAQIECBAgQIAAAQIECBAgQIAAAQIECBAgQIAAAQIECBAgQIAAAQIECBAgQIAAAQIECBAgQIAAAQIECBAgQIAAAQIECBAgQIAAAQIECBAgQIAAAQIECBAgQIAAAQIECBAgQIAAAQIECBAgQIAAAQIECBAgQIAAAQIECBAgQIAAAQIECBAgQIAAAQIECBAgQIAAAQIECBD4GAK/aq193Vr7a2vtn621/+f/GOgBPaAHPmQP9GdAfxb0Z0J/Nvh4U4EvWmt/aK39y43+IW90X+j5YlcP6IF/1wM/tta+ba31Z4WPNxLogf7Zg9+DXw/oAT2gB/6PHvjOFwFv9PT/6V/+/+4rP/8//zLQA3pAD+iBVw98816PwI97mv5znf6tnVewPrPQA3pAD+iBf9cD/Znx5cd9bL7PyX/n4e+LHz2gB/SAHvjMHvjqfR6DH/ckf/vM0P/dV4X+f/7VoAf0gB74GD3w/cd9bL7PyX/wBYCv/PWAHtADeuAze+Af7/MY/Lgn8dX6x/hqXc5y1gN6ILsHPu6T801Ont0Q1vMiowf0gB74GD3wJo/Bj3sMN+rHuFHlLGc9oAeye+DjPjnf5OTZDWE9LzJ6QA/ogY/RA2/yGPy4x3CjfowbVc5y1gN6ILsHPu6T801Ont0Q1vMiowf0gB74GD3wJo/Bj3sMN+rHuFHlLGc9oAeye+DjPjnf5OTZDWE9LzJ6QA/ogY/RA2/yGPy4x4jeqB9X7j1OLv/3yPHpKeT/VO495sn/PXJ8fAoN8JjuLSbK/y1ifHwI+T+me4uJ8n+LGJ8fQgM8t3uHmfJ/hxSfn0H+z+3eYab83yHFwBk0QADvDabK/w1CDBxB/gG8N5gq/zcIMXIEDRDRu3+u/O/PMHIC+Uf07p8r//szDJ1AA4T4rp8s/+sjDB1A/iG+6yfL//oIYwfQADG/22fL//YEY/XLP+Z3+2z5355gsH4NEAS8fLr8Lw8wWL78g4CXT5f/5QFGy9cAUcG758v/7vyi1cs/Knj3fPnfnV+4eg0QJrx6AflfHV+4ePmHCa9eQP5XxxcvXgPEDW9eQf43pxevXf5xw5tXkP/N6SXUrgESEC9eQv4Xh5dQuvwTEC9eQv4Xh5dRugbIULx3Dfnfm11G5fLPULx3Dfnfm11K5RoghfHaReR/bXQphcs/hfHaReR/bXQ5hWuAHMdbV5H/rcnl1C3/HMdbV5H/rckl1a0BkiAvXUb+lwaXVLb8kyAvXUb+lwaXVbYGyJK8cx3535lbVtXyz5K8cx3535lbWtUaII3yyoXkf2VsaUXLP43yyoXkf2VseUVrgDzLG1eS/42p5dUs/zzLG1eS/42pJdasARIxL1xK/heGlliy/BMxL1xK/heGllmyBsjUvG8t+d+XWWbF8s/UvG8t+d+XWWrFGiCV87rF5H9dZKkFyz+V87rF5H9dZLkFa4Bcz9tWk/9tieXWK/9cz9tWk/9tiSXXqwGSQS9bTv6XBZZcrvyTQS9bTv6XBZZdrgbIFr1rPfnflVd2tfLPFr1rPfnflVd6tRognfSqBeV/VVzpxco/nfSqBeV/VVz5xWqAfNObVpT/TWnl1yr/fNObVpT/TWktqFUDLEC9aEn5XxTWglLlvwD1oiXlf1FYK0rVACtU71lT/vdktaJS+a9QvWdN+d+T1ZJKNcAS1msWlf81US0pVP5LWK9ZVP7XRLWmUA2wxvWWVeV/S1Jr6pT/GtdbVpX/LUktqlMDLIK9ZFn5XxLUojLlvwj2kmXlf0lQq8qMNoD5rTFgoAf0wEfsgVXPJetuEviITevMXqz1gB7QA/Ee2PSYss0qATdB/CZgyFAP6IGP2AOrnkvW3STwEZvWmb1Y6wE9oAfiPbDpMWWbVQJugvhNwJChHtADH7EHVj2XrLtJ4CM2rTN7sdYDekAPxHtg02PKNqsE3ATxm4AhQz2gBz5iD6x6Lll3k8BHbFpn9mKtB/SAHoj3wKbHlG1WCbgJ4jcBQ4Z6QA98xB5Y9Vyy7iaBj9i0zuzFWg/oAT0Q74FNjynbrBJwE8RvAoYM9YAe+Ig9sOq5ZN1NAh+xaZ3Zi7Ue0AN6IN4Dmx5Ttlkl4CaI3wQMGeoBPfARe2DVc8m6mwQ+YtM6sxdrPaAH9EC8BzY9pmyzSsBNEL8JGDLUA3rgI/bAqueSdTcJfMSmdWYv1npAD+iBeA9sekzZZpVA9CZYVZd19wjIf49z1V3kXzWZPXXJf49z2V00QNlothQm/y3MZTeRf9lothQm/y3MdTfRAHWz2VGZ/Hco191D/nWz2VGZ/HcoF95DAxQOZ0Np8t+AXHgL+RcOZ0Np8t+AXHkLDVA5nfW1yX+9ceUd5F85nfW1yX+9cekdNEDpeJYXJ//lxKU3kH/peJYXJ//lxLU30AC181ldnfxXC9deX/6181ldnfxXCxdfXwMUD2hxefJfDFx8efkXD2hxefJfDFx9eQ1QPaG19cl/rW/11eVfPaG19cl/rW/51TVA+YiWFij/pbzlF5d/+YiWFij/pbz1F9cA9TNaWaH8V+rWX1v+9TNaWaH8V+pesLYGuCCkhSXKfyHuBUvL/4KQFpYo/4W4NyytAW5IaV2N8l9ne8PK8r8hpXU1yn+d7RUra4ArYlpWpPyX0V6xsPyviGlZkfJfRnvHwhrgjpxWVSn/VbJ3rCv/O3JaVaX8V8lesq4GuCSoRWXKfxHsJcvK/5KgFpUp/0WwtyyrAW5Jak2d8l/jesuq8r8lqTV1yn+N6zWraoBrolpSqPyXsF6zqPyviWpJofJfwnrPohrgnqxWVCr/Far3rCn/e7JaUan8V6hetKYGuCisBaXKfwHqRUvK/6KwFpQq/wWoNy2pAW5KK79W+eeb3rSi/G9KK79W+eebXrWiBrgqrvRi5Z9OetWC8r8qrvRi5Z9OeteCGuCuvLKrlX+26F3ryf+uvLKrlX+26GXraYDLAksuV/7JoJctJ//LAksuV/7JoLctpwFuSyy3Xvnnet62mvxvSyy3Xvnnel63mga4LrLUguWfynndYvK/LrLUguWfynnfYhrgvswyK5Z/puZ9a8n/vswyK5Z/puaFa2mAC0NLLFn+iZgXLiX/C0NLLFn+iZg3LqUBbkwtr2b551neuJL8b0wtr2b551leuZIGuDK2tKLln0Z55ULyvzK2tKLln0Z550Ia4M7csqqWf5bknevI/87csqqWf5bkpetogEuDSypb/kmQly4j/0uDSypb/kmQty7zbg3wq9ba1621v7bW/tlai54vOr/X0GvpNfXaqn1Ez1ftPPL/vETeLf9ft9Z+11r7m/t/qhHeLf+pQxv0s8C7NMAXrbU/tNb+VeChPzL9sbX2TWut11rlY1Tr7PUq57gl/2/lv6RlftFa++MF97/8l8Rv0acCsy/0o3FP982c11/8/1z4wf+p3XeFHgKf1va5/52Z49O15P9ULv4dsuc7583sD/+/uP8fgX7u/f7p+EebmlRH4NNAP/e/K5yk/8v/c+s+Pf73FeAS3Coc48b8+3eCKnxE74MKZ/hTQh9HHT53vvwrdI4awg/O04T9Z779W+ufewOeHt9r/vI0XoLb6SPIP5ZA9D6I7R6f3X/mX/nHfiNf9388eyskCIwadPZ6QgmhJfov/MzWWm3cV6GT50yOmuRU8XwV+T+36zPlHzd4auj+j/Wu2QkCT5v3NS+hhNAS/bd9X7Xc9vn70MlzJkfNcqp4vor8n9v1mfKPGzw1dP/HetfsBIGnzfual1BCaIkfEl7EXmfZ/fkfoZPnTI6eOaeK56vI/7ldnyn/uMFTQ/d/rHfNThB42ryveQklhJboN9Grlts+/z108pzJUbOcKp6vIv/ndn2m/OMGTw3d/7HeNTtB4GnzvuYllBBawreAQ3zXPwDkL//Xa9Ftn/0IINa7ZicIRG+ahBJCS/R32Iue4dT834ROnjM5evacKp6vIv/ndn2m/OMGTw3d/7HeNTtB4GnzvuYllBBa4uY/A/tl6OQ5k185Pv2cU8XzVeT/3K7PfJr7a15s9/hs+ccMXzk+/Rzb3ezjAk+Df807foCf3l73Vc8tn/ufr1X4iHpVOEN/U5XoOXbP90ZQeZ1z4xtByT8vfysFBKIvfIGt06b2t4Ltb68bPcuu+f/dWvuPtNPHFoqeObZ7zuwb8+81V/h4l/xveivwfv/Lv0L3qyH80KxC2G+o/lV15XcF7LX1f/lXefj37N7hAdDPcVP+VV783y3//j+0c8P9L/8qTw11vM0D4BVlf3vd/g5b/TdsK/yNeK+h19J/4afCz/xfTq/P7/IFwOs8VfPvPVnhrZ9fTq/P75Z//52A3/70P8Fd6f6X/6vjfC4l8G4vAKVwLyhG/heEtLBE+S/EvWBp+V8Q0soSNcBK3fpry79+RisrlP9K3fpry79+Rksr1ABLecsvLv/yES0tUP5LecsvLv/yEa0tUAOs9a2+uvyrJ7S2Pvmv9a2+uvyrJ7S4Pg2wGLj48vIvHtDi8uS/GLj48vIvHtDq8jTAauHa68u/dj6rq5P/auHa68u/dj7Lq9MAy4lLbyD/0vEsL07+y4lLbyD/0vGsL04DrDeuvIP8K6ezvjb5rzeuvIP8K6ezoTYNsAG58BbyLxzOhtLkvwG58BbyLxzOjtI0wA7lunvIv242OyqT/w7lunvIv242WyrTAFuYy24i/7LRbClM/luYy24i/7LR7ClMA+xxrrqL/Ksms6cu+e9xrrqL/Ksms6kuDbAJuug28i8azKay5L8Juug28i8azK6yNMAu6Zr7yL9mLruqkv8u6Zr7yL9mLtuq0gDbqEtuJP+SsWwrSv7bqEtuJP+SsewrSgPss664k/wrprKvJvnvs664k/wrprKxJg2wEbvgVvIvGMrGkuS/EbvgVvIvGMrOkjTATu16e8m/XiY7K5L/Tu16e8m/XiZbK9IAW7nLbSb/cpFsLUj+W7nLbSb/cpHsLUgD7PWutpv8qyWytx757/Wutpv8qyWyuR4NsBm82HbyLxbI5nLkvxm82HbyLxbI7nI0wG7xWvvJv1Yeu6uR/27xWvvJv1Ye26vRANvJS20o/1JxbC9G/tvJS20o/1Jx7C9GA+w3r7Sj/Culsb8W+e83r7Sj/CulcaAWDXAAvdCW8i8UxoFS5H8AvdCW8i8UxolSNMAJ9Tp7yr9OFicqkf8J9Tp7yr9OFkcq0QBH2MtsKv8yURwpRP5H2MtsKv8yUZwpRAOcca+yq/yrJHGmDvmfca+yq/yrJHGoDg1wCL7ItvIvEsShMuR/CL7ItvIvEsSpMjTAKfka+8q/Rg6nqpD/Kfka+8q/Rg7HqtAAx+hLbCz/EjEcK0L+x+hLbCz/EjGcK0IDnLOvsLP8K6Rwrgb5n7OvsLP8K6RwsIZ3a4Bftda+bq39tbX2z9Za9HzR+b2GXkuvqddW7SN6vmrnkf/nJfJu+f+6tfa71trf3P9TjfBu+U8d2qCfBd6lAb5orf2htfavAg/9kemPrbVvWmu91iofo1pnr1c5xy35fyv/JS3zi9baHy+4/+W/JH6LPhWYfaEfjXu6b+a8/uL/58IP/k/tviv0EPi0ts/978wcn64l/6dy8e+QPd85b2Z/+P/F/f8I9HPv90/HP9rUpDoCnwb6uf9d4ST9X/6fW/fp8b+vAJfgVuEYN+bfvxNU4SN6H1Q4w58S+jjq8Lnz5V+hc9QQfnCeJuw/8+3fWv/cG/D0+F7zl6fxEtxOH0H+sQSi90Fs9/js/jP/yj/2G/m6/+PZWyFBYNSgs9cTSggt0X/hZ7bWauO+Cp08Z3LUJKeK56vI/7ldnyn/uMFTQ/d/rHfNThB42ryveQklhJbov+37quW2z9+HTp4zOWqWU8XzVeT/3K7PlH/c4Kmh+z/Wu2YnCDxt3te8hBJCS/yQ8CL2Osvuz/8InTxncvTMOVU8X0X+z+36TPnHDZ4auv9jvWt2gsDT5n3NSyghtES/iV613Pb576GT50yOmuVU8XwV+T+36zPlHzd4auj+j/Wu2QkCT5v3NS+hhNASvgUc4rv+ASB/+b9ei2777EcAsd41O0EgetMklBBaor/DXvQMp+b/JnTynMnRs+dU8XwV+T+36zPlHzd4auj+j/Wu2QkCT5v3NS+hhNASN/8Z2C9DJ8+Z/Mrx6eecKp6vIv/ndn3m09xf82K7x2fLP2b4yvHp59juZh8XeBr8a97xA/z09rqvem753P98rcJH1KvCGfqbqkTPsXu+N4LK65wb3whK/nn5WykgEH3hC2ydNrW/FWx/e93oWXbN/+/W2n+knT62UPTMsd1zZt+Yf6+5wse75H/TW4H3+1/+FbpfDeGHZhXCfkP1r6orvytgr63/y7/Kw79n9w4PgH6Om/Kv8uL/bvn3/6GdG+5/+Vd5aqjjbR4Aryj72+v2d9jqv2Fb4W/Eew29lv4LPxV+5v9yen1+ly8AXuepmn/vyQpv/fxyen1+t/z77wT89qf/Ce5K97/8Xx3ncymBd3sBKIV7QTHyvyCkhSXKfyHuBUvL/4KQVpaoAVbq1l9b/vUzWlmh/Ffq1l9b/vUzWlqhBljKW35x+ZePaGmB8l/KW35x+ZePaG2BGmCtb/XV5V89obX1yX+tb/XV5V89ocX1aYDFwMWXl3/xgBaXJ//FwMWXl3/xgFaXpwFWC9deX/6181ldnfxXC9deX/6181lenQZYTlx6A/mXjmd5cfJfTlx6A/mXjmd9cRpgvXHlHeRfOZ31tcl/vXHlHeRfOZ0NtWmADciFt5B/4XA2lCb/DciFt5B/4XB2lKYBdijX3UP+dbPZUZn8dyjX3UP+dbPZUpkG2MJcdhP5l41mS2Hy38JcdhP5l41mT2EaYI9z1V3kXzWZPXXJf49z1V3kXzWZTXVpgE3QRbeRf9FgNpUl/03QRbeRf9FgdpWlAXZJ19xH/jVz2VWV/HdJ19xH/jVz2VaVBthGXXIj+ZeMZVtR8t9GXXIj+ZeMZV9RGmCfdcWd5F8xlX01yX+fdcWd5F8xlY01aYCN2AW3kn/BUDaWJP+N2AW3kn/BUHaWpAF2atfbS/71MtlZkfx3atfbS/71MtlakQbYyl1uM/mXi2RrQfLfyl1uM/mXi2RvQRpgr3e13eRfLZG99ch/r3e13eRfLZHN9WiAzeDFtpN/sUA2lyP/zeDFtpN/sUB2l6MBdovX2k/+tfLYXY38d4vX2k/+tfLYXo0G2E5eakP5l4pjezHy305eakP5l4pjfzEaYL95pR3lXymN/bXIf795pR3lXymNA7VogAPohbaUf6EwDpQi/wPohbaUf6EwTpSiAU6o19lT/nWyOFGJ/E+o19lT/nWyOFKJBjjCXmZT+ZeJ4kgh8j/CXmZT+ZeJ4kwhGuCMe5Vd5V8liTN1yP+Me5Vd5V8liUN1aIBD8EW2lX+RIA6VIf9D8EW2lX+RIE6VoQFOydfYV/41cjhVhfxPydfYV/41cjhWhQY4Rl9iY/mXiOFYEfI/Rl9iY/mXiOFcERrgnH2FneVfIYVzNcj/nH2FneVfIYWDNbxbA/y6tfZ1a+2vrbV/ttai54vO7zX0WnpNvzqY82jr6PlG6566Xjn/Xlu1j3fL/z9ba79rrf2t4P0v/2rdr57wA7IK4S9aa39qrf2rwEN/9KLaa/tDa+2LKmgJVlWOclP+vdYqH6Nenb1e5Rzd9L8uuf/lX6Vr1PEWXwD0G+ovCQ+z2Re96Lg/F/oiIHqWCrfQbfn3Xq3yReC75P8/F93/8q/wqqGG/xV4hxeAP15087+8vy3Sf696nn6ucIwb8+/fCarw8TT317wKZ+j/8n/Vc8tn+VfoHDWEb5zThP3napW/7T96QfqxtfblabyEF87TR7g5/wq/EzLqz9nrp/PvP/O/9f6X/+nusf/1XwD8PuEhNvtilz3utwX6L3qm00eQfywB+Z/77oH7P9a7ZicI3P4C0H/bN3qGU/P7Xwec/oie/XT98o8lIP9zrx/u/1jvmp0gcPsLwA8XfwHwj4T8okvI/9wDQP7R7m3N/R8zvP3+j53e7PC/nk8T3vwC8PfTeAlfPJ0+gvxjCdz+AJD/x84/dnqzr/8C4OZvAX9foP9ufwDIP9ZE8j/3HSD3f6x3zU4QuP0FoL/DXvQMp+b/JiG/6BLRs0f3j86Xf0xQ/udeP9z/sd41O0Hg9heA/qc0/U/qoufYPb/X/MuE/KJLRM8d3T86/+b8/RloNP3W+p+B3nr/yz+evxWCArc/APrx+5vqRM+xe35/v/IKH9FzVzjDjfn3P1+s8PEO+d/4RlDyr9D9agg/OCsQ9rdV/e6iLwJ6rd4KNq9z5P/c8h2+ALjtraDd/8/71cxkgXd4Aegk/SHwTfFvB/ZvVfZ/+Vd5+Hc3+ccNZg17/v1ffvJPfhH7ybR/J6jyjwPkn5+7FYMCsy9eo3HB7dOn95+rfdVa679hW+FPhHoNvZb+Cz8Vfub3Kfgo19nrn653+r+r5t97Uv7ru6P/Tkh/h73+JjuV7n/5r8/eDg8EZl/oR+MebGlKIYFRrrPXCx1FKQ8EZnMejXuwpSmFBEa5zl4vdBSlPBGYDXo07sme5tQRGOU6e73OSVTyRGA259G4J3uaU0dglOvs9TonUckjgdmgR+MebWpSGYFRrrPXyxxEIY8EZnMejXu0qUllBEa5zl4vcxCFPBOYDXo07tmuZlURGOU6e73KOdTxTGA259G4Z7uaVUVglOvs9SrnUMdDgdmgR+MebmtaEYFRrrPXixxDGQ8FZnMejXu4rWlFBEa5zl4vcgxlPBWYDXo07um+5tUQGOU6e73GKVTxVGA259G4p/uaV0NglOvs9RqnUMVjgdmgR+Meb2xiCYFRrrPXSxxCEY8FZnMejXu8sYklBEa5zl4vcQhFPBeYDXo07vnOZlYQGOU6e73CGdTwXGA259G45zubWUFglOvs9QpnUENAYDbo0bjA1qYWEBjlOnu9wBGUEBCYzXk0LrC1qQUERrnOXi9wBCVEBGaDHo2L7G3ueYFRrrPXz59ABRGB2ZxH4yJ7m3teYJTr7PXzJ1BBSGA26NG40OYmHxcY5Tp7/fgBFBASmM15NC60ucnHBUa5zl4/fgAFxARmgx6Ni+1u9mmBUa6z10/Xb/+YwGzOo3Gx3c0+LTDKdfb66frtHxSYDXo0Lri96YcFRrnOXj9cvu2DArM5j8YFtzf9sMAo19nrh8u3fVRgNujRuOj+5p8VGOU6e/1s9XaPCszmPBoX3d/8swKjXGevn63e7mGB2aBH48IFWOCowCjX2etHi7d5WGA259G4cAEWOCowynX2+tHibR4XmA16NC5egRVOCoxynb1+snZ7xwVmcx6Ni1dghZMCo1xnr5+s3d4JArNBj8YllGCJgwKjXGevHyzd1gkCszmPxiWUYImDAqNcZ68fLN3WGQKzQY/GZdRgjXMCo1xnr5+r3M4ZArM5j8Zl1GCNcwKjXGevn6vczikCs0GPxqUUYZFjAqNcZ68fK9zGKQKzOY/GpRRhkWMCo1xnrx8r3MY5ArNBj8blVGGVUwKjXGevn6rbvjkCszmPxuVUYZVTAqNcZ6+fqtu+SQKzQY/GJZVhmUMCo1xnrx8q27ZJArM5j8YllWGZQwKjXGevHyrbtlkCs0GPxmXVYZ0zAqNcZ6+fqdquWQKzOY/GZdVhnTMCo1xnr5+p2q5pArNBj8alFWKhIwKjXGevHynapmkCszmPxqUVYqEjAqNcZ68fKdqmeQKzQY/G5VVipRMCo1xnr5+o2Z55ArM5j8blVWKlEwKjXGevn6jZnokCs0GPxiWWYqkDAqOTkf3rAAAOQUlEQVRcZ68fKNmWiQKzOY/GJZZiqQMCo1xnrx8o2ZaZArNBj8Zl1mKt/QKjXGev76/YjpkCszmPxmXWYq39AqNcZ6/vr9iOqQKzQY/GpRZjse0Co1xnr28v2IapArM5j8alFmOx7QKjXGevby/YhrkCs0GPxuVWY7XdAqNcZ6/vrtd+uQKzOY/G5VZjtd0Co1xnr++u137JArNBj8Yll2O5zQKjXGevby7XdskCszmPxiWXY7nNAqNcZ69vLtd22QKzQY/GZddjvb0Co1xnr++t1m7ZArM5j8Zl12O9vQKjXGev763WbukCs0GPxqUXZMGtAqNcZ69vLdZm6QKzOY/GpRdkwa0Co1xnr28t1mb5ArNBj8blV2TFnQKjXGev76zVXvkCszmPxuVXZMWdAqNcZ6/vrNVeCwRmgx6NW1BSaMlft9a+bq39tbX2z9baqO5d13sNvZZe069CJ1szOeqwpqrnq1bOv9dW7ePd8v/P1trvWmt/K3j/y79a96sn/ICsQviL1tqfWmv/KvDQH72o9tr+0Fr7ogpaglWVo9yUf6+1yseoV2evVzlHN/2vS+5/+VfpGnW8xRcA/Yb6S8LDbPZFLzruz4W+CIiepcItdFv+vVerfBH4Lvn/z0X3v/wrvGqo4X8F3uEF4I8X3fwv72+L9N+rnqefKxzjxvz7d4IqfDzN/TWvwhn6v/xf9dzyWf4VOkcN4RvnNGH/uVrlb/uPXpB+bK19eRov4YXz9BFuzr/C74SM+nP2+un8+8/8b73/5X+6e+x//RcAv094iM2+2GWP+22B/oue6fQR5B9LQP7nvnvg/o/1rtkJAre/APTf9o2e4dT8/tcBpz+iZz9dv/xjCcj/3OuH+z/Wu2YnCNz+AvDDxV8A/CMhv+gS8j/3AJB/tHtbc//HDG+//2OnNzv8r+fThDe/APz9NF7CF0+njyD/WAK3PwDk/7Hzj53e7Ou/ALj5W8DfF+i/2x8A8o81kfzPfQfI/R/rXbMTBG5/AejvsBc9w6n5v0nIL7pE9OzR/aPz5R8TlP+51w/3f6x3zU4QuP0FoP8pTf+Tuug5ds/vNf8yIb/oEtFzR/ePzr85f38GGk2/tf5noLfe//KP52+FoMDtD4B+/P6mOtFz7J7f36+8wkf03BXOcGP+/c8XK3y8Q/43vhGU/Ct0vxrCD84KhP1tVb+76IuAXqu3gs3rHPk/t3yHLwBueyto9//zfjUzWeAdXgA6SX8IfFP824H9W5X9X/5VHv7dTf5xg1nDnn//l5/8k1/EfjLt3wmq/OMA+efnbsWgwOyL12hccPv06f3nal+11vpv2Fb4E6FeQ6+l/8JPhZ/5fQo+ynX2+qfrnf7vqvn3npT/+u7ovxPS32Gvv8lOpftf/uuzt8MDgdkX+tG4B1uaUkhglOvs9UJHUcoDgdmcR+MebGlKIYFRrrPXCx1FKU8EZoMejXuypzl1BEa5zl6vcxKVPBGYzXk07sme5tQRGOU6e73OSVTySGA26NG4R5uaVEZglOvs9TIHUcgjgdmcR+MebWpSGYFRrrPXyxxEIc8EZoMejXu2q1lVBEa5zl6vcg51PBOYzXk07tmuZlURGOU6e73KOdTxUGA26NG4h9uaVkRglOvs9SLHUMZDgdmcR+MebmtaEYFRrrPXixxDGU8FZoMejXu6r3k1BEa5zl6vcQpVPBWYzXk07um+5tUQGOU6e73GKVTxWGA26NG4xxubWEJglOvs9RKHUMRjgdmcR+Meb2xiCYFRrrPXSxxCEc8FZoMejXu+s5kVBEa5zl6vcAY1PBeYzXk07vnOZlYQGOU6e73CGdQQEJgNejQusLWpBQRGuc5eL3AEJQQEZnMejQtsbWoBgVGus9cLHEEJEYHZoEfjInube15glOvs9fMnUEFEYDbn0bjI3uaeFxjlOnv9/AlUEBKYDXo0LrS5yccFRrnOXj9+AAWEBGZzHo0LbW7ycYFRrrPXjx9AATGB2aBH42K7m31aYJTr7PXT9ds/JjCb82hcbHezTwuMcp29frp++wcFZoMejQtub/phgVGus9cPl2/7oMBszqNxwe1NPywwynX2+uHybR8VmA16NC66v/lnBUa5zl4/W73dowKzOY/GRfc3/6zAKNfZ62ert3tYYDbo0bhwARY4KjDKdfb60eJtHhaYzXk0LlyABY4KjHKdvX60eJvHBWaDHo2LV2CFkwKjXGevn6zd3nGB2ZxH4+IVWOGkwCjX2esna7d3gsBs0KNxCSVY4qDAKNfZ6wdLt3WCwGzOo3EJJVjioMAo19nrB0u3dYbAbNCjcRk1WOOcwCjX2evnKrdzhsBszqNxGTVY45zAKNfZ6+cqt3OKwGzQo3EpRVjkmMAo19nrxwq3cYrAbM6jcSlFWOSYwCjX2evHCrdxjsBs0KNxOVVY5ZTAKNfZ66fqtm+OwGzOo3E5VVjllMAo19nrp+q2b5LAbNCjcUllWOaQwCjX2euHyrZtksBszqNxSWVY5pDAKNfZ64fKtm2WwGzQo3FZdVjnjMAo19nrZ6q2a5bAbM6jcVl1WOeMwCjX2etnqrZrmsBs0KNxaYVY6IjAKNfZ60eKtmmawGzOo3FphVjoiMAo19nrR4q2aZ7AbNCjcXmVWOmEwCjX2esnarZnnsBszqNxeZVY6YTAKNfZ6ydqtmeiwGzQo3GJpVjqgMAo19nrB0q2ZaLAbM6jcYmlWOqAwCjX2esHSrZlpsBs0KNxmbVYa7/AKNfZ6/srtmOmwGzOo3GZtVhrv8Ao19nr+yu2Y6rAbNCjcanFWGy7wCjX2evbC7ZhqsBszqNxqcVYbLvAKNfZ69sLtmGuwGzQo3G51Vhtt8Ao19nru+u1X67AbM6jcbnVWG23wCjX2eu767VfssBs0KNxyeVYbrPAKNfZ65vLtV2ywGzOo3HJ5Vhus8Ao19nrm8u1XbbAbNCjcdn1WG+vwCjX2et7q7VbtsBszqNx2fVYb6/AKNfZ63urtVu6wGzQo3HpBVlwq8Ao19nrW4u1WbrAbM6jcekFWXCrwCjX2etbi7VZvsBs0KNx+RVZcafAKNfZ6ztrtVe+wGzOo3H5FVlxp8Ao19nrO2u11wKB2aCNa40BAz2gB/TAzz2w4JFkyZ0CmvnnZmbBQg/oAT0w3wM7n1X2WiCg2eebnRUrPaAH9MDPPbDgkWTJnQKa+edmZsFCD+gBPTDfAzufVfZaIKDZ55udFSs9oAf0wM89sOCRZMmdApr552ZmwUIP6AE9MN8DO59V9logoNnnm50VKz2gB/TAzz2w4JFkyZ0CmvnnZmbBQg/oAT0w3wM7n1X2WiDwQ5sP243BSg/oAT2gB3oP/H3B88iSmwX+5gsAb/CjB/SAHtADn9kD329+VtlugcDXnxm6r/599a8H9IAe0AO/WfA8suRmgV+11n70RYCv/vWAHtADemCyB/oz48vNzyrbLRL4djJ0X/X7ql8P6AE9oAd+v+hZZNkDAl+01r7zRYCv/vWAHtADeuD/6IH+rOjPDB9vJNAD/caPA9z8/8fN719//vWnBz5mD/Rv+/d/+Xv4v9GD/9Oj9J/rfNVa67/h6U8EP+aN7gVe7npAD/Qe6M+A/izozwQ/8//0aem/CRAgQIAAAQIECBAgQIAAAQIECBAgQIAAAQIECBAgQIAAAQIECBAgQIAAAQIECBAgQIAAAQIECBAgQIAAAQIECBAgQIAAAQIECBAgQIAAAQIECBAgQIAAAQIECBAgQIAAAQIECBAgQIAAAQIECBAgQIAAAQIECBAgQIAAAQIECBAgQIAAAQIECBAgQIAAAQIECBAgQIAAAQIECBAgQIAAAQIECBAgQIAAAQIECBAgQIAAAQIECBAgQIAAAQIECBAgQIAAAQIECBAgQIAAAQIECBAgQIAAAQIECBAgQIAAAQIECBAgQIAAAQIECBAgQIAAAQIECBAgQIAAAQIECBAgQIAAAQIECBAgQIAAAQIECBAgQIAAAQIECBAgQIAAAQIECBAgQIAAAQIECBAgQIAAAQIECBAgQIAAAQIECBAgQIAAAQIECBAgQIAAAQIECBAgQIAAAQIECBAgQIAAAQIECBAgQIAAAQIECBAgQIAAAQIECBAgQIAAAQIECBAgQIAAAQIECBAgQIAAAQIECBAgQIAAAQIECBAgQIAAAQIECBAgQIAAAQIECBAgQIAAAQIECBAgQIAAAQIECBAgQIAAAQIECBAgQIAAAQIECBAgQIAAAQIECBAgQIAAAQIECBAgQIAAAQIECBAgQIAAAQIECBAgQIAAAQIECBAgQIAAAQIECBAgQIAAAQIECBAgQIAAAQIECBAgQIAAAQIECBAgQIAAAQIECBAgQIAAAQIECBAgQIAAAQIECBAgQIAAAQIECBAgQIAAAQIECBAgQIAAAQIECBAgQIAAAQIECBAgQIAAAQIECBAgQIAAAQIECBAgQIAAAQIECBAgQIAAAQIECBAgQIAAAQIECBAgQIAAAQIECBAgQIAAAQIECBAgQIAAAQIECBAgQIAAAQIECBAgQIAAAQIECBAgQIAAAQIECBAgQIAAAQIECBAgQIAAAQIECBAgQIAAAQIECBAgQIAAAQIECBAgQIAAAQIECBAgQIAAAQIECBAgQIAAAQIECBAgQIAAAQIECBAgQIAAAQIECBAgQIAAAQIECBAgQIAAAQIECBAgQIAAAQIECBAgQIAAAQIECBAgQIAAAQIECBAgQIAAAQIECBAgQIAAAQIECBAgQIAAAQIECBAgQIAAAQIECBAgQIAAAQIECBAgQIAAAQIECBAgQIAAAQIECBAgQIAAAQIECBAgQIAAAQIECBAgQIAAAQIECBAgQIAAAQIE3lLg/wOOL4OzMo7OigAAAABJRU5ErkJggg==;" parent="1" vertex="1">
          <mxGeometry x="-284.75" y="310" width="89.5" height="89.5" as="geometry" />
        </mxCell>
        <mxCell id="LDEMuyIFx6sQ8Yjgb2jP-6" value="&lt;font style=&quot;font-size: 24px;&quot;&gt;empresa&lt;/font&gt;" style="text;html=1;align=center;verticalAlign=middle;resizable=0;points=[];autosize=1;strokeColor=none;fillColor=none;" parent="1" vertex="1">
          <mxGeometry x="-303" y="390" width="120" height="40" as="geometry" />
        </mxCell>
        <mxCell id="LDEMuyIFx6sQ8Yjgb2jP-23" style="edgeStyle=none;rounded=0;orthogonalLoop=1;jettySize=auto;html=1;exitX=1;exitY=0.5;exitDx=0;exitDy=0;entryX=0;entryY=1;entryDx=0;entryDy=0;" parent="1" source="LDEMuyIFx6sQ8Yjgb2jP-7" target="LDEMuyIFx6sQ8Yjgb2jP-18" edge="1">
          <mxGeometry relative="1" as="geometry" />
        </mxCell>
        <mxCell id="LDEMuyIFx6sQ8Yjgb2jP-7" value="" style="shape=image;verticalLabelPosition=bottom;labelBackgroundColor=default;verticalAlign=top;aspect=fixed;imageAspect=0;image=data:image/png,iVBORw0KGgoAAAANSUhEUgAAAgAAAAIACAYAAAD0eNT6AAAAAXNSR0IArs4c6QAAIABJREFUeAHt3W2ObUeRNtD802YuGHqmGIMN9FzaoJ6DYSBgfhq9r7LlI0tXSjrvjsjMyFOrpFbJu/Mjcj2xz65bH4fWfBAgQIAAAQIECBAgQIAAAQIECBAgQIAAAQIECBAgQIAAAQIECBAgQIAAAQIECBAgQIAAAQIECBAgQIAAAQIECBAgQIAAAQIECBAgQIAAAQIECBAgQIAAAQIECBAgQIAAAQIECBAgQIAAAQIECBAgQIAAAQIECBAgQIAAAQIECBAgQIAAAQIECBAgQIAAAQIECBAgQIAAAQIECBAgQIAAAQIECBAgQIAAAQIECBAgQIAAAQIECBAgQIAAAQIECBAgQIAAAQIECBAgQIAAAQIECBAgQIAAAQIECBAgQIAAAQIECBAgQIAAAQIECBAgQIAAAQIECBAgQIAAAQIECBAgQIAAAQIECBAgQIAAAQIECBAgQIAAAQIECBAgQIAAAQIECBAgQIAAAQIECBAgQIAAAQIECBAgQIAAAQIECBAgQIAAAQIECBAgQIAAAQIECBAgQIAAAQIECBAgQIAAAQIECBAgQIAAAQIECBAgQIAAAQIECBAgQIAAAQIECBAgQIAAAQIECBAgQIAAAQIECBAgQIAAAQIECBAgQIAAAQIECBAgQIAAAQIECBAgQIAAAQIECBAgQIAAAQIECBAgQIAAAQIECBAgQIAAAQIECBAgQIAAAQIECBAgQIAAAQIECBAgQIAAAQIECBAgQIAAAQIECBAgQIAAAQIECBAgQIAAAQIECBAgQIAAAQIECBAgQIAAAQIECBAgQIAAAQIECBAgQIAAAQIECBAgQIAAAQIECBAgQIAAAQIECBAgQIAAAQIECBAgQIAAAQIECBAgQIAAAQIECBAgQIAAAQIECBAgQIAAAQIECBAgQIAAAQIECBAgQIAAAQIECBAgQIAAAQIECBAgQIAAAQIECBAgQIAAAQIECBAgQIAAAQIECBAgQIAAAQIECBAgQIAAAQIECBAgQIAAAQIECBAgQIAAAQIECBAgQIAAAQIECBAgQIAAAQIECBAgQIAAAQIECBAgQIAAAQIECBAgQIAAAQIECBAgQIAAAQIECBAgQIAAAQIECBAgQIAAAQIECBAgQIAAAQIECBAgQIAAAQIECBAgQIAAAQIECBAgQIAAAQIECBAgQIAAAQIECBAgQIAAAQIECBAgQIAAAQIECBAgQIAAAQIECBAgQIAAAQIECBAgQIAAAQIECBAgQIAAAQIECBAgQIAAAQIECBAgQIAAAQIECBAgQIAAAQIECBAgQIAAAQIECBAgQIAAAQIECBAgQIAAAQIECBD4GAK/aq193Vr7a2vtn621/+f/GOgBPaAHPmQP9GdAfxb0Z0J/Nvh4U4EvWmt/aK39y43+IW90X+j5YlcP6IF/1wM/tta+ba31Z4WPNxLogf7Zg9+DXw/oAT2gB/6PHvjOFwFv9PT/6V/+/+4rP/8//zLQA3pAD+iBVw98816PwI97mv5znf6tnVewPrPQA3pAD+iBf9cD/Znx5cd9bL7PyX/n4e+LHz2gB/SAHvjMHvjqfR6DH/ckf/vM0P/dV4X+f/7VoAf0gB74GD3w/cd9bL7PyX/wBYCv/PWAHtADeuAze+Af7/MY/Lgn8dX6x/hqXc5y1gN6ILsHPu6T801Ont0Q1vMiowf0gB74GD3wJo/Bj3sMN+rHuFHlLGc9oAeye+DjPjnf5OTZDWE9LzJ6QA/ogY/RA2/yGPy4x3CjfowbVc5y1gN6ILsHPu6T801Ont0Q1vMiowf0gB74GD3wJo/Bj3sMN+rHuFHlLGc9oAeye+DjPjnf5OTZDWE9LzJ6QA/ogY/RA2/yGPy4x4jeqB9X7j1OLv/3yPHpKeT/VO495sn/PXJ8fAoN8JjuLSbK/y1ifHwI+T+me4uJ8n+LGJ8fQgM8t3uHmfJ/hxSfn0H+z+3eYab83yHFwBk0QADvDabK/w1CDBxB/gG8N5gq/zcIMXIEDRDRu3+u/O/PMHIC+Uf07p8r//szDJ1AA4T4rp8s/+sjDB1A/iG+6yfL//oIYwfQADG/22fL//YEY/XLP+Z3+2z5355gsH4NEAS8fLr8Lw8wWL78g4CXT5f/5QFGy9cAUcG758v/7vyi1cs/Knj3fPnfnV+4eg0QJrx6AflfHV+4ePmHCa9eQP5XxxcvXgPEDW9eQf43pxevXf5xw5tXkP/N6SXUrgESEC9eQv4Xh5dQuvwTEC9eQv4Xh5dRugbIULx3Dfnfm11G5fLPULx3Dfnfm11K5RoghfHaReR/bXQphcs/hfHaReR/bXQ5hWuAHMdbV5H/rcnl1C3/HMdbV5H/rckl1a0BkiAvXUb+lwaXVLb8kyAvXUb+lwaXVbYGyJK8cx3535lbVtXyz5K8cx3535lbWtUaII3yyoXkf2VsaUXLP43yyoXkf2VseUVrgDzLG1eS/42p5dUs/zzLG1eS/42pJdasARIxL1xK/heGlliy/BMxL1xK/heGllmyBsjUvG8t+d+XWWbF8s/UvG8t+d+XWWrFGiCV87rF5H9dZKkFyz+V87rF5H9dZLkFa4Bcz9tWk/9tieXWK/9cz9tWk/9tiSXXqwGSQS9bTv6XBZZcrvyTQS9bTv6XBZZdrgbIFr1rPfnflVd2tfLPFr1rPfnflVd6tRognfSqBeV/VVzpxco/nfSqBeV/VVz5xWqAfNObVpT/TWnl1yr/fNObVpT/TWktqFUDLEC9aEn5XxTWglLlvwD1oiXlf1FYK0rVACtU71lT/vdktaJS+a9QvWdN+d+T1ZJKNcAS1msWlf81US0pVP5LWK9ZVP7XRLWmUA2wxvWWVeV/S1Jr6pT/GtdbVpX/LUktqlMDLIK9ZFn5XxLUojLlvwj2kmXlf0lQq8qMNoD5rTFgoAf0wEfsgVXPJetuEviITevMXqz1gB7QA/Ee2PSYss0qATdB/CZgyFAP6IGP2AOrnkvW3STwEZvWmb1Y6wE9oAfiPbDpMWWbVQJugvhNwJChHtADH7EHVj2XrLtJ4CM2rTN7sdYDekAPxHtg02PKNqsE3ATxm4AhQz2gBz5iD6x6Lll3k8BHbFpn9mKtB/SAHoj3wKbHlG1WCbgJ4jcBQ4Z6QA98xB5Y9Vyy7iaBj9i0zuzFWg/oAT0Q74FNjynbrBJwE8RvAoYM9YAe+Ig9sOq5ZN1NAh+xaZ3Zi7Ue0AN6IN4Dmx5Ttlkl4CaI3wQMGeoBPfARe2DVc8m6mwQ+YtM6sxdrPaAH9EC8BzY9pmyzSsBNEL8JGDLUA3rgI/bAqueSdTcJfMSmdWYv1npAD+iBeA9sekzZZpVA9CZYVZd19wjIf49z1V3kXzWZPXXJf49z2V00QNlothQm/y3MZTeRf9lothQm/y3MdTfRAHWz2VGZ/Hco191D/nWz2VGZ/HcoF95DAxQOZ0Np8t+AXHgL+RcOZ0Np8t+AXHkLDVA5nfW1yX+9ceUd5F85nfW1yX+9cekdNEDpeJYXJ//lxKU3kH/peJYXJ//lxLU30AC181ldnfxXC9deX/6181ldnfxXCxdfXwMUD2hxefJfDFx8efkXD2hxefJfDFx9eQ1QPaG19cl/rW/11eVfPaG19cl/rW/51TVA+YiWFij/pbzlF5d/+YiWFij/pbz1F9cA9TNaWaH8V+rWX1v+9TNaWaH8V+pesLYGuCCkhSXKfyHuBUvL/4KQFpYo/4W4NyytAW5IaV2N8l9ne8PK8r8hpXU1yn+d7RUra4ArYlpWpPyX0V6xsPyviGlZkfJfRnvHwhrgjpxWVSn/VbJ3rCv/O3JaVaX8V8lesq4GuCSoRWXKfxHsJcvK/5KgFpUp/0WwtyyrAW5Jak2d8l/jesuq8r8lqTV1yn+N6zWraoBrolpSqPyXsF6zqPyviWpJofJfwnrPohrgnqxWVCr/Far3rCn/e7JaUan8V6hetKYGuCisBaXKfwHqRUvK/6KwFpQq/wWoNy2pAW5KK79W+eeb3rSi/G9KK79W+eebXrWiBrgqrvRi5Z9OetWC8r8qrvRi5Z9OeteCGuCuvLKrlX+26F3ryf+uvLKrlX+26GXraYDLAksuV/7JoJctJ//LAksuV/7JoLctpwFuSyy3Xvnnet62mvxvSyy3Xvnnel63mga4LrLUguWfynndYvK/LrLUguWfynnfYhrgvswyK5Z/puZ9a8n/vswyK5Z/puaFa2mAC0NLLFn+iZgXLiX/C0NLLFn+iZg3LqUBbkwtr2b551neuJL8b0wtr2b551leuZIGuDK2tKLln0Z55ULyvzK2tKLln0Z550Ia4M7csqqWf5bknevI/87csqqWf5bkpetogEuDSypb/kmQly4j/0uDSypb/kmQty7zbg3wq9ba1621v7bW/tlai54vOr/X0GvpNfXaqn1Ez1ftPPL/vETeLf9ft9Z+11r7m/t/qhHeLf+pQxv0s8C7NMAXrbU/tNb+VeChPzL9sbX2TWut11rlY1Tr7PUq57gl/2/lv6RlftFa++MF97/8l8Rv0acCsy/0o3FP982c11/8/1z4wf+p3XeFHgKf1va5/52Z49O15P9ULv4dsuc7583sD/+/uP8fgX7u/f7p+EebmlRH4NNAP/e/K5yk/8v/c+s+Pf73FeAS3Coc48b8+3eCKnxE74MKZ/hTQh9HHT53vvwrdI4awg/O04T9Z779W+ufewOeHt9r/vI0XoLb6SPIP5ZA9D6I7R6f3X/mX/nHfiNf9388eyskCIwadPZ6QgmhJfov/MzWWm3cV6GT50yOmuRU8XwV+T+36zPlHzd4auj+j/Wu2QkCT5v3NS+hhNAS/bd9X7Xc9vn70MlzJkfNcqp4vor8n9v1mfKPGzw1dP/HetfsBIGnzfual1BCaIkfEl7EXmfZ/fkfoZPnTI6eOaeK56vI/7ldnyn/uMFTQ/d/rHfNThB42ryveQklhJboN9Grlts+/z108pzJUbOcKp6vIv/ndn2m/OMGTw3d/7HeNTtB4GnzvuYllBBawreAQ3zXPwDkL//Xa9Ftn/0IINa7ZicIRG+ahBJCS/R32Iue4dT834ROnjM5evacKp6vIv/ndn2m/OMGTw3d/7HeNTtB4GnzvuYllBBa4uY/A/tl6OQ5k185Pv2cU8XzVeT/3K7PfJr7a15s9/hs+ccMXzk+/Rzb3ezjAk+Df807foCf3l73Vc8tn/ufr1X4iHpVOEN/U5XoOXbP90ZQeZ1z4xtByT8vfysFBKIvfIGt06b2t4Ltb68bPcuu+f/dWvuPtNPHFoqeObZ7zuwb8+81V/h4l/xveivwfv/Lv0L3qyH80KxC2G+o/lV15XcF7LX1f/lXefj37N7hAdDPcVP+VV783y3//j+0c8P9L/8qTw11vM0D4BVlf3vd/g5b/TdsK/yNeK+h19J/4afCz/xfTq/P7/IFwOs8VfPvPVnhrZ9fTq/P75Z//52A3/70P8Fd6f6X/6vjfC4l8G4vAKVwLyhG/heEtLBE+S/EvWBp+V8Q0soSNcBK3fpry79+RisrlP9K3fpry79+Rksr1ABLecsvLv/yES0tUP5LecsvLv/yEa0tUAOs9a2+uvyrJ7S2Pvmv9a2+uvyrJ7S4Pg2wGLj48vIvHtDi8uS/GLj48vIvHtDq8jTAauHa68u/dj6rq5P/auHa68u/dj7Lq9MAy4lLbyD/0vEsL07+y4lLbyD/0vGsL04DrDeuvIP8K6ezvjb5rzeuvIP8K6ezoTYNsAG58BbyLxzOhtLkvwG58BbyLxzOjtI0wA7lunvIv242OyqT/w7lunvIv242WyrTAFuYy24i/7LRbClM/luYy24i/7LR7ClMA+xxrrqL/Ksms6cu+e9xrrqL/Ksms6kuDbAJuug28i8azKay5L8Juug28i8azK6yNMAu6Zr7yL9mLruqkv8u6Zr7yL9mLtuq0gDbqEtuJP+SsWwrSv7bqEtuJP+SsewrSgPss664k/wrprKvJvnvs664k/wrprKxJg2wEbvgVvIvGMrGkuS/EbvgVvIvGMrOkjTATu16e8m/XiY7K5L/Tu16e8m/XiZbK9IAW7nLbSb/cpFsLUj+W7nLbSb/cpHsLUgD7PWutpv8qyWytx757/Wutpv8qyWyuR4NsBm82HbyLxbI5nLkvxm82HbyLxbI7nI0wG7xWvvJv1Yeu6uR/27xWvvJv1Ye26vRANvJS20o/1JxbC9G/tvJS20o/1Jx7C9GA+w3r7Sj/Culsb8W+e83r7Sj/CulcaAWDXAAvdCW8i8UxoFS5H8AvdCW8i8UxolSNMAJ9Tp7yr9OFicqkf8J9Tp7yr9OFkcq0QBH2MtsKv8yURwpRP5H2MtsKv8yUZwpRAOcca+yq/yrJHGmDvmfca+yq/yrJHGoDg1wCL7ItvIvEsShMuR/CL7ItvIvEsSpMjTAKfka+8q/Rg6nqpD/Kfka+8q/Rg7HqtAAx+hLbCz/EjEcK0L+x+hLbCz/EjGcK0IDnLOvsLP8K6Rwrgb5n7OvsLP8K6RwsIZ3a4Bftda+bq39tbX2z9Za9HzR+b2GXkuvqddW7SN6vmrnkf/nJfJu+f+6tfa71trf3P9TjfBu+U8d2qCfBd6lAb5orf2htfavAg/9kemPrbVvWmu91iofo1pnr1c5xy35fyv/JS3zi9baHy+4/+W/JH6LPhWYfaEfjXu6b+a8/uL/58IP/k/tviv0EPi0ts/978wcn64l/6dy8e+QPd85b2Z/+P/F/f8I9HPv90/HP9rUpDoCnwb6uf9d4ST9X/6fW/fp8b+vAJfgVuEYN+bfvxNU4SN6H1Q4w58S+jjq8Lnz5V+hc9QQfnCeJuw/8+3fWv/cG/D0+F7zl6fxEtxOH0H+sQSi90Fs9/js/jP/yj/2G/m6/+PZWyFBYNSgs9cTSggt0X/hZ7bWauO+Cp08Z3LUJKeK56vI/7ldnyn/uMFTQ/d/rHfNThB42ryveQklhJbov+37quW2z9+HTp4zOWqWU8XzVeT/3K7PlH/c4Kmh+z/Wu2YnCDxt3te8hBJCS/yQ8CL2Osvuz/8InTxncvTMOVU8X0X+z+36TPnHDZ4auv9jvWt2gsDT5n3NSyghtES/iV613Pb576GT50yOmuVU8XwV+T+36zPlHzd4auj+j/Wu2QkCT5v3NS+hhNASvgUc4rv+ASB/+b9ei2777EcAsd41O0EgetMklBBaor/DXvQMp+b/JnTynMnRs+dU8XwV+T+36zPlHzd4auj+j/Wu2QkCT5v3NS+hhNASN/8Z2C9DJ8+Z/Mrx6eecKp6vIv/ndn3m09xf82K7x2fLP2b4yvHp59juZh8XeBr8a97xA/z09rqvem753P98rcJH1KvCGfqbqkTPsXu+N4LK65wb3whK/nn5WykgEH3hC2ydNrW/FWx/e93oWXbN/+/W2n+knT62UPTMsd1zZt+Yf6+5wse75H/TW4H3+1/+FbpfDeGHZhXCfkP1r6orvytgr63/y7/Kw79n9w4PgH6Om/Kv8uL/bvn3/6GdG+5/+Vd5aqjjbR4Aryj72+v2d9jqv2Fb4W/Eew29lv4LPxV+5v9yen1+ly8AXuepmn/vyQpv/fxyen1+t/z77wT89qf/Ce5K97/8Xx3ncymBd3sBKIV7QTHyvyCkhSXKfyHuBUvL/4KQVpaoAVbq1l9b/vUzWlmh/Ffq1l9b/vUzWlqhBljKW35x+ZePaGmB8l/KW35x+ZePaG2BGmCtb/XV5V89obX1yX+tb/XV5V89ocX1aYDFwMWXl3/xgBaXJ//FwMWXl3/xgFaXpwFWC9deX/6181ldnfxXC9deX/6181lenQZYTlx6A/mXjmd5cfJfTlx6A/mXjmd9cRpgvXHlHeRfOZ31tcl/vXHlHeRfOZ0NtWmADciFt5B/4XA2lCb/DciFt5B/4XB2lKYBdijX3UP+dbPZUZn8dyjX3UP+dbPZUpkG2MJcdhP5l41mS2Hy38JcdhP5l41mT2EaYI9z1V3kXzWZPXXJf49z1V3kXzWZTXVpgE3QRbeRf9FgNpUl/03QRbeRf9FgdpWlAXZJ19xH/jVz2VWV/HdJ19xH/jVz2VaVBthGXXIj+ZeMZVtR8t9GXXIj+ZeMZV9RGmCfdcWd5F8xlX01yX+fdcWd5F8xlY01aYCN2AW3kn/BUDaWJP+N2AW3kn/BUHaWpAF2atfbS/71MtlZkfx3atfbS/71MtlakQbYyl1uM/mXi2RrQfLfyl1uM/mXi2RvQRpgr3e13eRfLZG99ch/r3e13eRfLZHN9WiAzeDFtpN/sUA2lyP/zeDFtpN/sUB2l6MBdovX2k/+tfLYXY38d4vX2k/+tfLYXo0G2E5eakP5l4pjezHy305eakP5l4pjfzEaYL95pR3lXymN/bXIf795pR3lXymNA7VogAPohbaUf6EwDpQi/wPohbaUf6EwTpSiAU6o19lT/nWyOFGJ/E+o19lT/nWyOFKJBjjCXmZT+ZeJ4kgh8j/CXmZT+ZeJ4kwhGuCMe5Vd5V8liTN1yP+Me5Vd5V8liUN1aIBD8EW2lX+RIA6VIf9D8EW2lX+RIE6VoQFOydfYV/41cjhVhfxPydfYV/41cjhWhQY4Rl9iY/mXiOFYEfI/Rl9iY/mXiOFcERrgnH2FneVfIYVzNcj/nH2FneVfIYWDNbxbA/y6tfZ1a+2vrbV/ttai54vO7zX0WnpNvzqY82jr6PlG6566Xjn/Xlu1j3fL/z9ba79rrf2t4P0v/2rdr57wA7IK4S9aa39qrf2rwEN/9KLaa/tDa+2LKmgJVlWOclP+vdYqH6Nenb1e5Rzd9L8uuf/lX6Vr1PEWXwD0G+ovCQ+z2Re96Lg/F/oiIHqWCrfQbfn3Xq3yReC75P8/F93/8q/wqqGG/xV4hxeAP15087+8vy3Sf696nn6ucIwb8+/fCarw8TT317wKZ+j/8n/Vc8tn+VfoHDWEb5zThP3napW/7T96QfqxtfblabyEF87TR7g5/wq/EzLqz9nrp/PvP/O/9f6X/+nusf/1XwD8PuEhNvtilz3utwX6L3qm00eQfywB+Z/77oH7P9a7ZicI3P4C0H/bN3qGU/P7Xwec/oie/XT98o8lIP9zrx/u/1jvmp0gcPsLwA8XfwHwj4T8okvI/9wDQP7R7m3N/R8zvP3+j53e7PC/nk8T3vwC8PfTeAlfPJ0+gvxjCdz+AJD/x84/dnqzr/8C4OZvAX9foP9ufwDIP9ZE8j/3HSD3f6x3zU4QuP0FoL/DXvQMp+b/JiG/6BLRs0f3j86Xf0xQ/udeP9z/sd41O0Hg9heA/qc0/U/qoufYPb/X/MuE/KJLRM8d3T86/+b8/RloNP3W+p+B3nr/yz+evxWCArc/APrx+5vqRM+xe35/v/IKH9FzVzjDjfn3P1+s8PEO+d/4RlDyr9D9agg/OCsQ9rdV/e6iLwJ6rd4KNq9z5P/c8h2+ALjtraDd/8/71cxkgXd4Aegk/SHwTfFvB/ZvVfZ/+Vd5+Hc3+ccNZg17/v1ffvJPfhH7ybR/J6jyjwPkn5+7FYMCsy9eo3HB7dOn95+rfdVa679hW+FPhHoNvZb+Cz8Vfub3Kfgo19nrn653+r+r5t97Uv7ru6P/Tkh/h73+JjuV7n/5r8/eDg8EZl/oR+MebGlKIYFRrrPXCx1FKQ8EZnMejXuwpSmFBEa5zl4vdBSlPBGYDXo07sme5tQRGOU6e73OSVTyRGA259G4J3uaU0dglOvs9TonUckjgdmgR+MebWpSGYFRrrPXyxxEIY8EZnMejXu0qUllBEa5zl4vcxCFPBOYDXo07tmuZlURGOU6e73KOdTxTGA259G4Z7uaVUVglOvs9SrnUMdDgdmgR+MebmtaEYFRrrPXixxDGQ8FZnMejXu4rWlFBEa5zl4vcgxlPBWYDXo07um+5tUQGOU6e73GKVTxVGA259G4p/uaV0NglOvs9RqnUMVjgdmgR+Meb2xiCYFRrrPXSxxCEY8FZnMejXu8sYklBEa5zl4vcQhFPBeYDXo07vnOZlYQGOU6e73CGdTwXGA259G45zubWUFglOvs9QpnUENAYDbo0bjA1qYWEBjlOnu9wBGUEBCYzXk0LrC1qQUERrnOXi9wBCVEBGaDHo2L7G3ueYFRrrPXz59ABRGB2ZxH4yJ7m3teYJTr7PXzJ1BBSGA26NG40OYmHxcY5Tp7/fgBFBASmM15NC60ucnHBUa5zl4/fgAFxARmgx6Ni+1u9mmBUa6z10/Xb/+YwGzOo3Gx3c0+LTDKdfb66frtHxSYDXo0Lri96YcFRrnOXj9cvu2DArM5j8YFtzf9sMAo19nrh8u3fVRgNujRuOj+5p8VGOU6e/1s9XaPCszmPBoX3d/8swKjXGevn63e7mGB2aBH48IFWOCowCjX2etHi7d5WGA259G4cAEWOCowynX2+tHibR4XmA16NC5egRVOCoxynb1+snZ7xwVmcx6Ni1dghZMCo1xnr5+s3d4JArNBj8YllGCJgwKjXGevHyzd1gkCszmPxiWUYImDAqNcZ68fLN3WGQKzQY/GZdRgjXMCo1xnr5+r3M4ZArM5j8Zl1GCNcwKjXGevn6vczikCs0GPxqUUYZFjAqNcZ68fK9zGKQKzOY/GpRRhkWMCo1xnrx8r3MY5ArNBj8blVGGVUwKjXGevn6rbvjkCszmPxuVUYZVTAqNcZ6+fqtu+SQKzQY/GJZVhmUMCo1xnrx8q27ZJArM5j8YllWGZQwKjXGevHyrbtlkCs0GPxmXVYZ0zAqNcZ6+fqdquWQKzOY/GZdVhnTMCo1xnr5+p2q5pArNBj8alFWKhIwKjXGevHynapmkCszmPxqUVYqEjAqNcZ68fKdqmeQKzQY/G5VVipRMCo1xnr5+o2Z55ArM5j8blVWKlEwKjXGevn6jZnokCs0GPxiWWYqkDAqOTkf3rAAAOQUlEQVRcZ68fKNmWiQKzOY/GJZZiqQMCo1xnrx8o2ZaZArNBj8Zl1mKt/QKjXGev76/YjpkCszmPxmXWYq39AqNcZ6/vr9iOqQKzQY/GpRZjse0Co1xnr28v2IapArM5j8alFmOx7QKjXGevby/YhrkCs0GPxuVWY7XdAqNcZ6/vrtd+uQKzOY/G5VZjtd0Co1xnr++u137JArNBj8Yll2O5zQKjXGevby7XdskCszmPxiWXY7nNAqNcZ69vLtd22QKzQY/GZddjvb0Co1xnr++t1m7ZArM5j8Zl12O9vQKjXGev763WbukCs0GPxqUXZMGtAqNcZ69vLdZm6QKzOY/GpRdkwa0Co1xnr28t1mb5ArNBj8blV2TFnQKjXGev76zVXvkCszmPxuVXZMWdAqNcZ6/vrNVeCwRmgx6NW1BSaMlft9a+bq39tbX2z9baqO5d13sNvZZe069CJ1szOeqwpqrnq1bOv9dW7ePd8v/P1trvWmt/K3j/y79a96sn/ICsQviL1tqfWmv/KvDQH72o9tr+0Fr7ogpaglWVo9yUf6+1yseoV2evVzlHN/2vS+5/+VfpGnW8xRcA/Yb6S8LDbPZFLzruz4W+CIiepcItdFv+vVerfBH4Lvn/z0X3v/wrvGqo4X8F3uEF4I8X3fwv72+L9N+rnqefKxzjxvz7d4IqfDzN/TWvwhn6v/xf9dzyWf4VOkcN4RvnNGH/uVrlb/uPXpB+bK19eRov4YXz9BFuzr/C74SM+nP2+un8+8/8b73/5X+6e+x//RcAv094iM2+2GWP+22B/oue6fQR5B9LQP7nvnvg/o/1rtkJAre/APTf9o2e4dT8/tcBpz+iZz9dv/xjCcj/3OuH+z/Wu2YnCNz+AvDDxV8A/CMhv+gS8j/3AJB/tHtbc//HDG+//2OnNzv8r+fThDe/APz9NF7CF0+njyD/WAK3PwDk/7Hzj53e7Ou/ALj5W8DfF+i/2x8A8o81kfzPfQfI/R/rXbMTBG5/AejvsBc9w6n5v0nIL7pE9OzR/aPz5R8TlP+51w/3f6x3zU4QuP0FoP8pTf+Tuug5ds/vNf8yIb/oEtFzR/ePzr85f38GGk2/tf5noLfe//KP52+FoMDtD4B+/P6mOtFz7J7f36+8wkf03BXOcGP+/c8XK3y8Q/43vhGU/Ct0vxrCD84KhP1tVb+76IuAXqu3gs3rHPk/t3yHLwBueyto9//zfjUzWeAdXgA6SX8IfFP824H9W5X9X/5VHv7dTf5xg1nDnn//l5/8k1/EfjLt3wmq/OMA+efnbsWgwOyL12hccPv06f3nal+11vpv2Fb4E6FeQ6+l/8JPhZ/5fQo+ynX2+qfrnf7vqvn3npT/+u7ovxPS32Gvv8lOpftf/uuzt8MDgdkX+tG4B1uaUkhglOvs9UJHUcoDgdmcR+MebGlKIYFRrrPXCx1FKU8EZoMejXuypzl1BEa5zl6vcxKVPBGYzXk07sme5tQRGOU6e73OSVTySGA26NG4R5uaVEZglOvs9TIHUcgjgdmcR+MebWpSGYFRrrPXyxxEIc8EZoMejXu2q1lVBEa5zl6vcg51PBOYzXk07tmuZlURGOU6e73KOdTxUGA26NG4h9uaVkRglOvs9SLHUMZDgdmcR+MebmtaEYFRrrPXixxDGU8FZoMejXu6r3k1BEa5zl6vcQpVPBWYzXk07um+5tUQGOU6e73GKVTxWGA26NG4xxubWEJglOvs9RKHUMRjgdmcR+Meb2xiCYFRrrPXSxxCEc8FZoMejXu+s5kVBEa5zl6vcAY1PBeYzXk07vnOZlYQGOU6e73CGdQQEJgNejQusLWpBQRGuc5eL3AEJQQEZnMejQtsbWoBgVGus9cLHEEJEYHZoEfjInube15glOvs9fMnUEFEYDbn0bjI3uaeFxjlOnv9/AlUEBKYDXo0LrS5yccFRrnOXj9+AAWEBGZzHo0LbW7ycYFRrrPXjx9AATGB2aBH42K7m31aYJTr7PXT9ds/JjCb82hcbHezTwuMcp29frp++wcFZoMejQtub/phgVGus9cPl2/7oMBszqNxwe1NPywwynX2+uHybR8VmA16NC66v/lnBUa5zl4/W73dowKzOY/GRfc3/6zAKNfZ62ert3tYYDbo0bhwARY4KjDKdfb60eJtHhaYzXk0LlyABY4KjHKdvX60eJvHBWaDHo2LV2CFkwKjXGevn6zd3nGB2ZxH4+IVWOGkwCjX2esna7d3gsBs0KNxCSVY4qDAKNfZ6wdLt3WCwGzOo3EJJVjioMAo19nrB0u3dYbAbNCjcRk1WOOcwCjX2evnKrdzhsBszqNxGTVY45zAKNfZ6+cqt3OKwGzQo3EpRVjkmMAo19nrxwq3cYrAbM6jcSlFWOSYwCjX2evHCrdxjsBs0KNxOVVY5ZTAKNfZ66fqtm+OwGzOo3E5VVjllMAo19nrp+q2b5LAbNCjcUllWOaQwCjX2euHyrZtksBszqNxSWVY5pDAKNfZ64fKtm2WwGzQo3FZdVjnjMAo19nrZ6q2a5bAbM6jcVl1WOeMwCjX2etnqrZrmsBs0KNxaYVY6IjAKNfZ60eKtmmawGzOo3FphVjoiMAo19nrR4q2aZ7AbNCjcXmVWOmEwCjX2esnarZnnsBszqNxeZVY6YTAKNfZ6ydqtmeiwGzQo3GJpVjqgMAo19nrB0q2ZaLAbM6jcYmlWOqAwCjX2esHSrZlpsBs0KNxmbVYa7/AKNfZ6/srtmOmwGzOo3GZtVhrv8Ao19nr+yu2Y6rAbNCjcanFWGy7wCjX2evbC7ZhqsBszqNxqcVYbLvAKNfZ69sLtmGuwGzQo3G51Vhtt8Ao19nru+u1X67AbM6jcbnVWG23wCjX2eu767VfssBs0KNxyeVYbrPAKNfZ65vLtV2ywGzOo3HJ5Vhus8Ao19nrm8u1XbbAbNCjcdn1WG+vwCjX2et7q7VbtsBszqNx2fVYb6/AKNfZ63urtVu6wGzQo3HpBVlwq8Ao19nrW4u1WbrAbM6jcekFWXCrwCjX2etbi7VZvsBs0KNx+RVZcafAKNfZ6ztrtVe+wGzOo3H5FVlxp8Ao19nrO2u11wKB2aCNa40BAz2gB/TAzz2w4JFkyZ0CmvnnZmbBQg/oAT0w3wM7n1X2WiCg2eebnRUrPaAH9MDPPbDgkWTJnQKa+edmZsFCD+gBPTDfAzufVfZaIKDZ55udFSs9oAf0wM89sOCRZMmdApr552ZmwUIP6AE9MN8DO59V9logoNnnm50VKz2gB/TAzz2w4JFkyZ0CmvnnZmbBQg/oAT0w3wM7n1X2WiDwQ5sP243BSg/oAT2gB3oP/H3B88iSmwX+5gsAb/CjB/SAHtADn9kD329+VtlugcDXnxm6r/599a8H9IAe0AO/WfA8suRmgV+11n70RYCv/vWAHtADemCyB/oz48vNzyrbLRL4djJ0X/X7ql8P6AE9oAd+v+hZZNkDAl+01r7zRYCv/vWAHtADeuD/6IH+rOjPDB9vJNAD/caPA9z8/8fN719//vWnBz5mD/Rv+/d/+Xv4v9GD/9Oj9J/rfNVa67/h6U8EP+aN7gVe7npAD/Qe6M+A/izozwQ/8//0aem/CRAgQIAAAQIECBAgQIAAAQIECBAgQIAAAQIECBAgQIAAAQIECBAgQIAAAQIECBAgQIAAAQIECBAgQIAAAQIECBAgQIAAAQIECBAgQIAAAQIECBAgQIAAAQIECBAgQIAAAQIECBAgQIAAAQIECBAgQIAAAQIECBAgQIAAAQIECBAgQIAAAQIECBAgQIAAAQIECBAgQIAAAQIECBAgQIAAAQIECBAgQIAAAQIECBAgQIAAAQIECBAgQIAAAQIECBAgQIAAAQIECBAgQIAAAQIECBAgQIAAAQIECBAgQIAAAQIECBAgQIAAAQIECBAgQIAAAQIECBAgQIAAAQIECBAgQIAAAQIECBAgQIAAAQIECBAgQIAAAQIECBAgQIAAAQIECBAgQIAAAQIECBAgQIAAAQIECBAgQIAAAQIECBAgQIAAAQIECBAgQIAAAQIECBAgQIAAAQIECBAgQIAAAQIECBAgQIAAAQIECBAgQIAAAQIECBAgQIAAAQIECBAgQIAAAQIECBAgQIAAAQIECBAgQIAAAQIECBAgQIAAAQIECBAgQIAAAQIECBAgQIAAAQIECBAgQIAAAQIECBAgQIAAAQIECBAgQIAAAQIECBAgQIAAAQIECBAgQIAAAQIECBAgQIAAAQIECBAgQIAAAQIECBAgQIAAAQIECBAgQIAAAQIECBAgQIAAAQIECBAgQIAAAQIECBAgQIAAAQIECBAgQIAAAQIECBAgQIAAAQIECBAgQIAAAQIECBAgQIAAAQIECBAgQIAAAQIECBAgQIAAAQIECBAgQIAAAQIECBAgQIAAAQIECBAgQIAAAQIECBAgQIAAAQIECBAgQIAAAQIECBAgQIAAAQIECBAgQIAAAQIECBAgQIAAAQIECBAgQIAAAQIECBAgQIAAAQIECBAgQIAAAQIECBAgQIAAAQIECBAgQIAAAQIECBAgQIAAAQIECBAgQIAAAQIECBAgQIAAAQIECBAgQIAAAQIECBAgQIAAAQIECBAgQIAAAQIECBAgQIAAAQIECBAgQIAAAQIECBAgQIAAAQIECBAgQIAAAQIECBAgQIAAAQIECBAgQIAAAQIECBAgQIAAAQIECBAgQIAAAQIECBAgQIAAAQIECBAgQIAAAQIECBAgQIAAAQIECBAgQIAAAQIECBAgQIAAAQIECBAgQIAAAQIECBAgQIAAAQIECBAgQIAAAQIECBAgQIAAAQIECBAgQIAAAQIE3lLg/wOOL4OzMo7OigAAAABJRU5ErkJggg==;" parent="1" vertex="1">
          <mxGeometry x="-288" y="630" width="90" height="90" as="geometry" />
        </mxCell>
        <mxCell id="LDEMuyIFx6sQ8Yjgb2jP-8" value="&lt;font style=&quot;font-size: 24px;&quot;&gt;trabajador&lt;/font&gt;" style="text;html=1;align=center;verticalAlign=middle;resizable=0;points=[];autosize=1;strokeColor=none;fillColor=none;" parent="1" vertex="1">
          <mxGeometry x="-308" y="705" width="130" height="40" as="geometry" />
        </mxCell>
        <mxCell id="LDEMuyIFx6sQ8Yjgb2jP-14" style="edgeStyle=none;rounded=0;orthogonalLoop=1;jettySize=auto;html=1;entryX=0;entryY=0.5;entryDx=0;entryDy=0;" parent="1" source="LDEMuyIFx6sQ8Yjgb2jP-9" target="LDEMuyIFx6sQ8Yjgb2jP-18" edge="1">
          <mxGeometry relative="1" as="geometry">
            <mxPoint x="-119.99999999998681" y="535.0000000000002" as="targetPoint" />
          </mxGeometry>
        </mxCell>
        <mxCell id="LDEMuyIFx6sQ8Yjgb2jP-9" value="" style="shape=image;verticalLabelPosition=bottom;labelBackgroundColor=default;verticalAlign=top;aspect=fixed;imageAspect=0;image=data:image/png,iVBORw0KGgoAAAANSUhEUgAAAgAAAAIACAYAAAD0eNT6AAAAAXNSR0IArs4c6QAAIABJREFUeAHt3W2ObUeRNtD802YuGHqmGIMN9FzaoJ6DYSBgfhq9r7LlI0tXSjrvjsjMyFOrpFbJu/Mjcj2xz65bH4fWfBAgQIAAAQIECBAgQIAAAQIECBAgQIAAAQIECBAgQIAAAQIECBAgQIAAAQIECBAgQIAAAQIECBAgQIAAAQIECBAgQIAAAQIECBAgQIAAAQIECBAgQIAAAQIECBAgQIAAAQIECBAgQIAAAQIECBAgQIAAAQIECBAgQIAAAQIECBAgQIAAAQIECBAgQIAAAQIECBAgQIAAAQIECBAgQIAAAQIECBAgQIAAAQIECBAgQIAAAQIECBAgQIAAAQIECBAgQIAAAQIECBAgQIAAAQIECBAgQIAAAQIECBAgQIAAAQIECBAgQIAAAQIECBAgQIAAAQIECBAgQIAAAQIECBAgQIAAAQIECBAgQIAAAQIECBAgQIAAAQIECBAgQIAAAQIECBAgQIAAAQIECBAgQIAAAQIECBAgQIAAAQIECBAgQIAAAQIECBAgQIAAAQIECBAgQIAAAQIECBAgQIAAAQIECBAgQIAAAQIECBAgQIAAAQIECBAgQIAAAQIECBAgQIAAAQIECBAgQIAAAQIECBAgQIAAAQIECBAgQIAAAQIECBAgQIAAAQIECBAgQIAAAQIECBAgQIAAAQIECBAgQIAAAQIECBAgQIAAAQIECBAgQIAAAQIECBAgQIAAAQIECBAgQIAAAQIECBAgQIAAAQIECBAgQIAAAQIECBAgQIAAAQIECBAgQIAAAQIECBAgQIAAAQIECBAgQIAAAQIECBAgQIAAAQIECBAgQIAAAQIECBAgQIAAAQIECBAgQIAAAQIECBAgQIAAAQIECBAgQIAAAQIECBAgQIAAAQIECBAgQIAAAQIECBAgQIAAAQIECBAgQIAAAQIECBAgQIAAAQIECBAgQIAAAQIECBAgQIAAAQIECBAgQIAAAQIECBAgQIAAAQIECBAgQIAAAQIECBAgQIAAAQIECBAgQIAAAQIECBAgQIAAAQIECBAgQIAAAQIECBAgQIAAAQIECBAgQIAAAQIECBAgQIAAAQIECBAgQIAAAQIECBAgQIAAAQIECBAgQIAAAQIECBAgQIAAAQIECBAgQIAAAQIECBAgQIAAAQIECBAgQIAAAQIECBAgQIAAAQIECBAgQIAAAQIECBAgQIAAAQIECBAgQIAAAQIECBAgQIAAAQIECBAgQIAAAQIECBAgQIAAAQIECBAgQIAAAQIECBAgQIAAAQIECBAgQIAAAQIECBAgQIAAAQIECBAgQIAAAQIECBAgQIAAAQIECBD4GAK/aq193Vr7a2vtn621/+f/GOgBPaAHPmQP9GdAfxb0Z0J/Nvh4U4EvWmt/aK39y43+IW90X+j5YlcP6IF/1wM/tta+ba31Z4WPNxLogf7Zg9+DXw/oAT2gB/6PHvjOFwFv9PT/6V/+/+4rP/8//zLQA3pAD+iBVw98816PwI97mv5znf6tnVewPrPQA3pAD+iBf9cD/Znx5cd9bL7PyX/n4e+LHz2gB/SAHvjMHvjqfR6DH/ckf/vM0P/dV4X+f/7VoAf0gB74GD3w/cd9bL7PyX/wBYCv/PWAHtADeuAze+Af7/MY/Lgn8dX6x/hqXc5y1gN6ILsHPu6T801Ont0Q1vMiowf0gB74GD3wJo/Bj3sMN+rHuFHlLGc9oAeye+DjPjnf5OTZDWE9LzJ6QA/ogY/RA2/yGPy4x3CjfowbVc5y1gN6ILsHPu6T801Ont0Q1vMiowf0gB74GD3wJo/Bj3sMN+rHuFHlLGc9oAeye+DjPjnf5OTZDWE9LzJ6QA/ogY/RA2/yGPy4x4jeqB9X7j1OLv/3yPHpKeT/VO495sn/PXJ8fAoN8JjuLSbK/y1ifHwI+T+me4uJ8n+LGJ8fQgM8t3uHmfJ/hxSfn0H+z+3eYab83yHFwBk0QADvDabK/w1CDBxB/gG8N5gq/zcIMXIEDRDRu3+u/O/PMHIC+Uf07p8r//szDJ1AA4T4rp8s/+sjDB1A/iG+6yfL//oIYwfQADG/22fL//YEY/XLP+Z3+2z5355gsH4NEAS8fLr8Lw8wWL78g4CXT5f/5QFGy9cAUcG758v/7vyi1cs/Knj3fPnfnV+4eg0QJrx6AflfHV+4ePmHCa9eQP5XxxcvXgPEDW9eQf43pxevXf5xw5tXkP/N6SXUrgESEC9eQv4Xh5dQuvwTEC9eQv4Xh5dRugbIULx3Dfnfm11G5fLPULx3Dfnfm11K5RoghfHaReR/bXQphcs/hfHaReR/bXQ5hWuAHMdbV5H/rcnl1C3/HMdbV5H/rckl1a0BkiAvXUb+lwaXVLb8kyAvXUb+lwaXVbYGyJK8cx3535lbVtXyz5K8cx3535lbWtUaII3yyoXkf2VsaUXLP43yyoXkf2VseUVrgDzLG1eS/42p5dUs/zzLG1eS/42pJdasARIxL1xK/heGlliy/BMxL1xK/heGllmyBsjUvG8t+d+XWWbF8s/UvG8t+d+XWWrFGiCV87rF5H9dZKkFyz+V87rF5H9dZLkFa4Bcz9tWk/9tieXWK/9cz9tWk/9tiSXXqwGSQS9bTv6XBZZcrvyTQS9bTv6XBZZdrgbIFr1rPfnflVd2tfLPFr1rPfnflVd6tRognfSqBeV/VVzpxco/nfSqBeV/VVz5xWqAfNObVpT/TWnl1yr/fNObVpT/TWktqFUDLEC9aEn5XxTWglLlvwD1oiXlf1FYK0rVACtU71lT/vdktaJS+a9QvWdN+d+T1ZJKNcAS1msWlf81US0pVP5LWK9ZVP7XRLWmUA2wxvWWVeV/S1Jr6pT/GtdbVpX/LUktqlMDLIK9ZFn5XxLUojLlvwj2kmXlf0lQq8qMNoD5rTFgoAf0wEfsgVXPJetuEviITevMXqz1gB7QA/Ee2PSYss0qATdB/CZgyFAP6IGP2AOrnkvW3STwEZvWmb1Y6wE9oAfiPbDpMWWbVQJugvhNwJChHtADH7EHVj2XrLtJ4CM2rTN7sdYDekAPxHtg02PKNqsE3ATxm4AhQz2gBz5iD6x6Lll3k8BHbFpn9mKtB/SAHoj3wKbHlG1WCbgJ4jcBQ4Z6QA98xB5Y9Vyy7iaBj9i0zuzFWg/oAT0Q74FNjynbrBJwE8RvAoYM9YAe+Ig9sOq5ZN1NAh+xaZ3Zi7Ue0AN6IN4Dmx5Ttlkl4CaI3wQMGeoBPfARe2DVc8m6mwQ+YtM6sxdrPaAH9EC8BzY9pmyzSsBNEL8JGDLUA3rgI/bAqueSdTcJfMSmdWYv1npAD+iBeA9sekzZZpVA9CZYVZd19wjIf49z1V3kXzWZPXXJf49z2V00QNlothQm/y3MZTeRf9lothQm/y3MdTfRAHWz2VGZ/Hco191D/nWz2VGZ/HcoF95DAxQOZ0Np8t+AXHgL+RcOZ0Np8t+AXHkLDVA5nfW1yX+9ceUd5F85nfW1yX+9cekdNEDpeJYXJ//lxKU3kH/peJYXJ//lxLU30AC181ldnfxXC9deX/6181ldnfxXCxdfXwMUD2hxefJfDFx8efkXD2hxefJfDFx9eQ1QPaG19cl/rW/11eVfPaG19cl/rW/51TVA+YiWFij/pbzlF5d/+YiWFij/pbz1F9cA9TNaWaH8V+rWX1v+9TNaWaH8V+pesLYGuCCkhSXKfyHuBUvL/4KQFpYo/4W4NyytAW5IaV2N8l9ne8PK8r8hpXU1yn+d7RUra4ArYlpWpPyX0V6xsPyviGlZkfJfRnvHwhrgjpxWVSn/VbJ3rCv/O3JaVaX8V8lesq4GuCSoRWXKfxHsJcvK/5KgFpUp/0WwtyyrAW5Jak2d8l/jesuq8r8lqTV1yn+N6zWraoBrolpSqPyXsF6zqPyviWpJofJfwnrPohrgnqxWVCr/Far3rCn/e7JaUan8V6hetKYGuCisBaXKfwHqRUvK/6KwFpQq/wWoNy2pAW5KK79W+eeb3rSi/G9KK79W+eebXrWiBrgqrvRi5Z9OetWC8r8qrvRi5Z9OeteCGuCuvLKrlX+26F3ryf+uvLKrlX+26GXraYDLAksuV/7JoJctJ//LAksuV/7JoLctpwFuSyy3Xvnnet62mvxvSyy3Xvnnel63mga4LrLUguWfynndYvK/LrLUguWfynnfYhrgvswyK5Z/puZ9a8n/vswyK5Z/puaFa2mAC0NLLFn+iZgXLiX/C0NLLFn+iZg3LqUBbkwtr2b551neuJL8b0wtr2b551leuZIGuDK2tKLln0Z55ULyvzK2tKLln0Z550Ia4M7csqqWf5bknevI/87csqqWf5bkpetogEuDSypb/kmQly4j/0uDSypb/kmQty7zbg3wq9ba1621v7bW/tlai54vOr/X0GvpNfXaqn1Ez1ftPPL/vETeLf9ft9Z+11r7m/t/qhHeLf+pQxv0s8C7NMAXrbU/tNb+VeChPzL9sbX2TWut11rlY1Tr7PUq57gl/2/lv6RlftFa++MF97/8l8Rv0acCsy/0o3FP982c11/8/1z4wf+p3XeFHgKf1va5/52Z49O15P9ULv4dsuc7583sD/+/uP8fgX7u/f7p+EebmlRH4NNAP/e/K5yk/8v/c+s+Pf73FeAS3Coc48b8+3eCKnxE74MKZ/hTQh9HHT53vvwrdI4awg/O04T9Z779W+ufewOeHt9r/vI0XoLb6SPIP5ZA9D6I7R6f3X/mX/nHfiNf9388eyskCIwadPZ6QgmhJfov/MzWWm3cV6GT50yOmuRU8XwV+T+36zPlHzd4auj+j/Wu2QkCT5v3NS+hhNAS/bd9X7Xc9vn70MlzJkfNcqp4vor8n9v1mfKPGzw1dP/HetfsBIGnzfual1BCaIkfEl7EXmfZ/fkfoZPnTI6eOaeK56vI/7ldnyn/uMFTQ/d/rHfNThB42ryveQklhJboN9Grlts+/z108pzJUbOcKp6vIv/ndn2m/OMGTw3d/7HeNTtB4GnzvuYllBBawreAQ3zXPwDkL//Xa9Ftn/0IINa7ZicIRG+ahBJCS/R32Iue4dT834ROnjM5evacKp6vIv/ndn2m/OMGTw3d/7HeNTtB4GnzvuYllBBa4uY/A/tl6OQ5k185Pv2cU8XzVeT/3K7PfJr7a15s9/hs+ccMXzk+/Rzb3ezjAk+Df807foCf3l73Vc8tn/ufr1X4iHpVOEN/U5XoOXbP90ZQeZ1z4xtByT8vfysFBKIvfIGt06b2t4Ltb68bPcuu+f/dWvuPtNPHFoqeObZ7zuwb8+81V/h4l/xveivwfv/Lv0L3qyH80KxC2G+o/lV15XcF7LX1f/lXefj37N7hAdDPcVP+VV783y3//j+0c8P9L/8qTw11vM0D4BVlf3vd/g5b/TdsK/yNeK+h19J/4afCz/xfTq/P7/IFwOs8VfPvPVnhrZ9fTq/P75Z//52A3/70P8Fd6f6X/6vjfC4l8G4vAKVwLyhG/heEtLBE+S/EvWBp+V8Q0soSNcBK3fpry79+RisrlP9K3fpry79+Rksr1ABLecsvLv/yES0tUP5LecsvLv/yEa0tUAOs9a2+uvyrJ7S2Pvmv9a2+uvyrJ7S4Pg2wGLj48vIvHtDi8uS/GLj48vIvHtDq8jTAauHa68u/dj6rq5P/auHa68u/dj7Lq9MAy4lLbyD/0vEsL07+y4lLbyD/0vGsL04DrDeuvIP8K6ezvjb5rzeuvIP8K6ezoTYNsAG58BbyLxzOhtLkvwG58BbyLxzOjtI0wA7lunvIv242OyqT/w7lunvIv242WyrTAFuYy24i/7LRbClM/luYy24i/7LR7ClMA+xxrrqL/Ksms6cu+e9xrrqL/Ksms6kuDbAJuug28i8azKay5L8Juug28i8azK6yNMAu6Zr7yL9mLruqkv8u6Zr7yL9mLtuq0gDbqEtuJP+SsWwrSv7bqEtuJP+SsewrSgPss664k/wrprKvJvnvs664k/wrprKxJg2wEbvgVvIvGMrGkuS/EbvgVvIvGMrOkjTATu16e8m/XiY7K5L/Tu16e8m/XiZbK9IAW7nLbSb/cpFsLUj+W7nLbSb/cpHsLUgD7PWutpv8qyWytx757/Wutpv8qyWyuR4NsBm82HbyLxbI5nLkvxm82HbyLxbI7nI0wG7xWvvJv1Yeu6uR/27xWvvJv1Ye26vRANvJS20o/1JxbC9G/tvJS20o/1Jx7C9GA+w3r7Sj/Culsb8W+e83r7Sj/CulcaAWDXAAvdCW8i8UxoFS5H8AvdCW8i8UxolSNMAJ9Tp7yr9OFicqkf8J9Tp7yr9OFkcq0QBH2MtsKv8yURwpRP5H2MtsKv8yUZwpRAOcca+yq/yrJHGmDvmfca+yq/yrJHGoDg1wCL7ItvIvEsShMuR/CL7ItvIvEsSpMjTAKfka+8q/Rg6nqpD/Kfka+8q/Rg7HqtAAx+hLbCz/EjEcK0L+x+hLbCz/EjGcK0IDnLOvsLP8K6Rwrgb5n7OvsLP8K6RwsIZ3a4Bftda+bq39tbX2z9Za9HzR+b2GXkuvqddW7SN6vmrnkf/nJfJu+f+6tfa71trf3P9TjfBu+U8d2qCfBd6lAb5orf2htfavAg/9kemPrbVvWmu91iofo1pnr1c5xy35fyv/JS3zi9baHy+4/+W/JH6LPhWYfaEfjXu6b+a8/uL/58IP/k/tviv0EPi0ts/978wcn64l/6dy8e+QPd85b2Z/+P/F/f8I9HPv90/HP9rUpDoCnwb6uf9d4ST9X/6fW/fp8b+vAJfgVuEYN+bfvxNU4SN6H1Q4w58S+jjq8Lnz5V+hc9QQfnCeJuw/8+3fWv/cG/D0+F7zl6fxEtxOH0H+sQSi90Fs9/js/jP/yj/2G/m6/+PZWyFBYNSgs9cTSggt0X/hZ7bWauO+Cp08Z3LUJKeK56vI/7ldnyn/uMFTQ/d/rHfNThB42ryveQklhJbov+37quW2z9+HTp4zOWqWU8XzVeT/3K7PlH/c4Kmh+z/Wu2YnCDxt3te8hBJCS/yQ8CL2Osvuz/8InTxncvTMOVU8X0X+z+36TPnHDZ4auv9jvWt2gsDT5n3NSyghtES/iV613Pb576GT50yOmuVU8XwV+T+36zPlHzd4auj+j/Wu2QkCT5v3NS+hhNASvgUc4rv+ASB/+b9ei2777EcAsd41O0EgetMklBBaor/DXvQMp+b/JnTynMnRs+dU8XwV+T+36zPlHzd4auj+j/Wu2QkCT5v3NS+hhNASN/8Z2C9DJ8+Z/Mrx6eecKp6vIv/ndn3m09xf82K7x2fLP2b4yvHp59juZh8XeBr8a97xA/z09rqvem753P98rcJH1KvCGfqbqkTPsXu+N4LK65wb3whK/nn5WykgEH3hC2ydNrW/FWx/e93oWXbN/+/W2n+knT62UPTMsd1zZt+Yf6+5wse75H/TW4H3+1/+FbpfDeGHZhXCfkP1r6orvytgr63/y7/Kw79n9w4PgH6Om/Kv8uL/bvn3/6GdG+5/+Vd5aqjjbR4Aryj72+v2d9jqv2Fb4W/Eew29lv4LPxV+5v9yen1+ly8AXuepmn/vyQpv/fxyen1+t/z77wT89qf/Ce5K97/8Xx3ncymBd3sBKIV7QTHyvyCkhSXKfyHuBUvL/4KQVpaoAVbq1l9b/vUzWlmh/Ffq1l9b/vUzWlqhBljKW35x+ZePaGmB8l/KW35x+ZePaG2BGmCtb/XV5V89obX1yX+tb/XV5V89ocX1aYDFwMWXl3/xgBaXJ//FwMWXl3/xgFaXpwFWC9deX/6181ldnfxXC9deX/6181lenQZYTlx6A/mXjmd5cfJfTlx6A/mXjmd9cRpgvXHlHeRfOZ31tcl/vXHlHeRfOZ0NtWmADciFt5B/4XA2lCb/DciFt5B/4XB2lKYBdijX3UP+dbPZUZn8dyjX3UP+dbPZUpkG2MJcdhP5l41mS2Hy38JcdhP5l41mT2EaYI9z1V3kXzWZPXXJf49z1V3kXzWZTXVpgE3QRbeRf9FgNpUl/03QRbeRf9FgdpWlAXZJ19xH/jVz2VWV/HdJ19xH/jVz2VaVBthGXXIj+ZeMZVtR8t9GXXIj+ZeMZV9RGmCfdcWd5F8xlX01yX+fdcWd5F8xlY01aYCN2AW3kn/BUDaWJP+N2AW3kn/BUHaWpAF2atfbS/71MtlZkfx3atfbS/71MtlakQbYyl1uM/mXi2RrQfLfyl1uM/mXi2RvQRpgr3e13eRfLZG99ch/r3e13eRfLZHN9WiAzeDFtpN/sUA2lyP/zeDFtpN/sUB2l6MBdovX2k/+tfLYXY38d4vX2k/+tfLYXo0G2E5eakP5l4pjezHy305eakP5l4pjfzEaYL95pR3lXymN/bXIf795pR3lXymNA7VogAPohbaUf6EwDpQi/wPohbaUf6EwTpSiAU6o19lT/nWyOFGJ/E+o19lT/nWyOFKJBjjCXmZT+ZeJ4kgh8j/CXmZT+ZeJ4kwhGuCMe5Vd5V8liTN1yP+Me5Vd5V8liUN1aIBD8EW2lX+RIA6VIf9D8EW2lX+RIE6VoQFOydfYV/41cjhVhfxPydfYV/41cjhWhQY4Rl9iY/mXiOFYEfI/Rl9iY/mXiOFcERrgnH2FneVfIYVzNcj/nH2FneVfIYWDNbxbA/y6tfZ1a+2vrbV/ttai54vO7zX0WnpNvzqY82jr6PlG6566Xjn/Xlu1j3fL/z9ba79rrf2t4P0v/2rdr57wA7IK4S9aa39qrf2rwEN/9KLaa/tDa+2LKmgJVlWOclP+vdYqH6Nenb1e5Rzd9L8uuf/lX6Vr1PEWXwD0G+ovCQ+z2Re96Lg/F/oiIHqWCrfQbfn3Xq3yReC75P8/F93/8q/wqqGG/xV4hxeAP15087+8vy3Sf696nn6ucIwb8+/fCarw8TT317wKZ+j/8n/Vc8tn+VfoHDWEb5zThP3napW/7T96QfqxtfblabyEF87TR7g5/wq/EzLqz9nrp/PvP/O/9f6X/+nusf/1XwD8PuEhNvtilz3utwX6L3qm00eQfywB+Z/77oH7P9a7ZicI3P4C0H/bN3qGU/P7Xwec/oie/XT98o8lIP9zrx/u/1jvmp0gcPsLwA8XfwHwj4T8okvI/9wDQP7R7m3N/R8zvP3+j53e7PC/nk8T3vwC8PfTeAlfPJ0+gvxjCdz+AJD/x84/dnqzr/8C4OZvAX9foP9ufwDIP9ZE8j/3HSD3f6x3zU4QuP0FoL/DXvQMp+b/JiG/6BLRs0f3j86Xf0xQ/udeP9z/sd41O0Hg9heA/qc0/U/qoufYPb/X/MuE/KJLRM8d3T86/+b8/RloNP3W+p+B3nr/yz+evxWCArc/APrx+5vqRM+xe35/v/IKH9FzVzjDjfn3P1+s8PEO+d/4RlDyr9D9agg/OCsQ9rdV/e6iLwJ6rd4KNq9z5P/c8h2+ALjtraDd/8/71cxkgXd4Aegk/SHwTfFvB/ZvVfZ/+Vd5+Hc3+ccNZg17/v1ffvJPfhH7ybR/J6jyjwPkn5+7FYMCsy9eo3HB7dOn95+rfdVa679hW+FPhHoNvZb+Cz8Vfub3Kfgo19nrn653+r+r5t97Uv7ru6P/Tkh/h73+JjuV7n/5r8/eDg8EZl/oR+MebGlKIYFRrrPXCx1FKQ8EZnMejXuwpSmFBEa5zl4vdBSlPBGYDXo07sme5tQRGOU6e73OSVTyRGA259G4J3uaU0dglOvs9TonUckjgdmgR+MebWpSGYFRrrPXyxxEIY8EZnMejXu0qUllBEa5zl4vcxCFPBOYDXo07tmuZlURGOU6e73KOdTxTGA259G4Z7uaVUVglOvs9SrnUMdDgdmgR+MebmtaEYFRrrPXixxDGQ8FZnMejXu4rWlFBEa5zl4vcgxlPBWYDXo07um+5tUQGOU6e73GKVTxVGA259G4p/uaV0NglOvs9RqnUMVjgdmgR+Meb2xiCYFRrrPXSxxCEY8FZnMejXu8sYklBEa5zl4vcQhFPBeYDXo07vnOZlYQGOU6e73CGdTwXGA259G45zubWUFglOvs9QpnUENAYDbo0bjA1qYWEBjlOnu9wBGUEBCYzXk0LrC1qQUERrnOXi9wBCVEBGaDHo2L7G3ueYFRrrPXz59ABRGB2ZxH4yJ7m3teYJTr7PXzJ1BBSGA26NG40OYmHxcY5Tp7/fgBFBASmM15NC60ucnHBUa5zl4/fgAFxARmgx6Ni+1u9mmBUa6z10/Xb/+YwGzOo3Gx3c0+LTDKdfb66frtHxSYDXo0Lri96YcFRrnOXj9cvu2DArM5j8YFtzf9sMAo19nrh8u3fVRgNujRuOj+5p8VGOU6e/1s9XaPCszmPBoX3d/8swKjXGevn63e7mGB2aBH48IFWOCowCjX2etHi7d5WGA259G4cAEWOCowynX2+tHibR4XmA16NC5egRVOCoxynb1+snZ7xwVmcx6Ni1dghZMCo1xnr5+s3d4JArNBj8YllGCJgwKjXGevHyzd1gkCszmPxiWUYImDAqNcZ68fLN3WGQKzQY/GZdRgjXMCo1xnr5+r3M4ZArM5j8Zl1GCNcwKjXGevn6vczikCs0GPxqUUYZFjAqNcZ68fK9zGKQKzOY/GpRRhkWMCo1xnrx8r3MY5ArNBj8blVGGVUwKjXGevn6rbvjkCszmPxuVUYZVTAqNcZ6+fqtu+SQKzQY/GJZVhmUMCo1xnrx8q27ZJArM5j8YllWGZQwKjXGevHyrbtlkCs0GPxmXVYZ0zAqNcZ6+fqdquWQKzOY/GZdVhnTMCo1xnr5+p2q5pArNBj8alFWKhIwKjXGevHynapmkCszmPxqUVYqEjAqNcZ68fKdqmeQKzQY/G5VVipRMCo1xnr5+o2Z55ArM5j8blVWKlEwKjXGevn6jZnokCs0GPxiWWYqkDAqOTkf3rAAAOQUlEQVRcZ68fKNmWiQKzOY/GJZZiqQMCo1xnrx8o2ZaZArNBj8Zl1mKt/QKjXGev76/YjpkCszmPxmXWYq39AqNcZ6/vr9iOqQKzQY/GpRZjse0Co1xnr28v2IapArM5j8alFmOx7QKjXGevby/YhrkCs0GPxuVWY7XdAqNcZ6/vrtd+uQKzOY/G5VZjtd0Co1xnr++u137JArNBj8Yll2O5zQKjXGevby7XdskCszmPxiWXY7nNAqNcZ69vLtd22QKzQY/GZddjvb0Co1xnr++t1m7ZArM5j8Zl12O9vQKjXGev763WbukCs0GPxqUXZMGtAqNcZ69vLdZm6QKzOY/GpRdkwa0Co1xnr28t1mb5ArNBj8blV2TFnQKjXGev76zVXvkCszmPxuVXZMWdAqNcZ6/vrNVeCwRmgx6NW1BSaMlft9a+bq39tbX2z9baqO5d13sNvZZe069CJ1szOeqwpqrnq1bOv9dW7ePd8v/P1trvWmt/K3j/y79a96sn/ICsQviL1tqfWmv/KvDQH72o9tr+0Fr7ogpaglWVo9yUf6+1yseoV2evVzlHN/2vS+5/+VfpGnW8xRcA/Yb6S8LDbPZFLzruz4W+CIiepcItdFv+vVerfBH4Lvn/z0X3v/wrvGqo4X8F3uEF4I8X3fwv72+L9N+rnqefKxzjxvz7d4IqfDzN/TWvwhn6v/xf9dzyWf4VOkcN4RvnNGH/uVrlb/uPXpB+bK19eRov4YXz9BFuzr/C74SM+nP2+un8+8/8b73/5X+6e+x//RcAv094iM2+2GWP+22B/oue6fQR5B9LQP7nvnvg/o/1rtkJAre/APTf9o2e4dT8/tcBpz+iZz9dv/xjCcj/3OuH+z/Wu2YnCNz+AvDDxV8A/CMhv+gS8j/3AJB/tHtbc//HDG+//2OnNzv8r+fThDe/APz9NF7CF0+njyD/WAK3PwDk/7Hzj53e7Ou/ALj5W8DfF+i/2x8A8o81kfzPfQfI/R/rXbMTBG5/AejvsBc9w6n5v0nIL7pE9OzR/aPz5R8TlP+51w/3f6x3zU4QuP0FoP8pTf+Tuug5ds/vNf8yIb/oEtFzR/ePzr85f38GGk2/tf5noLfe//KP52+FoMDtD4B+/P6mOtFz7J7f36+8wkf03BXOcGP+/c8XK3y8Q/43vhGU/Ct0vxrCD84KhP1tVb+76IuAXqu3gs3rHPk/t3yHLwBueyto9//zfjUzWeAdXgA6SX8IfFP824H9W5X9X/5VHv7dTf5xg1nDnn//l5/8k1/EfjLt3wmq/OMA+efnbsWgwOyL12hccPv06f3nal+11vpv2Fb4E6FeQ6+l/8JPhZ/5fQo+ynX2+qfrnf7vqvn3npT/+u7ovxPS32Gvv8lOpftf/uuzt8MDgdkX+tG4B1uaUkhglOvs9UJHUcoDgdmcR+MebGlKIYFRrrPXCx1FKU8EZoMejXuypzl1BEa5zl6vcxKVPBGYzXk07sme5tQRGOU6e73OSVTySGA26NG4R5uaVEZglOvs9TIHUcgjgdmcR+MebWpSGYFRrrPXyxxEIc8EZoMejXu2q1lVBEa5zl6vcg51PBOYzXk07tmuZlURGOU6e73KOdTxUGA26NG4h9uaVkRglOvs9SLHUMZDgdmcR+MebmtaEYFRrrPXixxDGU8FZoMejXu6r3k1BEa5zl6vcQpVPBWYzXk07um+5tUQGOU6e73GKVTxWGA26NG4xxubWEJglOvs9RKHUMRjgdmcR+Meb2xiCYFRrrPXSxxCEc8FZoMejXu+s5kVBEa5zl6vcAY1PBeYzXk07vnOZlYQGOU6e73CGdQQEJgNejQusLWpBQRGuc5eL3AEJQQEZnMejQtsbWoBgVGus9cLHEEJEYHZoEfjInube15glOvs9fMnUEFEYDbn0bjI3uaeFxjlOnv9/AlUEBKYDXo0LrS5yccFRrnOXj9+AAWEBGZzHo0LbW7ycYFRrrPXjx9AATGB2aBH42K7m31aYJTr7PXT9ds/JjCb82hcbHezTwuMcp29frp++wcFZoMejQtub/phgVGus9cPl2/7oMBszqNxwe1NPywwynX2+uHybR8VmA16NC66v/lnBUa5zl4/W73dowKzOY/GRfc3/6zAKNfZ62ert3tYYDbo0bhwARY4KjDKdfb60eJtHhaYzXk0LlyABY4KjHKdvX60eJvHBWaDHo2LV2CFkwKjXGevn6zd3nGB2ZxH4+IVWOGkwCjX2esna7d3gsBs0KNxCSVY4qDAKNfZ6wdLt3WCwGzOo3EJJVjioMAo19nrB0u3dYbAbNCjcRk1WOOcwCjX2evnKrdzhsBszqNxGTVY45zAKNfZ6+cqt3OKwGzQo3EpRVjkmMAo19nrxwq3cYrAbM6jcSlFWOSYwCjX2evHCrdxjsBs0KNxOVVY5ZTAKNfZ66fqtm+OwGzOo3E5VVjllMAo19nrp+q2b5LAbNCjcUllWOaQwCjX2euHyrZtksBszqNxSWVY5pDAKNfZ64fKtm2WwGzQo3FZdVjnjMAo19nrZ6q2a5bAbM6jcVl1WOeMwCjX2etnqrZrmsBs0KNxaYVY6IjAKNfZ60eKtmmawGzOo3FphVjoiMAo19nrR4q2aZ7AbNCjcXmVWOmEwCjX2esnarZnnsBszqNxeZVY6YTAKNfZ6ydqtmeiwGzQo3GJpVjqgMAo19nrB0q2ZaLAbM6jcYmlWOqAwCjX2esHSrZlpsBs0KNxmbVYa7/AKNfZ6/srtmOmwGzOo3GZtVhrv8Ao19nr+yu2Y6rAbNCjcanFWGy7wCjX2evbC7ZhqsBszqNxqcVYbLvAKNfZ69sLtmGuwGzQo3G51Vhtt8Ao19nru+u1X67AbM6jcbnVWG23wCjX2eu767VfssBs0KNxyeVYbrPAKNfZ65vLtV2ywGzOo3HJ5Vhus8Ao19nrm8u1XbbAbNCjcdn1WG+vwCjX2et7q7VbtsBszqNx2fVYb6/AKNfZ63urtVu6wGzQo3HpBVlwq8Ao19nrW4u1WbrAbM6jcekFWXCrwCjX2etbi7VZvsBs0KNx+RVZcafAKNfZ6ztrtVe+wGzOo3H5FVlxp8Ao19nrO2u11wKB2aCNa40BAz2gB/TAzz2w4JFkyZ0CmvnnZmbBQg/oAT0w3wM7n1X2WiCg2eebnRUrPaAH9MDPPbDgkWTJnQKa+edmZsFCD+gBPTDfAzufVfZaIKDZ55udFSs9oAf0wM89sOCRZMmdApr552ZmwUIP6AE9MN8DO59V9logoNnnm50VKz2gB/TAzz2w4JFkyZ0CmvnnZmbBQg/oAT0w3wM7n1X2WiDwQ5sP243BSg/oAT2gB3oP/H3B88iSmwX+5gsAb/CjB/SAHtADn9kD329+VtlugcDXnxm6r/599a8H9IAe0AO/WfA8suRmgV+11n70RYCv/vWAHtADemCyB/oz48vNzyrbLRL4djJ0X/X7ql8P6AE9oAd+v+hZZNkDAl+01r7zRYCv/vWAHtADeuD/6IH+rOjPDB9vJNAD/caPA9z8/8fN719//vWnBz5mD/Rv+/d/+Xv4v9GD/9Oj9J/rfNVa67/h6U8EP+aN7gVe7npAD/Qe6M+A/izozwQ/8//0aem/CRAgQIAAAQIECBAgQIAAAQIECBAgQIAAAQIECBAgQIAAAQIECBAgQIAAAQIECBAgQIAAAQIECBAgQIAAAQIECBAgQIAAAQIECBAgQIAAAQIECBAgQIAAAQIECBAgQIAAAQIECBAgQIAAAQIECBAgQIAAAQIECBAgQIAAAQIECBAgQIAAAQIECBAgQIAAAQIECBAgQIAAAQIECBAgQIAAAQIECBAgQIAAAQIECBAgQIAAAQIECBAgQIAAAQIECBAgQIAAAQIECBAgQIAAAQIECBAgQIAAAQIECBAgQIAAAQIECBAgQIAAAQIECBAgQIAAAQIECBAgQIAAAQIECBAgQIAAAQIECBAgQIAAAQIECBAgQIAAAQIECBAgQIAAAQIECBAgQIAAAQIECBAgQIAAAQIECBAgQIAAAQIECBAgQIAAAQIECBAgQIAAAQIECBAgQIAAAQIECBAgQIAAAQIECBAgQIAAAQIECBAgQIAAAQIECBAgQIAAAQIECBAgQIAAAQIECBAgQIAAAQIECBAgQIAAAQIECBAgQIAAAQIECBAgQIAAAQIECBAgQIAAAQIECBAgQIAAAQIECBAgQIAAAQIECBAgQIAAAQIECBAgQIAAAQIECBAgQIAAAQIECBAgQIAAAQIECBAgQIAAAQIECBAgQIAAAQIECBAgQIAAAQIECBAgQIAAAQIECBAgQIAAAQIECBAgQIAAAQIECBAgQIAAAQIECBAgQIAAAQIECBAgQIAAAQIECBAgQIAAAQIECBAgQIAAAQIECBAgQIAAAQIECBAgQIAAAQIECBAgQIAAAQIECBAgQIAAAQIECBAgQIAAAQIECBAgQIAAAQIECBAgQIAAAQIECBAgQIAAAQIECBAgQIAAAQIECBAgQIAAAQIECBAgQIAAAQIECBAgQIAAAQIECBAgQIAAAQIECBAgQIAAAQIECBAgQIAAAQIECBAgQIAAAQIECBAgQIAAAQIECBAgQIAAAQIECBAgQIAAAQIECBAgQIAAAQIECBAgQIAAAQIECBAgQIAAAQIECBAgQIAAAQIECBAgQIAAAQIECBAgQIAAAQIECBAgQIAAAQIECBAgQIAAAQIECBAgQIAAAQIECBAgQIAAAQIECBAgQIAAAQIECBAgQIAAAQIECBAgQIAAAQIECBAgQIAAAQIECBAgQIAAAQIECBAgQIAAAQIECBAgQIAAAQIECBAgQIAAAQIECBAgQIAAAQIE3lLg/wOOL4OzMo7OigAAAABJRU5ErkJggg==;" parent="1" vertex="1">
          <mxGeometry x="-350" y="489.5" width="90" height="90" as="geometry" />
        </mxCell>
        <mxCell id="LDEMuyIFx6sQ8Yjgb2jP-10" value="&lt;font style=&quot;font-size: 24px;&quot;&gt;declaracion&lt;/font&gt;" style="text;html=1;align=center;verticalAlign=middle;resizable=0;points=[];autosize=1;strokeColor=none;fillColor=none;" parent="1" vertex="1">
          <mxGeometry x="-380" y="564.5" width="150" height="40" as="geometry" />
        </mxCell>
        <mxCell id="LDEMuyIFx6sQ8Yjgb2jP-12" style="edgeStyle=orthogonalEdgeStyle;rounded=0;orthogonalLoop=1;jettySize=auto;html=1;entryX=0;entryY=0.5;entryDx=0;entryDy=0;" parent="1" source="LDEMuyIFx6sQ8Yjgb2jP-11" target="LDEMuyIFx6sQ8Yjgb2jP-9" edge="1">
          <mxGeometry relative="1" as="geometry" />
        </mxCell>
        <mxCell id="LDEMuyIFx6sQ8Yjgb2jP-11" value="&lt;font style=&quot;font-size: 22px;&quot;&gt;Al insertar o actualizar&amp;nbsp;&lt;/font&gt;&lt;div&gt;&lt;font style=&quot;font-size: 22px;&quot;&gt;un registro en&lt;/font&gt;&lt;/div&gt;" style="text;html=1;align=center;verticalAlign=middle;resizable=0;points=[];autosize=1;strokeColor=none;fillColor=none;" parent="1" vertex="1">
          <mxGeometry x="-650" y="500.25" width="250" height="70" as="geometry" />
        </mxCell>
        <mxCell id="LDEMuyIFx6sQ8Yjgb2jP-22" style="edgeStyle=none;rounded=0;orthogonalLoop=1;jettySize=auto;html=1;exitX=1;exitY=0.5;exitDx=0;exitDy=0;entryX=0;entryY=0.5;entryDx=0;entryDy=0;" parent="1" source="LDEMuyIFx6sQ8Yjgb2jP-18" target="LDEMuyIFx6sQ8Yjgb2jP-20" edge="1">
          <mxGeometry relative="1" as="geometry" />
        </mxCell>
        <mxCell id="LDEMuyIFx6sQ8Yjgb2jP-18" value="&lt;font style=&quot;font-size: 18px;&quot;&gt;&lt;b&gt;TRIGGER&lt;/b&gt;&lt;/font&gt;" style="ellipse;whiteSpace=wrap;html=1;" parent="1" vertex="1">
          <mxGeometry x="-153.57" y="505.25" width="150" height="60" as="geometry" />
        </mxCell>
        <mxCell id="LDEMuyIFx6sQ8Yjgb2jP-25" style="edgeStyle=none;rounded=0;orthogonalLoop=1;jettySize=auto;html=1;exitX=1;exitY=0.5;exitDx=0;exitDy=0;" parent="1" source="LDEMuyIFx6sQ8Yjgb2jP-20" target="LDEMuyIFx6sQ8Yjgb2jP-24" edge="1">
          <mxGeometry relative="1" as="geometry" />
        </mxCell>
        <mxCell id="LDEMuyIFx6sQ8Yjgb2jP-20" value="" style="shape=image;verticalLabelPosition=bottom;labelBackgroundColor=default;verticalAlign=top;aspect=fixed;imageAspect=0;image=data:image/png,iVBORw0KGgoAAAANSUhEUgAAAgAAAAIACAYAAAD0eNT6AAAAAXNSR0IArs4c6QAAIABJREFUeAHt3W2ObUeRNtD802YuGHqmGIMN9FzaoJ6DYSBgfhq9r7LlI0tXSjrvjsjMyFOrpFbJu/Mjcj2xz65bH4fWfBAgQIAAAQIECBAgQIAAAQIECBAgQIAAAQIECBAgQIAAAQIECBAgQIAAAQIECBAgQIAAAQIECBAgQIAAAQIECBAgQIAAAQIECBAgQIAAAQIECBAgQIAAAQIECBAgQIAAAQIECBAgQIAAAQIECBAgQIAAAQIECBAgQIAAAQIECBAgQIAAAQIECBAgQIAAAQIECBAgQIAAAQIECBAgQIAAAQIECBAgQIAAAQIECBAgQIAAAQIECBAgQIAAAQIECBAgQIAAAQIECBAgQIAAAQIECBAgQIAAAQIECBAgQIAAAQIECBAgQIAAAQIECBAgQIAAAQIECBAgQIAAAQIECBAgQIAAAQIECBAgQIAAAQIECBAgQIAAAQIECBAgQIAAAQIECBAgQIAAAQIECBAgQIAAAQIECBAgQIAAAQIECBAgQIAAAQIECBAgQIAAAQIECBAgQIAAAQIECBAgQIAAAQIECBAgQIAAAQIECBAgQIAAAQIECBAgQIAAAQIECBAgQIAAAQIECBAgQIAAAQIECBAgQIAAAQIECBAgQIAAAQIECBAgQIAAAQIECBAgQIAAAQIECBAgQIAAAQIECBAgQIAAAQIECBAgQIAAAQIECBAgQIAAAQIECBAgQIAAAQIECBAgQIAAAQIECBAgQIAAAQIECBAgQIAAAQIECBAgQIAAAQIECBAgQIAAAQIECBAgQIAAAQIECBAgQIAAAQIECBAgQIAAAQIECBAgQIAAAQIECBAgQIAAAQIECBAgQIAAAQIECBAgQIAAAQIECBAgQIAAAQIECBAgQIAAAQIECBAgQIAAAQIECBAgQIAAAQIECBAgQIAAAQIECBAgQIAAAQIECBAgQIAAAQIECBAgQIAAAQIECBAgQIAAAQIECBAgQIAAAQIECBAgQIAAAQIECBAgQIAAAQIECBAgQIAAAQIECBAgQIAAAQIECBAgQIAAAQIECBAgQIAAAQIECBAgQIAAAQIECBAgQIAAAQIECBAgQIAAAQIECBAgQIAAAQIECBAgQIAAAQIECBAgQIAAAQIECBAgQIAAAQIECBAgQIAAAQIECBAgQIAAAQIECBAgQIAAAQIECBAgQIAAAQIECBAgQIAAAQIECBAgQIAAAQIECBAgQIAAAQIECBAgQIAAAQIECBAgQIAAAQIECBAgQIAAAQIECBAgQIAAAQIECBAgQIAAAQIECBAgQIAAAQIECBAgQIAAAQIECBAgQIAAAQIECBD4GAK/aq193Vr7a2vtn621/+f/GOgBPaAHPmQP9GdAfxb0Z0J/Nvh4U4EvWmt/aK39y43+IW90X+j5YlcP6IF/1wM/tta+ba31Z4WPNxLogf7Zg9+DXw/oAT2gB/6PHvjOFwFv9PT/6V/+/+4rP/8//zLQA3pAD+iBVw98816PwI97mv5znf6tnVewPrPQA3pAD+iBf9cD/Znx5cd9bL7PyX/n4e+LHz2gB/SAHvjMHvjqfR6DH/ckf/vM0P/dV4X+f/7VoAf0gB74GD3w/cd9bL7PyX/wBYCv/PWAHtADeuAze+Af7/MY/Lgn8dX6x/hqXc5y1gN6ILsHPu6T801Ont0Q1vMiowf0gB74GD3wJo/Bj3sMN+rHuFHlLGc9oAeye+DjPjnf5OTZDWE9LzJ6QA/ogY/RA2/yGPy4x3CjfowbVc5y1gN6ILsHPu6T801Ont0Q1vMiowf0gB74GD3wJo/Bj3sMN+rHuFHlLGc9oAeye+DjPjnf5OTZDWE9LzJ6QA/ogY/RA2/yGPy4x4jeqB9X7j1OLv/3yPHpKeT/VO495sn/PXJ8fAoN8JjuLSbK/y1ifHwI+T+me4uJ8n+LGJ8fQgM8t3uHmfJ/hxSfn0H+z+3eYab83yHFwBk0QADvDabK/w1CDBxB/gG8N5gq/zcIMXIEDRDRu3+u/O/PMHIC+Uf07p8r//szDJ1AA4T4rp8s/+sjDB1A/iG+6yfL//oIYwfQADG/22fL//YEY/XLP+Z3+2z5355gsH4NEAS8fLr8Lw8wWL78g4CXT5f/5QFGy9cAUcG758v/7vyi1cs/Knj3fPnfnV+4eg0QJrx6AflfHV+4ePmHCa9eQP5XxxcvXgPEDW9eQf43pxevXf5xw5tXkP/N6SXUrgESEC9eQv4Xh5dQuvwTEC9eQv4Xh5dRugbIULx3Dfnfm11G5fLPULx3Dfnfm11K5RoghfHaReR/bXQphcs/hfHaReR/bXQ5hWuAHMdbV5H/rcnl1C3/HMdbV5H/rckl1a0BkiAvXUb+lwaXVLb8kyAvXUb+lwaXVbYGyJK8cx3535lbVtXyz5K8cx3535lbWtUaII3yyoXkf2VsaUXLP43yyoXkf2VseUVrgDzLG1eS/42p5dUs/zzLG1eS/42pJdasARIxL1xK/heGlliy/BMxL1xK/heGllmyBsjUvG8t+d+XWWbF8s/UvG8t+d+XWWrFGiCV87rF5H9dZKkFyz+V87rF5H9dZLkFa4Bcz9tWk/9tieXWK/9cz9tWk/9tiSXXqwGSQS9bTv6XBZZcrvyTQS9bTv6XBZZdrgbIFr1rPfnflVd2tfLPFr1rPfnflVd6tRognfSqBeV/VVzpxco/nfSqBeV/VVz5xWqAfNObVpT/TWnl1yr/fNObVpT/TWktqFUDLEC9aEn5XxTWglLlvwD1oiXlf1FYK0rVACtU71lT/vdktaJS+a9QvWdN+d+T1ZJKNcAS1msWlf81US0pVP5LWK9ZVP7XRLWmUA2wxvWWVeV/S1Jr6pT/GtdbVpX/LUktqlMDLIK9ZFn5XxLUojLlvwj2kmXlf0lQq8qMNoD5rTFgoAf0wEfsgVXPJetuEviITevMXqz1gB7QA/Ee2PSYss0qATdB/CZgyFAP6IGP2AOrnkvW3STwEZvWmb1Y6wE9oAfiPbDpMWWbVQJugvhNwJChHtADH7EHVj2XrLtJ4CM2rTN7sdYDekAPxHtg02PKNqsE3ATxm4AhQz2gBz5iD6x6Lll3k8BHbFpn9mKtB/SAHoj3wKbHlG1WCbgJ4jcBQ4Z6QA98xB5Y9Vyy7iaBj9i0zuzFWg/oAT0Q74FNjynbrBJwE8RvAoYM9YAe+Ig9sOq5ZN1NAh+xaZ3Zi7Ue0AN6IN4Dmx5Ttlkl4CaI3wQMGeoBPfARe2DVc8m6mwQ+YtM6sxdrPaAH9EC8BzY9pmyzSsBNEL8JGDLUA3rgI/bAqueSdTcJfMSmdWYv1npAD+iBeA9sekzZZpVA9CZYVZd19wjIf49z1V3kXzWZPXXJf49z2V00QNlothQm/y3MZTeRf9lothQm/y3MdTfRAHWz2VGZ/Hco191D/nWz2VGZ/HcoF95DAxQOZ0Np8t+AXHgL+RcOZ0Np8t+AXHkLDVA5nfW1yX+9ceUd5F85nfW1yX+9cekdNEDpeJYXJ//lxKU3kH/peJYXJ//lxLU30AC181ldnfxXC9deX/6181ldnfxXCxdfXwMUD2hxefJfDFx8efkXD2hxefJfDFx9eQ1QPaG19cl/rW/11eVfPaG19cl/rW/51TVA+YiWFij/pbzlF5d/+YiWFij/pbz1F9cA9TNaWaH8V+rWX1v+9TNaWaH8V+pesLYGuCCkhSXKfyHuBUvL/4KQFpYo/4W4NyytAW5IaV2N8l9ne8PK8r8hpXU1yn+d7RUra4ArYlpWpPyX0V6xsPyviGlZkfJfRnvHwhrgjpxWVSn/VbJ3rCv/O3JaVaX8V8lesq4GuCSoRWXKfxHsJcvK/5KgFpUp/0WwtyyrAW5Jak2d8l/jesuq8r8lqTV1yn+N6zWraoBrolpSqPyXsF6zqPyviWpJofJfwnrPohrgnqxWVCr/Far3rCn/e7JaUan8V6hetKYGuCisBaXKfwHqRUvK/6KwFpQq/wWoNy2pAW5KK79W+eeb3rSi/G9KK79W+eebXrWiBrgqrvRi5Z9OetWC8r8qrvRi5Z9OeteCGuCuvLKrlX+26F3ryf+uvLKrlX+26GXraYDLAksuV/7JoJctJ//LAksuV/7JoLctpwFuSyy3Xvnnet62mvxvSyy3Xvnnel63mga4LrLUguWfynndYvK/LrLUguWfynnfYhrgvswyK5Z/puZ9a8n/vswyK5Z/puaFa2mAC0NLLFn+iZgXLiX/C0NLLFn+iZg3LqUBbkwtr2b551neuJL8b0wtr2b551leuZIGuDK2tKLln0Z55ULyvzK2tKLln0Z550Ia4M7csqqWf5bknevI/87csqqWf5bkpetogEuDSypb/kmQly4j/0uDSypb/kmQty7zbg3wq9ba1621v7bW/tlai54vOr/X0GvpNfXaqn1Ez1ftPPL/vETeLf9ft9Z+11r7m/t/qhHeLf+pQxv0s8C7NMAXrbU/tNb+VeChPzL9sbX2TWut11rlY1Tr7PUq57gl/2/lv6RlftFa++MF97/8l8Rv0acCsy/0o3FP982c11/8/1z4wf+p3XeFHgKf1va5/52Z49O15P9ULv4dsuc7583sD/+/uP8fgX7u/f7p+EebmlRH4NNAP/e/K5yk/8v/c+s+Pf73FeAS3Coc48b8+3eCKnxE74MKZ/hTQh9HHT53vvwrdI4awg/O04T9Z779W+ufewOeHt9r/vI0XoLb6SPIP5ZA9D6I7R6f3X/mX/nHfiNf9388eyskCIwadPZ6QgmhJfov/MzWWm3cV6GT50yOmuRU8XwV+T+36zPlHzd4auj+j/Wu2QkCT5v3NS+hhNAS/bd9X7Xc9vn70MlzJkfNcqp4vor8n9v1mfKPGzw1dP/HetfsBIGnzfual1BCaIkfEl7EXmfZ/fkfoZPnTI6eOaeK56vI/7ldnyn/uMFTQ/d/rHfNThB42ryveQklhJboN9Grlts+/z108pzJUbOcKp6vIv/ndn2m/OMGTw3d/7HeNTtB4GnzvuYllBBawreAQ3zXPwDkL//Xa9Ftn/0IINa7ZicIRG+ahBJCS/R32Iue4dT834ROnjM5evacKp6vIv/ndn2m/OMGTw3d/7HeNTtB4GnzvuYllBBa4uY/A/tl6OQ5k185Pv2cU8XzVeT/3K7PfJr7a15s9/hs+ccMXzk+/Rzb3ezjAk+Df807foCf3l73Vc8tn/ufr1X4iHpVOEN/U5XoOXbP90ZQeZ1z4xtByT8vfysFBKIvfIGt06b2t4Ltb68bPcuu+f/dWvuPtNPHFoqeObZ7zuwb8+81V/h4l/xveivwfv/Lv0L3qyH80KxC2G+o/lV15XcF7LX1f/lXefj37N7hAdDPcVP+VV783y3//j+0c8P9L/8qTw11vM0D4BVlf3vd/g5b/TdsK/yNeK+h19J/4afCz/xfTq/P7/IFwOs8VfPvPVnhrZ9fTq/P75Z//52A3/70P8Fd6f6X/6vjfC4l8G4vAKVwLyhG/heEtLBE+S/EvWBp+V8Q0soSNcBK3fpry79+RisrlP9K3fpry79+Rksr1ABLecsvLv/yES0tUP5LecsvLv/yEa0tUAOs9a2+uvyrJ7S2Pvmv9a2+uvyrJ7S4Pg2wGLj48vIvHtDi8uS/GLj48vIvHtDq8jTAauHa68u/dj6rq5P/auHa68u/dj7Lq9MAy4lLbyD/0vEsL07+y4lLbyD/0vGsL04DrDeuvIP8K6ezvjb5rzeuvIP8K6ezoTYNsAG58BbyLxzOhtLkvwG58BbyLxzOjtI0wA7lunvIv242OyqT/w7lunvIv242WyrTAFuYy24i/7LRbClM/luYy24i/7LR7ClMA+xxrrqL/Ksms6cu+e9xrrqL/Ksms6kuDbAJuug28i8azKay5L8Juug28i8azK6yNMAu6Zr7yL9mLruqkv8u6Zr7yL9mLtuq0gDbqEtuJP+SsWwrSv7bqEtuJP+SsewrSgPss664k/wrprKvJvnvs664k/wrprKxJg2wEbvgVvIvGMrGkuS/EbvgVvIvGMrOkjTATu16e8m/XiY7K5L/Tu16e8m/XiZbK9IAW7nLbSb/cpFsLUj+W7nLbSb/cpHsLUgD7PWutpv8qyWytx757/Wutpv8qyWyuR4NsBm82HbyLxbI5nLkvxm82HbyLxbI7nI0wG7xWvvJv1Yeu6uR/27xWvvJv1Ye26vRANvJS20o/1JxbC9G/tvJS20o/1Jx7C9GA+w3r7Sj/Culsb8W+e83r7Sj/CulcaAWDXAAvdCW8i8UxoFS5H8AvdCW8i8UxolSNMAJ9Tp7yr9OFicqkf8J9Tp7yr9OFkcq0QBH2MtsKv8yURwpRP5H2MtsKv8yUZwpRAOcca+yq/yrJHGmDvmfca+yq/yrJHGoDg1wCL7ItvIvEsShMuR/CL7ItvIvEsSpMjTAKfka+8q/Rg6nqpD/Kfka+8q/Rg7HqtAAx+hLbCz/EjEcK0L+x+hLbCz/EjGcK0IDnLOvsLP8K6Rwrgb5n7OvsLP8K6RwsIZ3a4Bftda+bq39tbX2z9Za9HzR+b2GXkuvqddW7SN6vmrnkf/nJfJu+f+6tfa71trf3P9TjfBu+U8d2qCfBd6lAb5orf2htfavAg/9kemPrbVvWmu91iofo1pnr1c5xy35fyv/JS3zi9baHy+4/+W/JH6LPhWYfaEfjXu6b+a8/uL/58IP/k/tviv0EPi0ts/978wcn64l/6dy8e+QPd85b2Z/+P/F/f8I9HPv90/HP9rUpDoCnwb6uf9d4ST9X/6fW/fp8b+vAJfgVuEYN+bfvxNU4SN6H1Q4w58S+jjq8Lnz5V+hc9QQfnCeJuw/8+3fWv/cG/D0+F7zl6fxEtxOH0H+sQSi90Fs9/js/jP/yj/2G/m6/+PZWyFBYNSgs9cTSggt0X/hZ7bWauO+Cp08Z3LUJKeK56vI/7ldnyn/uMFTQ/d/rHfNThB42ryveQklhJbov+37quW2z9+HTp4zOWqWU8XzVeT/3K7PlH/c4Kmh+z/Wu2YnCDxt3te8hBJCS/yQ8CL2Osvuz/8InTxncvTMOVU8X0X+z+36TPnHDZ4auv9jvWt2gsDT5n3NSyghtES/iV613Pb576GT50yOmuVU8XwV+T+36zPlHzd4auj+j/Wu2QkCT5v3NS+hhNASvgUc4rv+ASB/+b9ei2777EcAsd41O0EgetMklBBaor/DXvQMp+b/JnTynMnRs+dU8XwV+T+36zPlHzd4auj+j/Wu2QkCT5v3NS+hhNASN/8Z2C9DJ8+Z/Mrx6eecKp6vIv/ndn3m09xf82K7x2fLP2b4yvHp59juZh8XeBr8a97xA/z09rqvem753P98rcJH1KvCGfqbqkTPsXu+N4LK65wb3whK/nn5WykgEH3hC2ydNrW/FWx/e93oWXbN/+/W2n+knT62UPTMsd1zZt+Yf6+5wse75H/TW4H3+1/+FbpfDeGHZhXCfkP1r6orvytgr63/y7/Kw79n9w4PgH6Om/Kv8uL/bvn3/6GdG+5/+Vd5aqjjbR4Aryj72+v2d9jqv2Fb4W/Eew29lv4LPxV+5v9yen1+ly8AXuepmn/vyQpv/fxyen1+t/z77wT89qf/Ce5K97/8Xx3ncymBd3sBKIV7QTHyvyCkhSXKfyHuBUvL/4KQVpaoAVbq1l9b/vUzWlmh/Ffq1l9b/vUzWlqhBljKW35x+ZePaGmB8l/KW35x+ZePaG2BGmCtb/XV5V89obX1yX+tb/XV5V89ocX1aYDFwMWXl3/xgBaXJ//FwMWXl3/xgFaXpwFWC9deX/6181ldnfxXC9deX/6181lenQZYTlx6A/mXjmd5cfJfTlx6A/mXjmd9cRpgvXHlHeRfOZ31tcl/vXHlHeRfOZ0NtWmADciFt5B/4XA2lCb/DciFt5B/4XB2lKYBdijX3UP+dbPZUZn8dyjX3UP+dbPZUpkG2MJcdhP5l41mS2Hy38JcdhP5l41mT2EaYI9z1V3kXzWZPXXJf49z1V3kXzWZTXVpgE3QRbeRf9FgNpUl/03QRbeRf9FgdpWlAXZJ19xH/jVz2VWV/HdJ19xH/jVz2VaVBthGXXIj+ZeMZVtR8t9GXXIj+ZeMZV9RGmCfdcWd5F8xlX01yX+fdcWd5F8xlY01aYCN2AW3kn/BUDaWJP+N2AW3kn/BUHaWpAF2atfbS/71MtlZkfx3atfbS/71MtlakQbYyl1uM/mXi2RrQfLfyl1uM/mXi2RvQRpgr3e13eRfLZG99ch/r3e13eRfLZHN9WiAzeDFtpN/sUA2lyP/zeDFtpN/sUB2l6MBdovX2k/+tfLYXY38d4vX2k/+tfLYXo0G2E5eakP5l4pjezHy305eakP5l4pjfzEaYL95pR3lXymN/bXIf795pR3lXymNA7VogAPohbaUf6EwDpQi/wPohbaUf6EwTpSiAU6o19lT/nWyOFGJ/E+o19lT/nWyOFKJBjjCXmZT+ZeJ4kgh8j/CXmZT+ZeJ4kwhGuCMe5Vd5V8liTN1yP+Me5Vd5V8liUN1aIBD8EW2lX+RIA6VIf9D8EW2lX+RIE6VoQFOydfYV/41cjhVhfxPydfYV/41cjhWhQY4Rl9iY/mXiOFYEfI/Rl9iY/mXiOFcERrgnH2FneVfIYVzNcj/nH2FneVfIYWDNbxbA/y6tfZ1a+2vrbV/ttai54vO7zX0WnpNvzqY82jr6PlG6566Xjn/Xlu1j3fL/z9ba79rrf2t4P0v/2rdr57wA7IK4S9aa39qrf2rwEN/9KLaa/tDa+2LKmgJVlWOclP+vdYqH6Nenb1e5Rzd9L8uuf/lX6Vr1PEWXwD0G+ovCQ+z2Re96Lg/F/oiIHqWCrfQbfn3Xq3yReC75P8/F93/8q/wqqGG/xV4hxeAP15087+8vy3Sf696nn6ucIwb8+/fCarw8TT317wKZ+j/8n/Vc8tn+VfoHDWEb5zThP3napW/7T96QfqxtfblabyEF87TR7g5/wq/EzLqz9nrp/PvP/O/9f6X/+nusf/1XwD8PuEhNvtilz3utwX6L3qm00eQfywB+Z/77oH7P9a7ZicI3P4C0H/bN3qGU/P7Xwec/oie/XT98o8lIP9zrx/u/1jvmp0gcPsLwA8XfwHwj4T8okvI/9wDQP7R7m3N/R8zvP3+j53e7PC/nk8T3vwC8PfTeAlfPJ0+gvxjCdz+AJD/x84/dnqzr/8C4OZvAX9foP9ufwDIP9ZE8j/3HSD3f6x3zU4QuP0FoL/DXvQMp+b/JiG/6BLRs0f3j86Xf0xQ/udeP9z/sd41O0Hg9heA/qc0/U/qoufYPb/X/MuE/KJLRM8d3T86/+b8/RloNP3W+p+B3nr/yz+evxWCArc/APrx+5vqRM+xe35/v/IKH9FzVzjDjfn3P1+s8PEO+d/4RlDyr9D9agg/OCsQ9rdV/e6iLwJ6rd4KNq9z5P/c8h2+ALjtraDd/8/71cxkgXd4Aegk/SHwTfFvB/ZvVfZ/+Vd5+Hc3+ccNZg17/v1ffvJPfhH7ybR/J6jyjwPkn5+7FYMCsy9eo3HB7dOn95+rfdVa679hW+FPhHoNvZb+Cz8Vfub3Kfgo19nrn653+r+r5t97Uv7ru6P/Tkh/h73+JjuV7n/5r8/eDg8EZl/oR+MebGlKIYFRrrPXCx1FKQ8EZnMejXuwpSmFBEa5zl4vdBSlPBGYDXo07sme5tQRGOU6e73OSVTyRGA259G4J3uaU0dglOvs9TonUckjgdmgR+MebWpSGYFRrrPXyxxEIY8EZnMejXu0qUllBEa5zl4vcxCFPBOYDXo07tmuZlURGOU6e73KOdTxTGA259G4Z7uaVUVglOvs9SrnUMdDgdmgR+MebmtaEYFRrrPXixxDGQ8FZnMejXu4rWlFBEa5zl4vcgxlPBWYDXo07um+5tUQGOU6e73GKVTxVGA259G4p/uaV0NglOvs9RqnUMVjgdmgR+Meb2xiCYFRrrPXSxxCEY8FZnMejXu8sYklBEa5zl4vcQhFPBeYDXo07vnOZlYQGOU6e73CGdTwXGA259G45zubWUFglOvs9QpnUENAYDbo0bjA1qYWEBjlOnu9wBGUEBCYzXk0LrC1qQUERrnOXi9wBCVEBGaDHo2L7G3ueYFRrrPXz59ABRGB2ZxH4yJ7m3teYJTr7PXzJ1BBSGA26NG40OYmHxcY5Tp7/fgBFBASmM15NC60ucnHBUa5zl4/fgAFxARmgx6Ni+1u9mmBUa6z10/Xb/+YwGzOo3Gx3c0+LTDKdfb66frtHxSYDXo0Lri96YcFRrnOXj9cvu2DArM5j8YFtzf9sMAo19nrh8u3fVRgNujRuOj+5p8VGOU6e/1s9XaPCszmPBoX3d/8swKjXGevn63e7mGB2aBH48IFWOCowCjX2etHi7d5WGA259G4cAEWOCowynX2+tHibR4XmA16NC5egRVOCoxynb1+snZ7xwVmcx6Ni1dghZMCo1xnr5+s3d4JArNBj8YllGCJgwKjXGevHyzd1gkCszmPxiWUYImDAqNcZ68fLN3WGQKzQY/GZdRgjXMCo1xnr5+r3M4ZArM5j8Zl1GCNcwKjXGevn6vczikCs0GPxqUUYZFjAqNcZ68fK9zGKQKzOY/GpRRhkWMCo1xnrx8r3MY5ArNBj8blVGGVUwKjXGevn6rbvjkCszmPxuVUYZVTAqNcZ6+fqtu+SQKzQY/GJZVhmUMCo1xnrx8q27ZJArM5j8YllWGZQwKjXGevHyrbtlkCs0GPxmXVYZ0zAqNcZ6+fqdquWQKzOY/GZdVhnTMCo1xnr5+p2q5pArNBj8alFWKhIwKjXGevHynapmkCszmPxqUVYqEjAqNcZ68fKdqmeQKzQY/G5VVipRMCo1xnr5+o2Z55ArM5j8blVWKlEwKjXGevn6jZnokCs0GPxiWWYqkDAqOTkf3rAAAOQUlEQVRcZ68fKNmWiQKzOY/GJZZiqQMCo1xnrx8o2ZaZArNBj8Zl1mKt/QKjXGev76/YjpkCszmPxmXWYq39AqNcZ6/vr9iOqQKzQY/GpRZjse0Co1xnr28v2IapArM5j8alFmOx7QKjXGevby/YhrkCs0GPxuVWY7XdAqNcZ6/vrtd+uQKzOY/G5VZjtd0Co1xnr++u137JArNBj8Yll2O5zQKjXGevby7XdskCszmPxiWXY7nNAqNcZ69vLtd22QKzQY/GZddjvb0Co1xnr++t1m7ZArM5j8Zl12O9vQKjXGev763WbukCs0GPxqUXZMGtAqNcZ69vLdZm6QKzOY/GpRdkwa0Co1xnr28t1mb5ArNBj8blV2TFnQKjXGev76zVXvkCszmPxuVXZMWdAqNcZ6/vrNVeCwRmgx6NW1BSaMlft9a+bq39tbX2z9baqO5d13sNvZZe069CJ1szOeqwpqrnq1bOv9dW7ePd8v/P1trvWmt/K3j/y79a96sn/ICsQviL1tqfWmv/KvDQH72o9tr+0Fr7ogpaglWVo9yUf6+1yseoV2evVzlHN/2vS+5/+VfpGnW8xRcA/Yb6S8LDbPZFLzruz4W+CIiepcItdFv+vVerfBH4Lvn/z0X3v/wrvGqo4X8F3uEF4I8X3fwv72+L9N+rnqefKxzjxvz7d4IqfDzN/TWvwhn6v/xf9dzyWf4VOkcN4RvnNGH/uVrlb/uPXpB+bK19eRov4YXz9BFuzr/C74SM+nP2+un8+8/8b73/5X+6e+x//RcAv094iM2+2GWP+22B/oue6fQR5B9LQP7nvnvg/o/1rtkJAre/APTf9o2e4dT8/tcBpz+iZz9dv/xjCcj/3OuH+z/Wu2YnCNz+AvDDxV8A/CMhv+gS8j/3AJB/tHtbc//HDG+//2OnNzv8r+fThDe/APz9NF7CF0+njyD/WAK3PwDk/7Hzj53e7Ou/ALj5W8DfF+i/2x8A8o81kfzPfQfI/R/rXbMTBG5/AejvsBc9w6n5v0nIL7pE9OzR/aPz5R8TlP+51w/3f6x3zU4QuP0FoP8pTf+Tuug5ds/vNf8yIb/oEtFzR/ePzr85f38GGk2/tf5noLfe//KP52+FoMDtD4B+/P6mOtFz7J7f36+8wkf03BXOcGP+/c8XK3y8Q/43vhGU/Ct0vxrCD84KhP1tVb+76IuAXqu3gs3rHPk/t3yHLwBueyto9//zfjUzWeAdXgA6SX8IfFP824H9W5X9X/5VHv7dTf5xg1nDnn//l5/8k1/EfjLt3wmq/OMA+efnbsWgwOyL12hccPv06f3nal+11vpv2Fb4E6FeQ6+l/8JPhZ/5fQo+ynX2+qfrnf7vqvn3npT/+u7ovxPS32Gvv8lOpftf/uuzt8MDgdkX+tG4B1uaUkhglOvs9UJHUcoDgdmcR+MebGlKIYFRrrPXCx1FKU8EZoMejXuypzl1BEa5zl6vcxKVPBGYzXk07sme5tQRGOU6e73OSVTySGA26NG4R5uaVEZglOvs9TIHUcgjgdmcR+MebWpSGYFRrrPXyxxEIc8EZoMejXu2q1lVBEa5zl6vcg51PBOYzXk07tmuZlURGOU6e73KOdTxUGA26NG4h9uaVkRglOvs9SLHUMZDgdmcR+MebmtaEYFRrrPXixxDGU8FZoMejXu6r3k1BEa5zl6vcQpVPBWYzXk07um+5tUQGOU6e73GKVTxWGA26NG4xxubWEJglOvs9RKHUMRjgdmcR+Meb2xiCYFRrrPXSxxCEc8FZoMejXu+s5kVBEa5zl6vcAY1PBeYzXk07vnOZlYQGOU6e73CGdQQEJgNejQusLWpBQRGuc5eL3AEJQQEZnMejQtsbWoBgVGus9cLHEEJEYHZoEfjInube15glOvs9fMnUEFEYDbn0bjI3uaeFxjlOnv9/AlUEBKYDXo0LrS5yccFRrnOXj9+AAWEBGZzHo0LbW7ycYFRrrPXjx9AATGB2aBH42K7m31aYJTr7PXT9ds/JjCb82hcbHezTwuMcp29frp++wcFZoMejQtub/phgVGus9cPl2/7oMBszqNxwe1NPywwynX2+uHybR8VmA16NC66v/lnBUa5zl4/W73dowKzOY/GRfc3/6zAKNfZ62ert3tYYDbo0bhwARY4KjDKdfb60eJtHhaYzXk0LlyABY4KjHKdvX60eJvHBWaDHo2LV2CFkwKjXGevn6zd3nGB2ZxH4+IVWOGkwCjX2esna7d3gsBs0KNxCSVY4qDAKNfZ6wdLt3WCwGzOo3EJJVjioMAo19nrB0u3dYbAbNCjcRk1WOOcwCjX2evnKrdzhsBszqNxGTVY45zAKNfZ6+cqt3OKwGzQo3EpRVjkmMAo19nrxwq3cYrAbM6jcSlFWOSYwCjX2evHCrdxjsBs0KNxOVVY5ZTAKNfZ66fqtm+OwGzOo3E5VVjllMAo19nrp+q2b5LAbNCjcUllWOaQwCjX2euHyrZtksBszqNxSWVY5pDAKNfZ64fKtm2WwGzQo3FZdVjnjMAo19nrZ6q2a5bAbM6jcVl1WOeMwCjX2etnqrZrmsBs0KNxaYVY6IjAKNfZ60eKtmmawGzOo3FphVjoiMAo19nrR4q2aZ7AbNCjcXmVWOmEwCjX2esnarZnnsBszqNxeZVY6YTAKNfZ6ydqtmeiwGzQo3GJpVjqgMAo19nrB0q2ZaLAbM6jcYmlWOqAwCjX2esHSrZlpsBs0KNxmbVYa7/AKNfZ6/srtmOmwGzOo3GZtVhrv8Ao19nr+yu2Y6rAbNCjcanFWGy7wCjX2evbC7ZhqsBszqNxqcVYbLvAKNfZ69sLtmGuwGzQo3G51Vhtt8Ao19nru+u1X67AbM6jcbnVWG23wCjX2eu767VfssBs0KNxyeVYbrPAKNfZ65vLtV2ywGzOo3HJ5Vhus8Ao19nrm8u1XbbAbNCjcdn1WG+vwCjX2et7q7VbtsBszqNx2fVYb6/AKNfZ63urtVu6wGzQo3HpBVlwq8Ao19nrW4u1WbrAbM6jcekFWXCrwCjX2etbi7VZvsBs0KNx+RVZcafAKNfZ6ztrtVe+wGzOo3H5FVlxp8Ao19nrO2u11wKB2aCNa40BAz2gB/TAzz2w4JFkyZ0CmvnnZmbBQg/oAT0w3wM7n1X2WiCg2eebnRUrPaAH9MDPPbDgkWTJnQKa+edmZsFCD+gBPTDfAzufVfZaIKDZ55udFSs9oAf0wM89sOCRZMmdApr552ZmwUIP6AE9MN8DO59V9logoNnnm50VKz2gB/TAzz2w4JFkyZ0CmvnnZmbBQg/oAT0w3wM7n1X2WiDwQ5sP243BSg/oAT2gB3oP/H3B88iSmwX+5gsAb/CjB/SAHtADn9kD329+VtlugcDXnxm6r/599a8H9IAe0AO/WfA8suRmgV+11n70RYCv/vWAHtADemCyB/oz48vNzyrbLRL4djJ0X/X7ql8P6AE9oAd+v+hZZNkDAl+01r7zRYCv/vWAHtADeuD/6IH+rOjPDB9vJNAD/caPA9z8/8fN719//vWnBz5mD/Rv+/d/+Xv4v9GD/9Oj9J/rfNVa67/h6U8EP+aN7gVe7npAD/Qe6M+A/izozwQ/8//0aem/CRAgQIAAAQIECBAgQIAAAQIECBAgQIAAAQIECBAgQIAAAQIECBAgQIAAAQIECBAgQIAAAQIECBAgQIAAAQIECBAgQIAAAQIECBAgQIAAAQIECBAgQIAAAQIECBAgQIAAAQIECBAgQIAAAQIECBAgQIAAAQIECBAgQIAAAQIECBAgQIAAAQIECBAgQIAAAQIECBAgQIAAAQIECBAgQIAAAQIECBAgQIAAAQIECBAgQIAAAQIECBAgQIAAAQIECBAgQIAAAQIECBAgQIAAAQIECBAgQIAAAQIECBAgQIAAAQIECBAgQIAAAQIECBAgQIAAAQIECBAgQIAAAQIECBAgQIAAAQIECBAgQIAAAQIECBAgQIAAAQIECBAgQIAAAQIECBAgQIAAAQIECBAgQIAAAQIECBAgQIAAAQIECBAgQIAAAQIECBAgQIAAAQIECBAgQIAAAQIECBAgQIAAAQIECBAgQIAAAQIECBAgQIAAAQIECBAgQIAAAQIECBAgQIAAAQIECBAgQIAAAQIECBAgQIAAAQIECBAgQIAAAQIECBAgQIAAAQIECBAgQIAAAQIECBAgQIAAAQIECBAgQIAAAQIECBAgQIAAAQIECBAgQIAAAQIECBAgQIAAAQIECBAgQIAAAQIECBAgQIAAAQIECBAgQIAAAQIECBAgQIAAAQIECBAgQIAAAQIECBAgQIAAAQIECBAgQIAAAQIECBAgQIAAAQIECBAgQIAAAQIECBAgQIAAAQIECBAgQIAAAQIECBAgQIAAAQIECBAgQIAAAQIECBAgQIAAAQIECBAgQIAAAQIECBAgQIAAAQIECBAgQIAAAQIECBAgQIAAAQIECBAgQIAAAQIECBAgQIAAAQIECBAgQIAAAQIECBAgQIAAAQIECBAgQIAAAQIECBAgQIAAAQIECBAgQIAAAQIECBAgQIAAAQIECBAgQIAAAQIECBAgQIAAAQIECBAgQIAAAQIECBAgQIAAAQIECBAgQIAAAQIECBAgQIAAAQIECBAgQIAAAQIECBAgQIAAAQIECBAgQIAAAQIECBAgQIAAAQIECBAgQIAAAQIECBAgQIAAAQIECBAgQIAAAQIECBAgQIAAAQIECBAgQIAAAQIECBAgQIAAAQIECBAgQIAAAQIECBAgQIAAAQIECBAgQIAAAQIECBAgQIAAAQIECBAgQIAAAQIECBAgQIAAAQIECBAgQIAAAQIECBAgQIAAAQIE3lLg/wOOL4OzMo7OigAAAABJRU5ErkJggg==;" parent="1" vertex="1">
          <mxGeometry x="40" y="490" width="89.5" height="89.5" as="geometry" />
        </mxCell>
        <mxCell id="LDEMuyIFx6sQ8Yjgb2jP-21" value="&lt;font style=&quot;font-size: 24px;&quot;&gt;resumen&lt;/font&gt;" style="text;html=1;align=center;verticalAlign=middle;resizable=0;points=[];autosize=1;strokeColor=none;fillColor=none;" parent="1" vertex="1">
          <mxGeometry x="24.75" y="562.75" width="120" height="40" as="geometry" />
        </mxCell>
        <mxCell id="LDEMuyIFx6sQ8Yjgb2jP-30" style="edgeStyle=none;rounded=0;orthogonalLoop=1;jettySize=auto;html=1;exitX=1;exitY=0.5;exitDx=0;exitDy=0;" parent="1" source="LDEMuyIFx6sQ8Yjgb2jP-24" target="LDEMuyIFx6sQ8Yjgb2jP-29" edge="1">
          <mxGeometry relative="1" as="geometry" />
        </mxCell>
        <mxCell id="LDEMuyIFx6sQ8Yjgb2jP-24" value="&lt;font style=&quot;font-size: 18px;&quot;&gt;&lt;b&gt;STORE PROCEDURE&lt;/b&gt;&lt;/font&gt;" style="shape=step;perimeter=stepPerimeter;whiteSpace=wrap;html=1;fixedSize=1;" parent="1" vertex="1">
          <mxGeometry x="190" y="507.75" width="240" height="55" as="geometry" />
        </mxCell>
        <mxCell id="LDEMuyIFx6sQ8Yjgb2jP-27" value="&lt;div&gt;&lt;b&gt;&lt;font style=&quot;font-size: 20px;&quot;&gt;&lt;font style=&quot;&quot;&gt;ParÃ¡&lt;/font&gt;&lt;font style=&quot;&quot;&gt;metros&lt;/font&gt;&lt;/font&gt;&lt;font style=&quot;font-size: 20px;&quot;&gt;:&lt;/font&gt;&lt;/b&gt;&lt;/div&gt;&lt;font style=&quot;font-size: 20px;&quot;&gt;&amp;nbsp;- ruc&lt;/font&gt;&lt;div&gt;&lt;font style=&quot;font-size: 20px;&quot;&gt;&amp;nbsp;- fecha_declaracion&lt;/font&gt;&lt;/div&gt;" style="text;html=1;align=left;verticalAlign=middle;resizable=0;points=[];autosize=1;strokeColor=none;fillColor=none;" parent="1" vertex="1">
          <mxGeometry x="220" y="562.75" width="200" height="90" as="geometry" />
        </mxCell>
        <mxCell id="LDEMuyIFx6sQ8Yjgb2jP-29" value="" style="shape=image;verticalLabelPosition=bottom;labelBackgroundColor=default;verticalAlign=top;aspect=fixed;imageAspect=0;image=data:image/png,iVBORw0KGgoAAAANSUhEUgAAAgAAAAIACAYAAAD0eNT6AAAAAXNSR0IArs4c6QAAIABJREFUeAHtnQXcfUWd/z+ECiKgGIiKBRZirImBrdi1axd/u4tVrF1jXdeONVm7FbsDAzGxVlm7UTFQKRGQ0P/9yHP43d/9nXtivqfPe16v53Xvc2LmO++ZO/M5c2a+IxEgAAEIQAACEIAABCAAAQhAAAIQgAAEIAABCEAAAhCAAAQgAAEIQAACEIAABCAAAQhAAAIQgAAEIAABCEAAAhCAAAQgAAEIQAACEIAABCAAAQhAAAIQgAAEIAABCEAAAhCAAAQgAAEIQAACEIAABCAAAQhAAAIQgAAEIAABCEAAAhCAAAQgAAEIQAACEIAABCAAAQhAAAIQgAAEIAABCEAAAhCAAAQgAAEIQAACEIAABCAAAQhAAAIQgAAEIAABCEAAAhCAAAQgAAEIQAACEIAABCAAAQhAAAIQgAAEIAABCEAAAhCAAAQgAAEIQAACEIAABCAAAQhAAAIQgAAEIAABCEAAAhCAAAQgAAEIQAACEIAABCAAAQhAAAIQgAAEIAABCEAAAhCAAAQgAAEIQAACEIAABCAAAQhAAAIQgAAEIAABCEAAAhCAAAQgAAEIQAACEIAABCAAAQhAAAIQgAAEIAABCEAAAhCAAAQgAAEIQAACEIAABCAAAQhAAAIQgAAEIAABCEAAAhCAAAQgAAEIQAACEIAABCAAAQhAAAIQgAAEIAABCEAAAhCAAAQgAAEIQAACEIAABCAAAQhAAAIQgAAEIAABCEAAAhCAAAQgAAEIQAACEIAABCAAAQhAAAIQgAAEIAABCEAAAhCAAAQgAAEIQAACEIAABCAAAQhAAAIQgAAEIAABCEAAAhCAAAQgAAEIQAACEIAABCAAAQhAAAIQgAAEIAABCEAAAhCAAAQgAAEIQAACEIAABCAAAQhAAAJLBLaVdFlJt5d0oKTnSDpI0lslHcwfDKgD1AHqQGEdeLOkV0l6tqQDJN1a0p6StllqZ/kKgcEQcOX8V0kfXVTYP0v6O38woA5QB6gDjdaBYyS9T9IjJF1kMK0/hsySwPaSHiDpi5L+xg+90R86AgoRSR2gDhTVgTMkHSLp7pLONsseiEz3QuBckh4n6bd0+nT61AHqAHWg9zrwc0kPlnT2XnoEEp0NgdtIOpIffO8/+KInA87x5EgdmGcd+LGkm8+mNyKjnRHYdeP9Pg3LPBsWyp1ypw6Mpw54wvVOnfUOJDRpAtdfvOs/iqd+nvqpA9QB6sBo6sAvJF1z0j0TmWudwAMlnc6PfjQ/ep7SxvOURllRVm3XgZM3lmO33lGQwPQIPIWOn46fOkAdoA6Mug74Ac6rtQgQqEzgyfzoR/2jb/vJgvh5eqUOjKcOeJn2/Sq3/lw4awL3Zl0/nT8CkDpAHZhUHfBIwB1n3bOR+VIC+0o6jR/+pH74PKmN50mNsqKs2qwDJy5cMO9V2gtwwSwJ7MIafzp+xB91gDow6TrwHUnnnGUPR6YLCdjHdJvqk7jhSx2gDlAH+q8DLyvsCTg5OwL2HsUPEwbUAeoAdWD6dcD7COAjYHbdfH6Gt5P0sxYFgHew+q6kz2xsXuENLPiDAXWAOkAdyK8Dh0r6nqQTWmyXD5e0VX6XwNE5EXhoC5Xs85IeLekScwJJXiEAAQg0TOBykp4g6RsttNO3a9hWohsZAW8j6Z2kmhr2+5qkG42MAeZCAAIQGAOBm0j6doPttUUFowBjKPmWbLxbQ5XJ75SsUqlMLRUU0UIAAhCQtK2k5zfUbvvBz3u9EGZK4OMNVCSvLb3tTPmRbQhAAAJ9ENhf0qkNtN+v7cN40uyfwIUa2OjHT/536D8rWAABCEBgdgQe3IAAOF7S9rMjR4b/sUFE9N2/NwwiQAACEIBAPwRe3oAIuGU/ppNqnwTeFqw4R0japs8MkDYEIACBmRPw0/svg23582bOcJbZ/22w0qAaZ1ltyDQEIDAwAvcPtuVeDUCYEYFdgxXmWzNiRVYhAAEIDJmAR2KPCrTpf91YXTDkPGJbgwSuF6gsnjfw7w3aQlQQgAAEIBAj8Mpgm75HLHnuHhOB6JDRlceUWWyFAAQgMHEC0f1ceKU78QqynL0DA2rRS//sjIIAAQhAAALDIOBl3ZFVXfcaRjawogsCzwxUFk8eJEAAAhCAwHAIeB7A6YF23XvCEGZC4EWBivK/M2FENiEAAQiMicBvAu26R4UJMyHw34GK4m0kCRCAAAQgMCwCvwi0608eVlawpk0CCIA26RI3BCAAge4JIAC6Zz7KFBEAoyw2jIYABCCwlgACYC0aTiwTQAAs0+A7BCAAgfETQACMvww7yQECoBPMJAIBCECgMwIIgM5QjzuhMQmArST5r4+wdR+JkmYhAS93Og9/MOioDvTV9hT+CNacRACsAcPhzQkMXQBcXtIrJP1U0mmSTt347q0vL7d5Vhr972yS7ifpEEnHbcyo9X7Zn5H0EElnbzS1TZFtJ8neGT8r6ZiFq+W/SfqDpI9Lug+Ol3RtSW9YlM2vgmudI45SuDfmaGas/Lpqeza1BunfEADp7GZ151AFgD0MPr+kkbezi+e0sBXx3pK+X7KMxoLkqg3XlKtJKvvhfkfSZRtOdwzReavTN5eUyVg7Fuwen6Bw2/PsFtqepn6LZe1IUZ1jGWBTpTCCeIYoADzU9s4ajf3bGnw14L0NTqiY9kmSrtVQGd9A0ikV0z1W0l4NpTuGaDza8rmKbIoaNs6Nr6MdeplZlA7x1QACYAwt2wBsHKIAeFRCY//wBlj6KfPnNdO2x62dgmmfd2OYv05j94MWX0MEs9P47S+sWSZ1OHItoiBaB4boOhcB0HgzNM0IhyYAdpT0p4QG3+/JzxUsosckpOvG42nBdD2UmNIIeS7C1MPFJHmP8hQ+3AO3LurA0ZLOObAfIgJgYAUyVHOGJgDuGmjs/yUI+ZuJaf8kkK6HDz2hLaWh+lIg3bHc+vhENik8uSetHsJNusPAflAIgIEVyFDNGZoAiNjjjY1SgxW8Z9ynNmYXSEzYT7ipaXoiklcrTDm8J8AnlSv3pdfJubJ77sB+hAiAgRXIUM2JdLhtbAb09kCD/5YA5EsE0nWjd4XEtK8eTHe3xHTHctvng3zm2iGR725FzBsH9oNCAAysQIZqztAEwKsCDf7LApDtUCbSaO6emPalgul64uKUw0eCfCJlyr2x38Sc+L14YD9CBMDACmSo5gxNADwi0OBHZ+P+MjFtT1q0V7qU4CVuVZcdrjaokbkHKbb2cY/9PKzmm/9hMrQ68MA+fhwFaSIACuBwahOBoQmAi254/Kv7A7eXwItsylbSN6v4uun6+tcnpbbpptTXHu4cpx6umVgmKeXIPWn1f+7c7CFwaK/iEABTbxkbyt/QBICz9eqERt+vDqLBAsLOfeo0aP7xexg/Eux50BP66qT7Z0m7RhId0b0fq8mmDkeurVfv4LUlr5cO8LeEABhgoQzRpCEKAPsCsMvbqo2N3fbu3BDce9dI1/Y14YDIpj+uRrpereDlknMJF1rsj/DrGnyq1huuq/4bg1U+q+814Aisjd8xAqANqhOMc4gCwJj9NP71Co3+VxcjBhduuFz8Ps9P9kWNnp/YH91wugdWGAmwu+D9G053DNHZ9bHnPBSVCefg02Ud+MoAh/6z3zICICPBZyGBoQoAG+0JcnYL7I13Vn/Y7gw8YbCtXfm8C+G7JJ28krY74PdLulIh1fSTV5H0wRzvd3414T0PLpMe9ejvtKfHp0o6aqVMVusG/2/5e4FJc0x+vDHyN2QfHAiA0Td33WRgyAJgmcClJe0n6WYNvHNfjrfs+w4bG/7cWvrHVrRRd8Nl6WXn/UrjOotREKe7zwBdjWZ29vFp74keEbiFpDvxB4OO6sBNJO3ZR4VPSBMBkABtjreMRQDMsWzIMwQgAIEUAgiAFGozvAcBMMNCJ8sQgMCkCSAAJl28zWUOAdAcS2KCAAQgMAQCCIAhlMIIbEAAjKCQMBECEIBADQIIgBqw5nwpAmDOpU/eIQCBKRJAAEyxVFvIEwKgBahECQEIQKBHAgiAHuGPKWkEwJhKC1shAAEIlBNAAJQz4gpJCACqAQQgAIFpEUAATKs8W8sNAqA1tEQMAQhAoBcCCIBesI8vUQTA+MoMiyEAAQgUEUAAFNHh3FkEEABnoeALBCAAgUkQQABMohjbzwQCoH3GpAABCECgSwIIgC5pjzgtBMCICw/TIQABCOQQQADkQOHQlgQQAFsy4QgEIACBMRNAAIy59Dq0HQHQIWySggAEINABAQRAB5CnkAQCYAqlSB4gAAEIbCKAANjEgm8FBCIC4E+SDuYPBtQB6gB1YFB14C+S/p749+SC/oJTEyMQEQCpFYz70n+csIMddYA60GYdQABMrJMvyg4CgMakzcaEuKlf1IFx1QEEQFGPObFzCIBx/ThpTCkv6gB1oM06gACYWCdflB0EAI1Jm40JcVO/qAPjqgMIgKIec2LnEADj+nHSmFJe1AHqQJt1AAEwsU6+KDsIABqTNhsT4qZ+UQfGVQcQAEU95sTOIQDG9eOkMaW8qAPUgTbrAAJgYp18UXYQADQmbTYmxE39og6Mqw4gAIp6zImdQwCM68dJY0p5UQeoA23WAQTAxDr5ouwgAGhM2mxMiJv6RR0YVx1AABT1mBM7hwAY14+TxpTyog5QB9qsAwiAiXXyRdlBANCYtNmYEDf1izowrjqAACjqMSd2DgEwrh8njSnlRR2gDrRZBxAAE+vki7KDAKAxabMxIW7qF3VgXHUAAVDUY07sXEQAsB0w2yGzHTR1gDowvDrAdsAT66jbyk5EABzellHECwEIQAACyQR+ofRRB0YAkrGP70YEwPjKDIshAAEIFBFAABTR4dxZBBAAZ6HgCwQgAIFJEEAATKIY288EAqB9xqQAAQhAoEsCCIAuaY84LQTAiAsP0yEAAQjkEEAA5EDh0JYEEABbMuEIBCAAgTETQACMufQ6tB0B0CFskoIABCDQAQEEQAeQp5AEAmAKpUgeIAABCGwigADYxIJvBQQQAAVwOAUBCEBghAQQACMstD5MRgD0QZ00IQABCLRHAAHQHttJxYwAmFRxkhkIQAACQgBQCSoRQABUwsRFEIAABEZDAAEwmqLq11AEQL/8SR0CEIBA0wQQAE0TnWh8CICJFizZggAEZksAATDboq+XcQRAPV5cDQEIQGDoBBAAQy+hgdiHABhIQWAGBCAAgYYIIAAaAjn1aBAAUy9h8gcBCMyNAAJgbiWemF8EQCI4boMABCAwUAIIgIEWzNDMQgAMrUSwBwIQgECMAAIgxm82dyMAZlPUZBQCEJgJAQTATAo6mk0EQJQg90MAAhAYFgEEwLDKY7DWIAAGWzQYBgEIQCCJAAIgCdv8bkIAzK/MyTEEIDBtAgiAaZdvY7lDADSGkoggAAEIDIIAAmAQxTB8IxAAwy8jLIQABCBQhwACoA6tGV+LAJhx4ZN1CEBgkgQQAJMs1uYzhQBonikxQgACEOiTAAKgT/ojShsBMKLCwlQIQAACFQggACpA4hIJAUAtgAAEIDAtAgiAaZVna7lBALSGloghAAEI9EIAAdAL9vEligAYX5lhMQQgAIEiAgiAIjqcO4sAAuAsFHyBAAQgMAkCCIBJFGP7mUAAtM+YFCAAAQh0SQAB0CXtEaeFABhx4WE6BCAAgRwCCIAcKBzakgACYEsmHIEABCAwZgIIgDGXXoe2IwA6hE1SEIAABDoggADoAPIUkkAATKEUyQMEIACBTQQQAJtY8K2AAAKgAA6nIAABCIyQAAJghIXWh8kIgD6okyYEIACB9gggANpjO6mYEQCTKk4yAwEIQEAIACpBJQIIgE2Ytt30tddvQ7BjK0nbNERhCPlxVqZoxxTzFKl2Q+ERyUMT9yIAmqA4gzjmLAB2k/QMSd+VdLKkv0v6paRXS9q7o7J3R3tTSW+RdKSkMzbs+J2kD0i6m6Szd2TLhSQ9R9L3Jf1N0mmSfq4zN4y6bE0brivpzZKOWorrG5KeIGmnmnGlXr6jpIdJ+pSkYze4nirpB5JeKemqqREn3Hd9SQcv7PnDhh0nSjpc0qMl7VAjvrNJeqCkwxb3HrcRlz8/JOm2NeKJXnoZSS+QdMSiTE/ZsOPPkj6/+C0dKOn80QQq3n+OjTL+oqS/btjh3857JN28YhxTvAwBMMVSbSFPcxUAd5D0p40Gwx3/6p87v6dIcgfdVthD0qE5aa/a4g7rOm0ZsRHvnSUdX2CLG/nHVrDBT2Cv2Oj0V/OR/f9rSdeqEFfkkjtJckeQpbnu8+0LgbNLJKGSe91BvabEjh9XFCOXkvS/JXFZCOxcYlPk9PaSXrokVNdxPWGjY46kVXavRanF6jobfPydNQVWWZpjOY8AGEtJ9WznHAXALST5SbCo4cjOPb2l8rn60tNgllbRp59u7tKSLXes0KBntpWJgNdV5Oon4H9qKT8Wbh7ByGwu+7TAukgLtlg8vquiHX9cdFaXK7DBozNVG/UvSLLwaDqcW9KXK+YnY35QSyL6YhUFnu34qCSPnMwpVK0rWTktfz55TqDmnte5CQAPC1d5Msx+EB6Sd2fdZLhwTRsyWywCrt2kIZLOVzISkqWdfXpkZN3rAI+qZNdV+fy/Ft7L36emDZmdfrLermG2965pizvXdSNO764Zl0VQk2HrxajNJ2rakLH9tyYN2Yirri2PaMGGIUeJABhy6QzItrkJgMcnNGJ+n9hkqPpUmDWgy5/fa/hp5kkJPPxuPy98OyEujz40FXZdete/zKzq96c2ZchGPJ5bUjXt7Lr9cmy4Qs0RDcfl11serm8q3C8hL1mePNq2V1OGbIwcZXFX/bTob2pSa4NZaS0qBEBraKcV8dwEwOcSGjI3YOdpqNg9earO8HReA9fkq4CUTsrD1X4iXA4eQs+ztexYk+LKr2vK0is678l0dSbkLed/9ftVEm3x73E1eOJkkd3rzjUlrjwq8aNEGzLbXr+aqcD/nnyYxVvn85qBNMd2KwJgbCXWk71zEwCelV6n0ciuvVdD5fOfielndvjz4w3Z4qey5XjrfD/vig03SIzrLw11uu6kIo1elvd7ruQr9d/Ucv5YToJelZLZV+fzrTlxpRzaNzH9ZVtParCcvTJlOe6q35sq2xSGXd8T+S0wB6Dr0uoxvbkJgDrv/5cblvc3VEZls5aX01z33XMBmpjp/e+JDantWl3mdeNAXP/SAFsv6VvHq87xpkYkfphozydzWFSdWLmaT6/qaGIy4AsT87JqTxMjEp6Psxpv1f89J2MuAQEwl5IO5nNuAsBrwqs2GMvX2U+AJxBGQuSJe9kWf797xJCNez0JbzXeKv//PiftCyTG5fS8FC8anhlIfznPHpE4Z9CYKwdscWe7Gg4IxHfr1cgS/v9ZIP1ltm9KSHv1lucGbOnS78Oq3V3/jwDomvhI05ubAPDs6OVGqc736Lv3lAl36+zz+uZI8FyEdXGXHfckxrzg5XRl9+ad95rx6Az87ySmnWdP1KHOfwRsuX0O2KsF4ou+e/dSzTxGKcc8MTHqqe+nifbYEdSclgIiAHJ+SBzaksDcBMClExsQN3j25BYJXw+kvdrg2utapNOMCKF1Q/b2qrhqZ9X/I52uHeRUTafKda+NFLIkr9Soks7qNR6yXzdz386CVq+v8r87vognyYiYybPPr4pSQ+Q1T7RMU23u6z4EQF/kR5bu3ASAi6fMm1pew+VjkeFhz5KPzv5fteuWgbr2rcQOxU/r6zop+wdYtbHq/28M5CV1lvw627zKIfVJ1Uv21sVbdvwNBQyeFYj3ZgXxlp1qcmTF+Xd7kxr+qycGqfb2eR8CoE/6I0p7jgIg0mHY2U1KeGSg8VrXcdjLWkqIPDGv8wGQ2ZHaYUSeVO1Tfx2j1OPXyzJU8/NpAVvsoXJduFIg3tR6smcgzXXc7QZ6nbOjdXnPjqeOghwdEHRZ2mP7RACMrcR6sneOAuASgadxb9qTEj7bQmPqFQ2r6/Gr2BaZi1A2qcxe39Y1/mXHUzZvsVfFpkdWbGfeZLwqbFP8Kjg9bxJU9o469dWC404Z0fCmPmVllnI+ZTJeZC7Cy6sU3MSuQQBMrEDbys4cBYBZfjWxcUuZsOY183ahm9JYlt2T4hrYu/KVxZt3/pgK75Mjcyy83r1ueHhiXvLyt3zMa83rhsjEyldVSCzi6Mh+GuqGr7TE1vMK6obIKo/U0Zy6Ng7pegTAkEpjwLbMVQBEllbdqmZ53relhtQdlpdF1QmR0Y+qHXTqHIuUJ9VPt8jWw+51QsSvwg0rJBSZY+Ed/OoEbz7UxsiK66yXn9YNqf4z7PgrZZSsrn1Dux4BMLQSGag9cxUAuwcaODtmqRO8Revy02WT3/1etE6IDOvepGJCkTkWN6qYhi9rc2TFZVR3b4AjEsv5tzX81Kf6bnAadTrChybmpWrd9khR1XDFgC12GzzHgACYY6kn5HmuAsCovpjYsNSZJX4uSXYiVLVhTLnu8jXKPfXVR52JVJFRhjrva/dvmes3a3CNvPp4cY10InMs6rwuOqRltv9aI8+RVx/XqJHOlC5FAEypNFvMy5wFwKMCjdxNK5bJnQNpVBUDVX13Xzww6lF3CDlVaNR5Gv5AB2wtZqoEl0HV8lq97lpVEti4Zo9AOlWfhs8tye6mV+1s8v/P18hz6sRKOw1KXXFQw7xBXooAGGSxDM+oOQuA3SSdntjQVZm05dK2m9smG868uNzZVgl+6sq7v8qx61ZJYOmayByLKmnZXa/9MlSxPXLNo5fyVPQ1dd7DkQmdVGpav6yYln3mR5hVufcMSRcsArpxzqNbVeLLu8YbMs01IADmWvI18z1nAWBUKdsDu7Gpsr+4N2Kxd7e8xqnJY56s5TkNZSF1Vrc7jjrvj21HZI7Fi8oyIsneCJtkuC4uL98sC5cM2PLssshzzkfmWNitcFl4XyA/6zjmHb9/mSELOzwPI+/eKsc8d2CuAQEw15Kvme+5C4DIZKey5UV27FKloWriGi+HKwoRT4TPK4q44FzqHItfVXhS9Va3TXAri8MjROcryKNPRTpkr2+vGyJzLOxNryh4ZOXEjth+uMiQjXOpkx69amDOAQEw59Kvkfe5CwDvYpf6GuAlJZztga2sg8k7n9IAe9JWUfBQdl5aVY55C9aUEPF+WDR5y77t7Tmwiu3L16Rw9f2ebFgUvpZgi+P1lsGpIdX74Y9KErSny2VmVb+nsPXkWE+SXRcifhW8JHPOAQEw59Kvkfe5CwCjSt0iuMitqYfMPaGtagOaXeeZ5yn7v58q6TwF5Z76NP6TCk/j65L1O95UcfWcdZFK2i+Bq/naA+JxCfe+v8CWyMRKuw1ODZE5FkVD496yN6uLVT/9Pj91Qu2dCgBENqyqs8ywwITRnkIAjLboujUcASA9IKHRyxrHfdYU176JcT5RUuqrg3uuscXuct1IZzbX+Uzx2rZsxqGJ6XoP+nXBEzDr5MHXep6EO2u7cq5770mSdlhjzOMS4svS32tNnFUOR+ZYeFldXrArYnt7zOyr+ul5NKmvDopca6duWGVPl3MPCIC514CK+UcAnPnknLrsad37cfuSr9qALl/nDVjcEHvv9OXjVb6/a02ZR4bi914TZ9XDD0nIR5bXK+ck4pGV3yTE6QmQDrdLuNf2rNsEKnUo3p1bNKSO6njDprzgpa0Z+zqf2fwT17869/laj8jkbVcc2bDq8XmZm9kxBMDMCjw1uwiAM8l9LKHxcgNmn/F5a429BrluY7j85PL6hPv/LGm7nIpwWEJctt2bz0TD+QP7IOSNPlwnMS8eMndIXZmRt1Vv5CncIz3REBF2l8tJ/BUJbD2yZLfBDqk+L/J8aqRuWJWN9GyYNNsPBMBsi75exhEAZ/KKeJW7ygry1J3LPJs8C7dMaIzdaa/u1hd5D+93sE2EVK9yP8hJ/PkJXNwpXGwprpQVBB6RWd1R77EJtmSi0CM90RAp21XnURaxXn2R2Vf10694spD6GiDP+2PqhlUeFSFICABqQSUCCIAzMe0UcNm76nDkGQkNqRvc5U4h9TXAa1ZK/WGJttgeD8M2Ebzeu2qHsnrd6ntyT0pcvabs/y+vZCJ1pvvqhj1fSrDFtmavI1bMSvo3dY7FqptjeyMs45h33vVrObw7IR5v2LM8ihZZ5uhREQICgDpQkQACYBOoDyY0Xm4UV5dWpaxd/vomM8765mHnvEa36Jh31NvmrBgkO7Ipun7dOS9tayp4dULqHAv7vs+Cd+dbZ2/RcT+pLwe/Jklx0LS87NMTKz2yUJTuunNVvQsu27zue2SOhd0KZ8G7Sq6zd93x5eH/LJ67JsTj+JeXfaZuWJVnT2bX3D4ZAZhbiSfmFwGwCdw9EhsvN2DZZDk/xa9rMIuOu9FbDR7OL7pn3TmvQHDYNbAMr85mLRvJFX58NDEvy5PlvGxuXZ7XHV8d/s+MTHHRvOy2N3XZmzspi4emQmSOhVcwZME+CdYxXHd8efg/i8erJVJcNC+PoqXuI+HlvIQzCSAAqAmVCCAANmHaUZKXfK1r8IqOZ2u6U5eFLQ//ZxZ5dnTKsiy/J3d4cGJe1nWaG9Emfdwn0RYzt0MYh28nxOFh+rxwx4S4bEs238Ob2RTVh3XnqrgWzrO36FjqHIvsVYTF6zp7i46vDv9nNr43IT5v+OMQ8avg5byEMwkgAKgJlQggADbH9J6ExsuNpIf9HVLeC+cN/29EpxTHLF6Z4JDq4KjOTm0bSZV+ROZYeHTE74WLOqN15x6zxrLtJXnVxLr71h33GnpPvvOT/Lprio5blDUdUudYWOhddPEqw17zimzOO1c03H63hPichoVe6oZVdoR13qbBjjg+BMCIC69L0xEAm9NOXcrkBuwGiR1D3vB/ZtVtEhtTT1g7LfHebF13ZkNTn6nb93pIOKVjKBvJeEcCH4+vvFGAAAAgAElEQVRCmE9ep1h2zOVh19NNh8gcC7/KSNldsGgkw+59U0bSvH4/dcOqKvsKNM19yPEhAIZcOgOyDQGweWGkLmVy45/yHtX3eTe5dcHr1lPc16baYte9fsJtI9w9seN0R+6JlmUd7Or5dcP/Wd5SdxRMZfuJLOEWPj+SwMe8Urj6vnXD/1nWUnYUtC0u69VyrPK/tzAmbCKAANjEgm8FBBAAW8JJeTKs0kjlXVNltv2bExvFvPTKjpVtKrQlrepHUp8My2xed75stn1E7K1Ls+h42aZC1UlueWVkjkWRzXnnPPy/25YmbHYkVezlpVd2zJsK7bxZ6vyDAKAOVCKAANgSU+o68bKGKu98Fbelt+1QAFTZo31LYtWPpKwTz+NWdix7v11m2cEdsfUyyKLNmsrsLDsfmWNRxnL1/GfKjJEUmVC7ml7Z/65ThM0JIAA258F/awggALYE43XiKcPuZQ1V3vnltdhbWnLmkVT3tXnpFR3rYiKVd38rsqGpc1U9wnVlj4fE2w6pcyzqMrfvgSrBuyjWjTvl+qIdBavYOcVrEABTLNUW8oQAyIfaxbC7J7dVDSnua+s2ph+qakzgOg+7p8y+r5uXsuH/LAtdvQawg5y2QxfD7lWG/7N8enfKuuVW9/oTC3ZqzOyY4ycCYI6lnpBnBEA+tFQnPHUasGVHLPlWbDp6+w4a03XbCW+yoplvKU546nCtOvyf5SZlF7s69tgxjuc/tB3shMcdYh3b6l5bZfg/y6dfA/j9fN006lxftJ1wZsccPxEAcyz1hDwjAPKhpfrir9N4VRn+z6xLdV9b1R431H6P3EVoW8x8oWYm7tJyJ2XB01Voe45F1eH/LL+p7rWr1lsvkyVsSQABsCUTjuQQQADkQNk49LoWO4Y6w/+ZhW9r0R4/BXcVUpc2Vu0UvLa9Tmj7NYAFT1ehzTkNXiJq99J1wr1arLPHbmzvXMeeuVyLAJhLSQfziQBYD3C/FhuvOsP/mYVtrk7wmvguQ4qHwyoCoO7wf5bnVA+QZTZ50yGP3nQV2pxj8emETLS5OmF158sE8yZ7CwJgskXbbMYQAOt5ev/337ckAoqc/6yzqK3XACdIsmvcLsOtWuKa6sY4dRe7MgHw+i6hbqTV1hyLVDfGnlxaxinl/E17YDuWJBEAYympnu1EABQXwEEtNF6HFydZeLaNxt0rHroObc2xSN0Pvi0nRTfvGqykNuZYePg/1Y1xG06KjpZkgU7IJ4AAyOfC0RUCCIAVICv/3qgFARDZavefW7DHKx76CK9tOC9eohbZajdlF7uiJ9c/SLLQ6Tq0MccistXuuSXZEVIRq7rnXtY11JGlhwAYWYH1ZS4CoJj81pJ+02Dj5XfU3vI0NTT9jtfbDXvb4T7CzRrk6g4kdfg/y3vT6+hfmUXcw2fTcyweFMxD6l4F64TBvkF7pn47AmDqJdxQ/hAA5SD9tLGuIap7PNuDvTzV9Ve8s0F7Xr0+mdbPND3HInX4P8to0+5rvTtkX6HJORaR4f8s/94Hoe5vZd31R0myMCesJ4AAWM+GM0sEEABLMNZ89dPGusao7vED1qRR53DqLnZ5tt6kTsItXPuqhthGh/+zrDXlvtajRttkkfbw2eQci8jwf5b1Jl8DPD+LlM+1BBAAa9FwYpkAAmCZRv73rSQd2UBHFR3+z6xrat36ECZS3bABrhY2h2Vwgp/3aMieFwXtaOL2puZYRIf/s7x8tCG2V88i5HMtAQTAWjScWCaAAFimsf67G/S8J+g6x768PvraZ5rYxe6ltVNt/gYP5XpItw7HvGsf0ZBpTbmv3acheyLRNDHHoonh/ywP/6+Bcv6pJAtyQjEBBEAxH85uEEAAVKsKV2ug8arroa7IsiacAl2rKIEOz0XFlXcxLNufvk52ok6BfjKQTspzLKITWD9WB1zJtd4O+aTg7+gZJWlw+kwCCABqQiUCCIBKmP5x0aGBxsvD7TtXT6r0SjfuPwrYE50xX2pgjQu8J8Ipgbw07WznupL8uiZvpKHKsVSHOTWQVb70wEA+nNcbV06p2oUvD9jjXSSbFHrVLB7nVQiAcZZb51YjAKojv4wk+x+v0gksX+MJal6/33RwR5Wyvvo4SZdr2phgfI9N4GrGbujOH0w77/aXJNpzyMBmqHuJp1eeLNfHqt//Jw9M8JhHAX6caM/9gmnP6XYEwJxKO5BXBEA9eNeU9NsaDZifbL0Eqq1gJz525Vu1Uf+dpKEM/a8y+TdJFktV8/JDSXuuRtLQ/57B/4oattjmj3e4o2KdbJ53Y5JkVa6+zhthteXEyH4wvlOD7WkL4d3k67M67MZ6LQJgrCXXsd0IgPrAd1n4zn9OiRDwcKVd7HrUoO1wkcUubXY6Y6c+6xp5d/zPlWTbhxyuIclL8Yr2kf+ZpCct8uPVEG0HT6TzU707oTy2flXwNUne9W7Ik9MsaB4g6dtr8uG8OY+fXeTHPgTaDt7XwhtiFb3G+stipMo+L67YtjETjB8BMMFCbSNLCIAY1d0lXXXlz0+lffgp94z6S6zYYtsuGstiL3e7g7jsSl6u3OM74B0k7bVizxVGIKjyCu98G53qcr113rwCoo9wwYXoc9ku22Ph3JeHyj4YNJ0mAqBpohONDwEw0YIlWxCAwGwJIABmW/T1Mo4AqMeLqyEAAQgMnQACYOglNBD7EAADKQjMgAAEINAQAQRAQyCnHg0CYOolTP4gAIG5EUAAzK3EE/OLAEgEx20QgAAEBkoAATDQghmaWQiAoZUI9kAAAhCIEUAAxPjN5m4EwGyKmoxCAAIzIYAAmElBR7OJAIgS5H4IQAACwyKAABhWeQzWGgTAYIsGwyAAAQgkEUAAJGGb300IgPmVOTmGAASmTQABMO3ybSx3CIDGUBIRBCAAgUEQQAAMohiGbwQCYPhlhIUQgAAE6hBAANShNeNrEQAzLnyyDgEITJIAAmCSxdp8phAAzTMlRghAAAJ9EkAA9El/RGkjAEZUWJgKAQhAoAIBBEAFSFwiIQCoBRCAAASmRQABMK3ybC03CIDW0BIxBCAAgV4IIAB6wT6+RBEA4yszLIYABCBQRAABUESHc2cRQACchYIvEIAABCZBAAEwiWJsPxMIgPYZkwIEIACBLgkgALqkPeK0EAAjLjxMhwAEIJBDAAGQA4VDWxJAAGzJhCMQgAAExkwAATDm0uvQdgRAh7BJCgIQgEAHBBAAHUCeQhIIgCmUInmAAAQgsIkAAmATC74VEEAAFMDhFAQgAIEREkAAjLDQ+jAZAdAHddKEAAQg0B4BBEB7bCcVMwJgUsVJZiAAAQgIAUAlqEQAAVAJExdBAAIQGA0BBMBoiqpfQxEA/fIndQhAAAJNE0AANE10ovEhACZasGQLAhCYLQEEwGyLvl7GEQD1eHE1BCAAgaETQAAMvYQGYh8CYCAFgRkQgAAEGiKAAGgI5NSjQQBMvYTJHwQgMDcCCIC5lXhifhEAieC4DQIQgMBACSAABlowQzMLATC0EsEeCAyTwF6S7ivpQEkPlXRtSVsP09TZW4UAmH0VqAYAAVCNE1dBYK4EbiLp65L+nvP3S0kPkLTVXOEMNN8IgIEWzNDMQgAMrUSwBwLDIfDMnE4/Twh8UNKOwzF79pYgAGZfBaoBQABU48RVEJgbgQMqdv6ZIDhC0sXnBmmg+UUADLRghmYWAmBoJYI9EOifwB6STqkpACwEfr8xN6D/HMzbAgTAvMu/cu4RAJVRcSEEZkMg0i5YONxrNqSGmVEEwDDLZXBWRX7ohw8uNxgEAQg0QeBnCU//2auA7PNZrBJooiiS4kAAJGGb300IgPmVOTmGQBGB7ST9rQEBYCHwHkk7FCXGuVYIIABawTq9SBEA0ytTcgSBCAHP5s+e4pv4/Laki0YM4t7aBBAAtZHN8wYEwDzLnVxDYB0Br+lPmQBYJBaOknT1dQlyvHECCIDGkU4zQgTANMuVXEEgQuAnDY8CWBycLOkeEaO4tzIBBEBlVPO+EAEw7/In9xDII/DZFgSARYDnFjwbz4F5yBs9hgBoFOd0I0MATLdsyRkEUgm8qSUBkL0mOFjSOVON475SAgiAUkRcYAIIAOoBBCCwSqCqC+CsQ0/5/IqkC64mzP+NEEAANIJx+pEgAKZfxuQQAnUJPKjlEYBMMPxa0lXrGsf1pQQQAKWIuMAEEADUAwhAYJXALTsSABYCJ0q6/aoB/B8igAAI4ZvPzQiA+ZQ1OYVAVQJ7dygALAI8OfBpVY3julICCIBSRFxgAggA6gEEILBKYOeOBUD2SuBti1UC9kRIiBFAAMT4zeZuBMBsipqMQqAWgeN7EgFflHSBWpZy8SoBBMAqEf7PJYAAyMXCQQjMnsB3ehIAHg3wZkSXn30JpANAAKSzm9WdCIBZFTeZhUBlAh/tUQBYBJwg6TaVreXCZQIIgGUafF9LAAGwFg0nIDBrAgf1LAAsAk5fuBA+cNalkJZ5BEAat9ndhQCYXZGTYQhUIvCUAQiAbHLgqyWdrZLVXGQCCADqQSUCCIBKmLgIArMjcJ8BCQALgcMknX92pZCWYQRAGrfZ3YUAmF2Rk2EIVCJww4EJAIuAH0u6bCXr530RAmDe5V859wiAyqi4EAKzIrDnAAWARcAxkm48q5Kon1kEQH1ms7wDATDLYifTECglYIc89tCXvYev+/mD4P1F6Z0qyfsVEPIJIADyuXB0hQACYAUI/0IAAmcR+H1AALxA0l0knRSIo0gE+JxXKmx7lrV8yQggADISfBYSQAAU4uEkBGZN4GuBzvvgDXL7SPpdIJ4yEfAJSXZdTNhEAAGwiQXfCgggAArgcAoCMyfw3kDH/ZUldhdZOPX5RiCuMhHwQ0mXXkpv7l8RAHOvARXzjwCoCIrLIDBDAi8OdNpHrfA6l6T3B+IrEwF/lHSDlTTn+i8CYK4lXzPfCICawLgcAjMicECgwz5D0tlXWG21+N/b/pZ15qnn/7pwgrP/Sppz/BcBMMdST8gzAiABGrdAYCYE7hzsrC++htN9JbmzTu3oy+57iaSt16Q9h8MIgDmUcgN5RAA0AJEoIDBRAtcKdtLXK+ByHUlHB+MvEgLezGingvSnfAoBMOXSbTBvCIAGYRIVBCZG4MLBDvoeJTz2kPTdYBpFIuDbki5WYsMUTyMApliqLeQJAdACVKKEwEQIbCPJTneKOtmic0+owGFHSR8OpFGUvs/9QdK+FeyY0iUIgCmVZot5QQC0CJeoITABApHO5OUV82+h4ff2ZZ156vlTJN2zoi1TuCxSZk+eAgDyUI0AAqAaJ66CwFwJfD7QMX+oJrQHBkccigSC3Ro/eyaTAxEANSveXC9HAMy15Mk3BKoReGtAAHyrWhKbXXVTSccG0iwSAT73Lknn3CzF6f3z/QC/x0wPBzlaRwABsI4MxyEAARPwU3NZp7ruvHfuSwmXkuTNhNbFGz3+v5J2TzFsJPd8KsDuTiPJI2Y2QAAB0ABEooDAhAk8LNCZuKO2B8CUsIukzwTTLhIK9lR4tRTDRnDPkxK5nS7p/CPIHyY2RAAB0BBIooHARAncJrEzyTrfywW4eKc/TyTM4mr680RJdwjYN9RbPbpxcgK3dw81Q9jVDgEEQDtciRUCUyFw5YSOZLmjvlkDIB4lyU+ny/E29d2TA+2e2G6KpxSeWpPXCZL2nBIA8lJOAAFQzogrIDBnAh6Kj3S2928I3s0lHRe0pSgfb5e0fUO2DiEau0J+R0VeHi241RCMxoZuCSAAuuVNahAYI4E/V+xI8jrYpzeY4b0l/TxgS559y8e+JGnXBu3tOyqLAK/r96uO5Xwuf/8/Sdfo21DS74cAAqAf7qQKgTERiCwre13DGT2fpM8VdGjLnVvK919J+qeGbe47ut0WoyeP3tiO+XBJh0l6taTbSbITJsJMCSAAZlrwZBsCNQh8MtDhHlIjnaqXnkPSGwM2lQkDj3jctqoxXAeBsRJAAIy15LAbAt0ReE2gs/1hi2Z6cuAZAduKhIAnHR7You1EDYHeCSAAei8CDIDA4AnUnVG+3LGe1PIM+38uece9bEvKd4ufsw++hDAQAgkEEAAJ0LgFAjMjcN/gU7bf27cZriTpyKCNReLA+yHgIKfNEiTuXgggAHrBTqIQGBUB++cv6iDLznUxqc4T3b4atLMoHz+RFHFqNKoCx9h5EEAAzKOcySUEIgQuE+xYPdu8i7DdwpnNW4K2FokAO8thvXwXJUkanRBAAHSCmUQgMGoC3j2vqGMsO/fwDnNvj36evGcPf2V2pZz35MBHdpgfkoJAawQQAK2hJWIITIrAHwMd6nN6IHFnSZ6AmNLJV7nnIEln6yFfJAmBxgggABpDSUQQmDQBb6FbpWPMu8ZudvsI+0j6bcDuvLwsH7N/hHP3kTHShEATBBAATVAkDghMn8AHAh3pF3rEc2FJXw/Yvtzh533/kSTPkSBAYHQEEACjKzIMhkAvBF4W6ES9RK/PcC5J7wvYn9fxLx/708I98Q37zCBpQyCFAAIghRr3QGB+BDyxbrnTq/PdE+e27RmZJwd62986dte59jRJD+05jyQPgVoEEAC1cHExBGZL4G7BznP3gZBzPrz9bZ3Ovc61L2GDnYGUNGaUEkAAlCLiAghAQNJ1g53mtQdE0bb8PpifIlHwMUk7DSi/mAKBXAJWq0UVuejcN3Jj5CAEIDBFAhcLtBVuR+4yMCiXlPTdYJ6K2scjJF18YHnGHAhsRuBZgR/ArzeLiX8gAIEpE/A7fL/LL+r0is49boBwdpT0oUCeivLrc3+QdL0B5huTIPAPAk8MVH5PetkGjhCAwGwI/CrQXvh14xCD27BnB/JVJgJOkXTvIWYcmyDw4GDFvzQIIQCB2RD4UqC98DK8IYcHSDo1kL8yIeDXrVsPGQC2zY/ATYIV/oD5ISPHEJgtgXcG2osxzBlye3hMII9lIuDdkryvAgECgyDgpTlllbbovPfJJkAAAvMg8LxAe3H0SBDtuZiw+P1APovaS5/7lqSLjoQFZk6cgJ1jRBSvd9y65sQZkT0IQOBMAt4Fr6yDW3febcX2IwG5i6RPB/K6jkF2/ChJVx8JC8ycOIH3Byv6YRPnQ/YgAIEzCdwh2FZcakQgveoh4v446+zXfdoZ0d1HxANTJ0ogouqzys0s14lWDrIFgSUCVw0KgBsvxTWWrw+U5BVPWVvX5KdHReye2COxBAj0QsDvvFwRIxXbapZXAb0UH4lCoDMCFwi2E/t3ZmmzCe0n6bhg3ova13eM6PVIs2SJbRAEvthA5fa+21ceRG4wAgIQaIOAn1RPCrQV/9aGUR3FufdiPf/PAnkvEgA+92VJF+woLyQDgc0IRP0BZJX7REn/vFnM/AMBCEyJwI8DneD/jBzEeSUdGsh/1k6u+7R31auMnBHmj5DADhtuK9dVzDrH/TrhrZIuMUIOmAwBCBQTiMyO/3hx1KM4e3ZJr29RBPxZ0u1GQQIjJ0XgKQ1X6r9Keo2kW0g6x6RIkRkIzJfAGwLthDffmUp4lKQzAiyKHqqyyYFTYUU+RkDg3A2OAqxW7hMk2Y3oeyXZJ7h9b/MHA+pAvTrwVEn3kXShHtuTZwQ6PT/dTincUtLxAR6r7eTq/6+V5BEHAgQ6IXC/FivzauXm/9jKC/jNl5+fPA/uabtZ+8yP1D0/aEwpXFHSL4JMinh+QZJXXxAg0DoBb1bRxIqAogrNuVgDCj/4ZXXgjwuPdfu23ipsnsDNg52dO8yphd0WrzoPD3LJyjTv86cLwbfX1KCRn2ESsF+ANoe18io4x+jUqANpdeDYxaTbLj3sXT7Y0d1qmM1e2CrPc3pzkE3Rb8CvUW8dtpIIIFCBwJ1arMhFlZxzaZ0A3ObNrcvZ9TsG24aHVGh/xnqJ/SQc2OLkwNM34h8rH+weEYH/DP7Q6ZTm3SlR/t2Wf5dD6x51SC3fZ42oDUw11Q9QfwkwKmN7kKSzpRrHfRCoQsBq1sv4yioj52FEHei/Djyxyo+6oWuOCLQLHiafQ/gnSb8McCr7TR0i6TxzAEke+yPgHbHe2GIlLqvknO+/Y6EMxlEGXjLWVfhIoE2wJ725BC/X/HqAVdlvz14ZLzsXmOSzHwIeCXhei5W4rJJzfhwdEOXUbzl1+WT9ykB7YH/6cwr2smr/J239Pv4k6UZzAkpe+yFgHwGRjUDa+gEQb3uNC2zHw7bLd+tPCnRo9hDq5cZzCn6I8ra/bf2evF3xw+YElLz2Q+AKkuzOs62KTLywpQ6k1YEbd9gk3CvYBnjd/BzDXRez+L11elt13JMD/dqWAIHWCNg1pScctTnLta0fCPG21/jAtj+2P+i44b9+sBO7Rmut0/Ajvpak3wX5Ff3WvCR05+FjwMKxE7jowie5t/f0kF5RheQcfKgD7dUBuwXer+PG5JLB3/y/dGzv0JK7iKRvBhkW/ab+j91Yh1bk07XHldmTBH/bYoUuquyca69zge2w2XrXuMf00LR4FDCyE14fNveAqTDJc0n6YIttpt1Ee6SGAIFOCGyzsfWv30N5eQqdBwyoA+3VgV9Jun0nv+z8RCKC/4X5Uc7uqNtM74jZ1u/klI3dI2cHlgz3T2B3SbdbrBx4/IZDoQ8sNi759Ma6WK+N5Q8G1IF6deCwDb8cd5e0fc8/8cjmN+/u2fahJX9/Sae2KAReMsOVF0MrY+yBAAQgMBkC7sRTn1wtHgibE7iupKMDTMvKws6bvI8DAQIQgAAEIBAi8KJAZ/WbUMrTvXkPSd8LcC0TAd+W5MnbBAhAAAIQgEAygccGOipPXvT2uYQtCdi//6cCbMtEgMXXnJdhbkmcIxCAAAQgUIuAl/KVdTZF572UkJBPwM58/jvIt4i9nRHdIz9pjkIAAhCAAASKCVwz2EGxRK2Yr88+sMXJgR6F8QqEubllLqfOFRCAAAQgUEjA7nyLnjLLzt2zMHZOZgRuJunYIOuisjhY0jmzxPiEAAQgAAEIlBHwk2PEC6g3FCJUI3ApST9sUQR8RdIFq5nCVRCAAAQgAAHJW/sWPV0WnfOWwoTqBM678Oz32QDvorLwuV9Lump1c7gSAhCAAATmTOBzgQ7pw3MGl5h3u2B+XYB5mQg4sWfvkolYuA0CEIAABLom8OZAZ3RE18ZOKL1HBfdiKBICnhz4tAmxIisQgAAEINACgWcFBIAnthHSCdxisRHU8QH+RSLA5962WCWwXbp53AkBCEAAAlMm8JBgB7TTlOF0kLcrSPpFsAyKhMAXJV2gg3yQBAQgAAEIjIzArYOdz14jy+8QzT2fJG8SVdSRR855ouflh5hxbIIABCAAgf4IXDHY8dy8P9MnlbLdKr8pWBZFIuEESbeZFDEyAwEIQAACIQL2W1/UcZSde0AodW5eJrCVpANbnBx4+kb8y2nyHQIQgAAEZkzAT4dlHf2688+YMbe2su49Gv4SKJN1ZZUdf7Wks7VlPPFCAAIQgMB4CHw30Nm8fmDZ9FP0FMLVJB0VKJess1/36d0KPfpDgAAEIACBGRP4eKCj+XTP3OzO+E6SPrLkb99D3d4y9xuS7KzotYsNczxS8XBJd5B0bUmXkLR9z7aXJX/hjTys68Sjx+2a+NJlRnAeAhCAAASmS8BDwqmdyY96xLK7pC8FbHee7cvgexsuet8i6YWSDpDkjY5uLMmrHHbpMY/e5OfdwTwWle0xG/nsMYskDQEIQAACfRH490AHc5KkPobd/XT8y4DdRZ1i3rlTJB25ITjeL+nlkszt/pK8lNJD9rZp2xYK0Xz/c5GePfzl2RY9dqqkB7VgN1FCAAIQgMDACewf7Fi6djTjDvHQoM3RTnPd/e6kfyfJbpI/JukNkuxt8ZGLkYY7S9p3Y9h9h4Q64VEJC5F1aUePv1jSNgl2cQsEIAABCIyUgIe6I51H1zvQ+Z1/xN6h3OuNe/we3k6A3iHJHfATJN1b0n6S7CVw15U65fkLv28x/x9dvAbBu+MKdP6FAAQgMFUCnggW6RRv3yEYP6F+P2hvJK993Oshem/1+1VJH5T0iZbz/52FU6JLdlimJAUBCEAAAj0R8IYxkffLHt7uKvy/lju/Pjr4Iab5x8Vrlht0VaikAwEIQAAC/RE4OtCxPq8js+285qcBO4fY0Q7Zpr8uNiry/BACBCAAAQhMmIDXzKd2Rn5/3UXwOv5UG7kvnd1LFn4U7G+BAAEIQAACEyTwvkDn6i1n2w5eD2/nPnTk/TBw/fCrIgIEIAABCEyMwH8HOtdfdcDi8QH7EA3NiAZ7W2QkoIPKThIQgAAEuiTwuEAHa9e7bTjAyfK/88KNryel0ZH3z+AxWaHwCQEIQAAC0yBw12AHe9EWMTw9aBvCoTnh8AdJ52ixrIkaAhCAAAQ6JmAHM5GO8rot2Xs+SZHtiiN54t78OnHLlsqaaCEAAQhAoAcC3lgn0uHdrSWbnx+0K5In7s2vE09uqayJFgIQgAAEeiDgd/inBTpbT9JrOnhzHW82FO2I7dnO/vkjzo6iNkzp/q78PjRdn4gPAhCAAATWEPBud6kd1UvXxBk5/MqAPVk+PrlkgB0JWVRcXdJtJD1gY0c/7+znHf68tbAZtLnhTmbXmD+fuMSUrxCAAAQgMAECXwh0uB9oOP97SLIP/EhH6Sf+ayTadV5Jl5fkjZLuJelfF5vkvFDSWzZ2IvyepOOC9kXy1ue9N01kym0QgAAEIDBQAm8PdGjfbDhPbwrYknWOdl7Tdth+Y+Oc6yy2AL7jYrmivRX+h6TXSfqwJHOxAyMvlczsGvOn8+KRFAIEIAABCEyIwHMCnZSXhzUV/OQd7TDPkLR3UwY1EI8d6Oy2eNVw5cWufp5F702NniLJDpjeLcmjL97noIk5D20KjPs3wIIoIAABCEBgYASivvbtrreJ8J6AEMk6Pw/VjzXsJOlykq4v6e6LVw2PluSJdys5158AAAjtSURBVB4VOUSSJzX24RjprWMFit0QgAAEIFBM4HbBjvcyxdFXOnu1Bmbre+7AnpVSG/dFdsjj5Zv7SHLZPWSRnactRhoOkvTBxUjDVyX9uqG5FB6paNPb47hLAushAAEIjJzAVYIC4CYN5P8TQRs8AuAOkLA5gQtIuoKk/STdW9KBkl4syTs5HibpB4uJjieusD9ekueFXHPzqPgPAhCAAASmRsBe97Ih9JRPv9eOhOsF07fNJ0u6SMSImd+7g6RLSLrQzDmQfQhAAAKzI/CXQCf81CCtQwNpZ4LlBUEbuB0CEIAABCAwSwI/DHTCrwkQ88z4rBNP/fyzJA91EyAAAQhAAAIQqEngU4GO2O/vU8JWC8983wikmwmGZ6Qkzj0QgAAEIAABCJzpwCbrUOt+fj8R4J0a6PyPlXSexPS5DQIQgAAEIDB7Ak8PdMaeP1A3bCPJbnXrio3V659QN2GuhwAEIAABCEBgEwF7elvtXOv8v8umqCp92z+Ynm07WtK5KqXGRRCAAAQgAAEI5BK4WbBDvlJurPkH7VPe7m/rCIy8ax+RHz1HIQABCEAAAhCoSsAuaPM62arHvM1u1fCwYFq2ydv32iMeAQIQgAAEIACBAAEPpVft7POue2jFtL2Lnt3U5sVR59h9K6bHZRCAAAQgAAEIlBA4JtAx/1dJ3Nlpu6Kt09HnXfsj/NNnOPmEAAQgAAEIxAl8K9A5V9mFb+eGdrO7SzyrxAABCEAAAhCAQEbgQwEB4I1lykJkqWE2EnCEpK3LEuI8BCAAAQhAAALVCbw8IAB+XpKMNxzyLnNZR576eeuSdDgNAQhAAAIQgEBNAnaqk9oxnyrJzn3WhecH4s5sOlyS3QcTIAABCEAAAhBokMA9gp30uq1kd5MU2W0wEwA3bDCvRAUBCEAAAhCAwAaB6wUFwD5rSL4yGK8FwCfXxM1hCEAAAhCAAASCBC4e7Ki9uc9qcJx/DcZrAbBOXKymx/8QgAAEIAABCNQkYBe9pwc66wNy0ntTIL5s6P99OfFyCAIQgAAEIACBBgkcFeiwX7xix+WDgsIC4AxJdfYZWDGBfyEAAQhAAAIQqELgKwEB8J6VBPx/9hSf+lnFwdBKsvwLAQhAAAIQgEBdAgcHOu2vLiV2VUl/C8RlweDXEZdZipOvEIAABCAAAQi0ROAFgU77d0s2fSIQTzZacNBSfHyFAAQgAAEIQKBFAo8OdNx+4t9O0nUDcWSd/8mSdm8xn0QNAQhAAAIQgMASgTsGO+89JB0ajMMi4IVLNvEVAhCAAAQgAIGWCVw92Hk/N3i/O/8TJe3acj6JHgIQgAAEIACBJQIXDHbgpwXvtwB45pI9fIUABCAAAQhAoAMC3mznlAY68exdft3PYyWdp4N8kgQEIAABCEAAAisEftKjAPCOhAQIQAACEIAABHog8NmeBMDRknbsIb8kCQEIQAACEICApCb899cd+vf1j4A+BCAAAQhAAAL9EfAkvJQOPHLPkZLO0V+WSRkCEIAABCAAgQf1IADuC3YIQAACEIAABPolcMuOBcCPFkv/tu03y6QOAQhAAAIQgMDeHQuAu4AcAhCAAAQgAIH+CezcoQA4QtLW/WcZCyAAAQhAAAIQMIHjOxIBtwY3BCAAAQhAAALDIfCdDgTA4ZLseZAAAQhAAAIQgMBACHy0AwFwo4HkFTMgAAEIQAACENggcFDLAuAQSEMAAhCAAAQgMDwCT2lZAOwzvCxjEQQgAAEIQAAC92lRALwfvBCAAAQgAAEIDJPADVsSAGdIutIws4xVEIAABCAAAQjs2ZIAeCtoIQABCEAAAhAYLgFvzPO3hkXA6ZIuM9wsYxkEIAABCEAAAibwu4YFwP+AFQIQgAAEIACB4RP4WoMC4GRJuw8/y1gIAQhAAAIQgMB7GxQALwInBCAAAQhAAALjIPDihgTAiZJ2HUeWsRICEIAABCAAgQMaEgDPBCUEIAABCEAAAuMhcOcGBMCxknYZT5axFAIQgAAEIAABu+v9e/DviWCEAAQgAAEIQGBcBC4c7Py9jHCHcWUZayEAAQhAAAIQ2ErSMQER8EgQQgACEIAABCAwTgLvShQAR0qyN0ECBCAAAQhAAAIjJLBvogDYf4R5xWQIQAACEIAABJYIvLamCDhEkl8fECAAAQhAAAIQGDGB7SR9qKII+Iyk84w4r5gOAQhAAAIQgMASgW0kPV7ScWuEwPGS7PBn26V7+AoBCEAAAhCAwEQI7CjprpJeKOkNkp4l6d6SfJwAAQhAAAIQgAAEIAABCEAAAhCAAAQgAAEIQAACEIAABCAAAQhAAAIQgAAEIAABCEAAAhCAAAQgAAEIQAACEIAABCAAAQhAAAIQgAAEIAABCEAAAhCAAAQgAAEIQAACEIAABCAAAQhAAAIQgAAEIAABCEAAAhCAAAQgAAEIQAACEIAABCAAAQhAAAIQgAAEIAABCEAAAhCAAAQgAAEIQAACEIAABCAAAQhAAAIQgAAEIAABCEAAAhCAAAQgAAEIQAACEIAABCAAAQhAAAIQgAAEIAABCEAAAhCAAAQgAAEIQAACEIAABCAAAQhAAAIQgAAEIAABCEAAAhCAAAQgAAEIQAACEIAABCAAAQhAAAIQgAAEIAABCEAAAhCAAAQgAAEIQAACEIAABCAAAQhAAAIQgAAEIAABCEAAAhCAAAQgAAEIQAACEIAABCAAAQhAAAIQgAAEIAABCEAAAhCAAAQgAAEIQAACEIAABCAAAQhAAAIQgAAEIAABCEAAAhCAAAQgAAEIQAACEIAABCAAAQhAAAIQgAAEIAABCEAAAhCAAAQgAAEIQAACEIAABCAAAQhAAAIQgAAEIAABCEAAAhCAAAQgAAEIQAACEIAABCAAAQhAAAIQgAAEIAABCEAAAhCAAAQgAAEIQAACEIAABCAAAQhAAAIQgAAEIAABCEAAAhCAAAQgAAEIQAACEIAABCAAAQhAAAIQgAAEIAABCEAAAhCAAAQgAAEIQAACEIAABCAAAQhAAAIQgAAEIAABCEAAAhCAwJAI/H8KvmUVv3J1ogAAAABJRU5ErkJggg==;" parent="1" vertex="1">
          <mxGeometry x="534.88" y="487.69000000000005" width="95.12" height="95.12" as="geometry" />
        </mxCell>
        <mxCell id="LDEMuyIFx6sQ8Yjgb2jP-31" value="&lt;font style=&quot;font-size: 24px;&quot;&gt;PÃ¡gina web&lt;/font&gt;" style="text;html=1;align=center;verticalAlign=middle;resizable=0;points=[];autosize=1;strokeColor=none;fillColor=none;" parent="1" vertex="1">
          <mxGeometry x="507.43999999999994" y="570.25" width="150" height="40" as="geometry" />
        </mxCell>
      </root>
    </mxGraphModel>
  </diagram>
</mxfile>
